<?xml version="1.0" standalone="no"?>
<!DOCTYPE svg PUBLIC "-//W3C//DTD SVG 1.1//EN" "http://www.w3.org/Graphics/SVG/1.1/DTD/svg11.dtd" >
<svg>
<metadata>
Created by FontForge 20120731 at Thu Jan 31 11:14:37 2013
 By Stefan Warting
Copyright (c) 1990-1996 ParaGraph. All Rights Reserved. Friz Quadrata is a registered trade mark of International Typeface Corporation.
</metadata>
<defs>
<font id="FrizQuadrataC-Italic" horiz-adv-x="636" >
  <font-face 
    font-family="FrizQuadrataCTT"
    font-weight="400"
    font-style="italic"
    font-stretch="normal"
    units-per-em="1000"
    panose-1="0 0 0 0 0 0 0 0 0 0"
    ascent="800"
    descent="-200"
    x-height="475"
    cap-height="700"
    bbox="-331 -262 1227 931"
    underline-thickness="40"
    underline-position="-60"
    slope="-12"
    unicode-range="U+0020-F002"
  />
<missing-glyph horiz-adv-x="450" 
d="M50 0v512h400v-512h-400zM58 8h384v496h-384v-496z" />
    <glyph glyph-name=".notdef" horiz-adv-x="450" 
d="M50 0v512h400v-512h-400zM58 8h384v496h-384v-496z" />
    <glyph glyph-name="glyph1" horiz-adv-x="0" 
 />
    <glyph glyph-name="glyph2" horiz-adv-x="420" 
 />
    <glyph glyph-name="space" unicode=" " horiz-adv-x="233" 
 />
    <glyph glyph-name="space" unicode="&#x45d;" horiz-adv-x="233" 
 />
    <glyph glyph-name="space" unicode="&#x40d;" horiz-adv-x="233" 
 />
    <glyph glyph-name="space" unicode="&#xa0;" horiz-adv-x="233" 
 />
    <glyph glyph-name="exclam" unicode="!" horiz-adv-x="420" 
d="M362 700l-127 -468q-5 -16 -7 -26t-1 -15q-1 -4 0.5 -10.5t4.5 -12.5h-80q7 8 11 18.5t12 54.5l64 366q1 8 3 21.5t2 18.5q0 15 -7.5 27t-21.5 26h147zM177 126q20 0 32 -15t12 -39q-1 -33 -17.5 -57t-43.5 -24q-22 0 -33.5 14.5t-11.5 39.5q0 37 18.5 59t43.5 22z" />
    <glyph glyph-name="quotedbl" unicode="&#x22;" horiz-adv-x="578" 
d="M256 419h-66l44 281h99zM422 419h-67l44 281h99z" />
    <glyph glyph-name="numbersign" unicode="#" horiz-adv-x="660" 
d="M387 0h-65l60 204h-146l-60 -204h-66l60 204h-147l18 62h147l49 165h-147l17 62h148l63 207h65l-61 -207h145l62 207h66l-62 -207h150l-18 -62h-151l-48 -165h150l-18 -62h-149zM400 266l50 165h-147l-49 -165h146z" />
    <glyph glyph-name="dollar" unicode="$" horiz-adv-x="542" 
d="M353 700l21 101h46l-21 -101q32 -2 63 -8t61 -17l-12 -133q-16 36 -50 59t-77 29l-50 -226l27 -16q78 -47 107.5 -86.5t29.5 -92.5q0 -89 -68 -147t-181 -62l-21 -98h-47l21 98q-39 0 -75 8t-68 22l-26 138q37 -41 84.5 -65t100.5 -29l56 259q-76 40 -109.5 81.5
t-33.5 96.5q0 81 63.5 134t158.5 55zM314 308l-50 -234q55 1 96 33t41 89q0 33 -18.5 57.5t-68.5 54.5zM295 432l42 198q-47 -5 -77 -32.5t-30 -67.5q0 -30 17 -55.5t48 -42.5z" />
    <glyph glyph-name="percent" unicode="%" horiz-adv-x="711" 
d="M259 710q57 -1 89.5 -34t33.5 -88q0 -84 -49.5 -145t-121.5 -60q-58 0 -92 33.5t-33 89.5q0 83 46.5 143.5t126.5 60.5zM251 660q-42 0 -67.5 -46.5t-25.5 -106.5q0 -37 16.5 -56t42.5 -18q40 -1 66.5 46.5t26.5 110.5q-1 35 -17 52.5t-42 17.5zM591 697h63l-492 -697
h-63zM547 318q57 0 90 -33.5t33 -88.5q0 -84 -49.5 -144.5t-121.5 -60.5q-58 0 -91.5 33.5t-33.5 89.5q0 83 46.5 143.5t126.5 60.5zM539 268q-42 0 -67.5 -46.5t-25.5 -106.5q0 -37 16.5 -55.5t42.5 -18.5q40 -1 66 46.5t27 110.5q0 35 -16.5 52.5t-42.5 17.5z" />
    <glyph glyph-name="ampersand" unicode="&#x26;" horiz-adv-x="676" 
d="M392 400l115 -186q91 -149 152 -208t127 -73q-20 -10 -44 -16t-46 -6q-47 0 -94 36t-93 105l-22 33q-38 -50 -92 -75.5t-122 -25.5q-106 0 -164 56.5t-58 137.5q-1 71 40 121t181 116q-32 50 -45 83.5t-13 63.5q0 63 51.5 108.5t143.5 45.5q73 0 118 -34t45 -94
q0 -57 -49 -109.5t-131 -78.5zM359 457q54 24 81.5 54t27.5 67q0 32 -21.5 52t-55.5 20q-37 -1 -62 -22t-25 -55q0 -19 13.5 -48t41.5 -68zM458 123l-150 236q-96 -48 -125.5 -82.5t-29.5 -82.5q0 -62 43.5 -99.5t107.5 -37.5q46 0 85.5 16.5t68.5 49.5z" />
    <glyph glyph-name="quotesingle" unicode="'" horiz-adv-x="414" 
d="M190 419l45 281h99l-77 -281h-67z" />
    <glyph glyph-name="parenleft" unicode="(" horiz-adv-x="305" 
d="M343 702h63q-118 -121 -180 -269t-61 -305q0 -76 14.5 -143t44.5 -131h-54q-45 80 -68.5 166t-23.5 168q0 138 67 267.5t198 246.5z" />
    <glyph glyph-name="parenright" unicode=")" horiz-adv-x="305" 
d="M-23 -146h-62q112 115 176.5 263t64.5 310q0 74 -15 142t-45 133h55q45 -84 68.5 -172t23.5 -163q0 -142 -72 -275.5t-194 -237.5z" />
    <glyph glyph-name="asterisk" unicode="*" horiz-adv-x="634" 
d="M370 700h97l-40 -64l-21 -82l90 38l43 36l19 -91h-71l-76 -18l48 -71l39 -33l-85 -51l-6 58l-30 85l-73 -82l-33 -61l-57 80l60 23l72 56l-78 20l-67 -6l53 97l46 -48l68 -32l11 95z" />
    <glyph glyph-name="plus" unicode="+" 
d="M377 117h-70v202h-198v70h198v202h70v-202h198v-70h-198v-202z" />
    <glyph glyph-name="comma" unicode="," horiz-adv-x="286" 
d="M1 -109l-18 23q37 8 66 27.5t47 48.5q-19 6 -27.5 19.5t-8.5 34.5q0 38 20 61t47 23q21 0 33 -15t12 -39q0 -39 -26.5 -80t-65.5 -70q-19 -13 -38 -21t-41 -12z" />
    <glyph glyph-name="hyphen" unicode="&#xad;" horiz-adv-x="362" 
d="M96 296h125q42 0 66 4t54 16l-67 -85h-126q-35 0 -62.5 -5t-54.5 -16z" />
    <glyph glyph-name="period" unicode="." horiz-adv-x="284" 
d="M114 133q19 0 32.5 -14.5t13.5 -41.5q0 -36 -17.5 -61t-46.5 -25q-22 0 -34.5 14t-12.5 43q0 39 19 62t46 23z" />
    <glyph glyph-name="slash" unicode="/" horiz-adv-x="376" 
d="M414 715h62l-504 -851h-62z" />
    <glyph glyph-name="zero" unicode="0" 
d="M398 716q108 0 173 -63.5t65 -194.5q-1 -187 -95 -330.5t-258 -143.5q-118 0 -178 71.5t-60 194.5q0 185 96 325.5t257 140.5zM386 646q-111 0 -175.5 -124.5t-63.5 -278.5q0 -93 43 -141t108 -48q93 -1 164.5 113t71.5 291q0 94 -39 141t-109 47z" />
    <glyph glyph-name="one" unicode="1" 
d="M345 549h-147q81 25 152.5 69.5t129.5 108.5l-133 -620q-4 -17 -5.5 -32t-1.5 -28q0 -19 8 -31.5t25 -15.5h-194q25 5 41.5 27t29.5 80z" />
    <glyph glyph-name="two" unicode="2" horiz-adv-x="635" 
d="M450 0h-461l313 320q73 75 104.5 125t32.5 89q0 43 -33 71t-92 29q-40 0 -76.5 -11t-86.5 -36l48 106q36 10 74 16.5t71 6.5q88 0 142.5 -46t54.5 -124q0 -50 -26 -97.5t-100 -122.5q-59 -60 -95.5 -95t-38.5 -37l-107 -106q40 -5 76.5 -7t84.5 -1q59 0 107.5 10.5
t98.5 32.5z" />
    <glyph glyph-name="three" unicode="3" 
d="M180 332l19 86q25 -5 44 -6.5t37 -1.5q86 0 131.5 33.5t45.5 88.5q-1 49 -33.5 78.5t-86.5 29.5q-42 0 -87.5 -15.5t-84.5 -42.5l55 111q46 12 75.5 17t62.5 6q101 -1 151 -47t50 -116q0 -69 -43.5 -118t-131.5 -66q62 -7 102 -45.5t40 -106.5q0 -104 -82 -168.5
t-218 -64.5q-35 0 -79.5 6t-88.5 17l-30 116q48 -32 98 -48t101 -15q86 0 141.5 40t55.5 112q0 62 -47.5 93.5t-134.5 31.5q-17 0 -31 -1.5t-31 -3.5z" />
    <glyph glyph-name="four" unicode="4" 
d="M364 160h-368l447 540h129l-100 -464h27q41 -1 66 6.5t52 24.5l-61 -107h-100l-11 -53q-5 -20 -6 -33.5t-1 -25.5q0 -21 8 -33t25 -15h-190q26 5 41.5 26.5t29.5 80.5zM386 236l88 396l-330 -396h242z" />
    <glyph glyph-name="five" unicode="5" 
d="M281 610l-44 -200q29 8 57.5 13t52.5 5q92 0 147.5 -49.5t55.5 -132.5q0 -109 -82 -185.5t-226 -76.5q-38 0 -76.5 6t-78.5 16l-47 123q48 -32 104 -50.5t108 -18.5q81 -1 138.5 42.5t57.5 118.5q0 63 -45.5 99t-116.5 36q-31 -1 -62.5 -8t-77.5 -23l80 375h241
q65 0 93.5 6.5t54.5 22.5l-46 -119h-288z" />
    <glyph glyph-name="six" unicode="6" 
d="M204 338l53 91q28 12 57.5 17.5t59.5 6.5q97 0 156.5 -57.5t59.5 -150.5q0 -115 -80.5 -188t-194.5 -73q-111 0 -179.5 69t-68.5 180q-1 181 149.5 331t389.5 152l-40 -63q-165 -11 -281.5 -126.5t-115.5 -275.5q-1 -88 43.5 -141t121.5 -53q68 0 111 46t43 120
q0 69 -42 113t-109 44q-37 0 -71.5 -11.5t-61.5 -30.5z" />
    <glyph glyph-name="seven" unicode="7" 
d="M655 700l-377 -599q-26 -40 -31.5 -53t-4.5 -20q0 -8 6 -16t16 -12h-155l388 617q-39 5 -74 8t-80 3q-66 0 -115 -16.5t-90 -46.5l85 135h432z" />
    <glyph glyph-name="eight" unicode="8" horiz-adv-x="635" 
d="M242 377q-44 21 -72 61t-28 89q0 77 65.5 133t181.5 56q105 0 163.5 -47.5t59.5 -114.5q0 -61 -51 -108.5t-121 -63.5q64 -33 97.5 -78.5t33.5 -102.5q0 -98 -79.5 -157.5t-206.5 -59.5q-118 0 -184 50t-66 134q0 66 50.5 119.5t156.5 89.5zM384 413q51 15 87 51.5
t37 82.5q0 48 -35 77.5t-92 29.5q-62 0 -99.5 -32.5t-37.5 -74.5q0 -37 32 -69t108 -65zM299 48q75 0 122.5 34.5t47.5 97.5q0 53 -44.5 93t-127.5 75q-85 -44 -122.5 -83.5t-37.5 -87.5q0 -56 44.5 -93t117.5 -36z" />
    <glyph glyph-name="nine" unicode="9" 
d="M474 361l-52 -90q-26 -13 -55.5 -19t-62.5 -6q-98 0 -157.5 57t-59.5 151q0 108 72.5 184.5t202.5 77.5q113 0 182.5 -67.5t69.5 -181.5q0 -183 -152 -332t-390 -151l40 62q177 8 288.5 129.5t111.5 273.5q0 87 -45 140.5t-122 53.5q-69 0 -112.5 -46t-43.5 -120
q0 -71 41.5 -114t108.5 -43q34 0 69.5 10t65.5 31z" />
    <glyph glyph-name="colon" unicode=":" horiz-adv-x="286" 
d="M203 506q20 0 33.5 -15t13.5 -42q0 -39 -19 -62t-45 -23q-23 0 -35.5 15t-12.5 43q0 38 18.5 61t46.5 23zM115 133q19 0 32 -14.5t14 -41.5q0 -40 -19 -62.5t-45 -23.5q-22 0 -35.5 14t-12.5 43q0 39 19.5 61.5t46.5 23.5z" />
    <glyph glyph-name="semicolon" unicode=";" horiz-adv-x="286" 
d="M214 506q19 0 32.5 -15t13.5 -42q0 -36 -17.5 -60.5t-45.5 -24.5q-23 0 -36 13.5t-13 43.5q0 39 19.5 61.5t46.5 23.5zM1 -109l-18 23q37 8 66 27.5t47 48.5q-19 6 -27.5 19.5t-8.5 34.5q0 38 20 61t47 23q21 0 33 -15t12 -39q0 -39 -26.5 -80t-65.5 -70q-19 -13 -38 -21
t-41 -12z" />
    <glyph glyph-name="less" unicode="&#x3c;" 
d="M541 607v-90l-356 -166l356 -166v-90l-446 216v80z" />
    <glyph glyph-name="equal" unicode="=" 
d="M575 467v-70h-466v70h466zM575 311v-70h-466v70h466z" />
    <glyph glyph-name="greater" unicode="&#x3e;" 
d="M493 351l-356 166v90l446 -216v-80l-446 -216v90z" />
    <glyph glyph-name="question" unicode="?" horiz-adv-x="454" 
d="M183 168h-83q-2 67 26.5 112t119.5 97q88 50 107.5 79t19.5 67q0 47 -34.5 81.5t-94.5 34.5q-37 0 -73 -11.5t-73 -32.5l40 96q35 9 69 15t69 6q91 -1 145 -47t54 -127q0 -56 -24 -95t-164 -119q-58 -34 -82.5 -66.5t-22.5 -68.5zM134 126q20 -1 32 -15.5t12 -37.5
q0 -34 -17 -58t-43 -24q-22 0 -33.5 14.5t-11.5 39.5q0 37 18.5 58.5t42.5 22.5z" />
    <glyph glyph-name="at" unicode="@" horiz-adv-x="782" 
d="M660 117l-15 -68q-54 -32 -120.5 -48.5t-135.5 -16.5q-141 0 -232 95t-91 245q0 175 110.5 283.5t288.5 108.5q144 0 227 -72.5t83 -198.5q0 -116 -67.5 -204.5t-157.5 -88.5q-40 0 -62 20.5t-22 49.5q0 11 3.5 30.5t9.5 39.5l48 158q-14 13 -33 20t-43 7
q-60 0 -98 -46.5t-38 -109.5q-1 -42 21.5 -63t65.5 -21q12 -1 24 1t28 7l-49 -66q-12 -4 -23 -5.5t-21 -1.5q-57 -1 -90.5 36t-33.5 98q0 90 61.5 163t159.5 73q14 0 29.5 -2t38.5 -7q34 -8 39 -8.5t10 -0.5q11 0 21.5 3t28.5 14l-71 -240q-9 -29 -10 -36.5t-1 -13.5
q0 -14 10 -22.5t28 -8.5q50 0 87 71.5t38 149.5q0 100 -66.5 157.5t-181.5 57.5q-148 0 -235.5 -90.5t-87.5 -229.5q0 -132 80 -211.5t214 -79.5q60 0 119 18t112 54z" />
    <glyph glyph-name="A" unicode="A" horiz-adv-x="686" 
d="M485 258h-273l-87 -147q-30 -50 -34.5 -61.5t-3.5 -18.5q0 -11 7 -19t20 -12h-180q20 6 33.5 16t51.5 71l309 490q25 40 32.5 56.5t7.5 29.5q0 14 -9 23.5t-22 13.5h164l101 -568q13 -74 26.5 -98.5t39.5 -33.5h-182q17 7 26 19t9 30q0 5 -1 12t-7 42zM473 325l-49 286
l-170 -286h219z" />
    <glyph glyph-name="B" unicode="B" horiz-adv-x="612" 
d="M151 700h193q114 0 164.5 -34.5t50.5 -111.5q0 -73 -46.5 -124t-117.5 -57v-3q69 -1 116.5 -43t47.5 -107q-1 -58 -31 -107t-79 -77q-36 -21 -76 -28.5t-123 -7.5h-253q28 10 46 39t31 89l95 448q4 21 6.5 36.5t2.5 31.5q0 22 -6.5 34.5t-20.5 21.5zM277 633l-49 -226
q16 -3 31.5 -4t33.5 0q78 0 121 33t43 102q0 47 -34 72.5t-95 26.5q-11 0 -23.5 -1t-27.5 -3zM213 334l-55 -252q21 -11 46.5 -16t62.5 -5q91 0 140 44t50 112q-1 60 -49 89.5t-145 29.5q-9 0 -19.5 -0.5t-30.5 -1.5z" />
    <glyph glyph-name="C" unicode="C" horiz-adv-x="642" 
d="M630 694l-10 -139q-23 43 -61.5 64t-96.5 21q-137 0 -221.5 -95t-83.5 -243q0 -110 59 -173t161 -62q63 0 122.5 21t109.5 66l-49 -130q-51 -21 -101 -30.5t-98 -9.5q-142 0 -224 81.5t-82 222.5q-1 170 114.5 299t311.5 129q42 0 76 -5.5t73 -16.5z" />
    <glyph glyph-name="D" unicode="D" horiz-adv-x="740" 
d="M152 700h228q174 -1 257 -69.5t84 -212.5q0 -110 -53.5 -212t-149.5 -154q-49 -27 -108.5 -39.5t-155.5 -12.5h-257q29 10 46 37.5t31 90.5l96 449q4 22 6.5 36.5t2.5 30.5q-1 22 -7 34.5t-20 21.5zM275 626l-116 -542q31 -10 61.5 -13.5t64.5 -3.5q161 0 247.5 99
t86.5 243q0 105 -65 164.5t-185 59.5q-28 0 -49 -2t-45 -5z" />
    <glyph glyph-name="E" unicode="E" horiz-adv-x="536" 
d="M521 700l-22 -130q-7 32 -33 46t-95 14q-20 0 -46.5 -2t-49.5 -4l-45 -209h120q22 -1 43.5 1.5t34.5 7.5l-29 -136q1 24 -16 37.5t-64 13.5h-105l-56 -256q30 -6 61 -8.5t81 -1.5q92 0 137.5 14t90.5 53l-80 -140h-451q30 11 47 39.5t30 88.5l95 448q4 20 6.5 37t2.5 31
q0 20 -6.5 33t-20.5 23h370z" />
    <glyph glyph-name="F" unicode="F" horiz-adv-x="454" 
d="M520 700l-21 -129q-12 31 -37 45t-94 14q-22 -1 -46.5 -2.5t-46.5 -3.5l-45 -208h126q29 0 41.5 2t29.5 8l-28 -133q-1 23 -19 35t-58 12h-108l-51 -237q-7 -31 -7.5 -39t-0.5 -18q0 -19 7 -29.5t23 -16.5h-188q30 11 47 39.5t30 88.5l95 448q4 23 6.5 38.5t2.5 29.5
q0 20 -6.5 33t-20.5 23h369z" />
    <glyph glyph-name="G" unicode="G" horiz-adv-x="717" 
d="M683 689l-24 -139q-26 44 -68.5 67t-103.5 23q-146 0 -238 -98t-92 -251q0 -106 63 -169t177 -62q26 0 59 3.5t62 11.5l28 130q6 29 8.5 42t2.5 19q0 20 -8 35t-23 25h161q-15 -10 -24 -35t-20 -78l-23 -109q-5 -21 -7 -37.5t-2 -26.5v-12.5t2 -10.5q-57 -17 -115 -25
t-106 -8q-158 0 -247.5 75.5t-89.5 221.5q-1 182 126 308.5t336 126.5q48 0 87.5 -7t78.5 -20z" />
    <glyph glyph-name="H" unicode="H" horiz-adv-x="760" 
d="M586 332h-373l-46 -208q-5 -21 -7 -38t-2 -30q0 -19 6 -32.5t21 -23.5h-188q31 11 48 40.5t29 86.5l95 449q5 27 7 40.5t2 27.5q-1 22 -7 34.5t-20 21.5h190q-30 -11 -47 -36.5t-30 -90.5l-35 -165h373l37 168q4 19 6.5 36t2.5 31q0 20 -6.5 33.5t-20.5 23.5h188
q-30 -11 -47 -38.5t-30 -88.5l-96 -449q-3 -13 -6 -36t-2 -33q0 -20 6.5 -33.5t19.5 -21.5h-189q29 10 45.5 35.5t31.5 91.5z" />
    <glyph glyph-name="I" unicode="I" horiz-adv-x="291" 
d="M185 0h-188q28 10 45 37.5t31 90.5l96 448q4 21 6.5 36.5t2.5 31.5q0 22 -6.5 34.5t-20.5 21.5h189q-31 -11 -47 -38t-29 -89l-97 -449q-5 -22 -7 -38.5t-2 -29.5q0 -19 6 -32.5t21 -23.5z" />
    <glyph glyph-name="J" unicode="J" horiz-adv-x="289" 
d="M150 700h191q-32 -12 -49 -40.5t-29 -87.5l-117 -550q-32 -150 -74 -199t-145 -49q-16 0 -25 1t-19 3q69 26 106.5 80.5t69.5 202.5l110 514q4 21 6.5 38t2.5 31q0 21 -7.5 34.5t-20.5 21.5z" />
    <glyph glyph-name="K" unicode="K" horiz-adv-x="622" 
d="M185 0h-188q28 10 45 37.5t31 90.5l96 448q4 21 6.5 36.5t2.5 31.5q0 22 -6.5 34.5t-20.5 21.5h189q-31 -11 -47 -38t-29 -89l-97 -449q-5 -22 -7 -38.5t-2 -29.5q0 -19 6 -32.5t21 -23.5zM335 382l119 -218q40 -74 75 -112.5t79 -51.5q-21 -4 -34 -6t-34 -2
q-70 0 -97.5 21t-64.5 89l-149 269l277 267q11 10 15 17.5t4 14.5q0 8 -7.5 16.5t-18.5 13.5h182z" />
    <glyph glyph-name="L" unicode="L" horiz-adv-x="516" 
d="M424 0h-427q28 10 45 37.5t31 90.5l96 448q4 21 6.5 36.5t2.5 31.5q0 22 -6.5 34.5t-20.5 21.5h189q-31 -11 -47 -38t-29 -89l-106 -492q35 -5 66.5 -7.5t67.5 -2.5q75 0 118.5 13t91.5 54z" />
    <glyph glyph-name="M" unicode="M" horiz-adv-x="949" 
d="M466 153l258 443q24 42 34 62.5t17 41.5h180q-31 -9 -43.5 -27t-18.5 -98l-36 -474q-4 -45 7 -70.5t32 -30.5h-195q25 6 39.5 28.5t22.5 99.5l45 482l-363 -619l-20 22q-15 16 -26 39.5t-17 56.5l-102 501l-156 -481q-11 -32 -15.5 -52.5t-4.5 -31.5q-1 -14 5.5 -25.5
t18.5 -19.5h-169q26 7 42 27t45 102l153 446q6 18 11.5 40.5t5.5 36.5q0 15 -8 27t-22 21h170q-1 -17 1 -34.5t12 -59.5z" />
    <glyph glyph-name="N" unicode="N" horiz-adv-x="748" 
d="M562 133l88 443q5 26 7 39.5t2 26.5q-1 21 -7 34t-20 24h172q-32 -13 -48.5 -41t-28.5 -87l-110 -517l38 -65q-9 -3 -17 -4.5t-21 -1.5q-45 0 -73.5 18t-61.5 88l-239 489l-90 -455q-5 -25 -7 -41t-2 -28q0 -20 6.5 -33.5t20.5 -21.5h-173q31 12 48 41t29 86l87 411
q10 47 11.5 60.5t1.5 25.5q-1 21 -10.5 40.5t-27.5 35.5h147q6 -25 5.5 -25t35.5 -69z" />
    <glyph glyph-name="O" unicode="O" horiz-adv-x="730" 
d="M435 716q137 -1 203.5 -84.5t66.5 -214.5q0 -181 -104.5 -307t-272.5 -126q-128 0 -200.5 80t-72.5 218q-1 175 104.5 304.5t275.5 129.5zM418 651q-106 0 -183.5 -102t-77.5 -268q0 -109 47.5 -170.5t138.5 -61.5q110 -1 185 103.5t75 268.5q0 115 -52.5 172t-132.5 58z
" />
    <glyph glyph-name="P" unicode="P" horiz-adv-x="555" 
d="M151 700h203q122 -1 179 -38.5t57 -117.5q0 -91 -64.5 -158t-176.5 -67q-43 0 -70 9t-42 30q14 -3 29 -4t27 -1q90 0 142.5 52.5t52.5 121.5q-1 51 -35 81t-112 30q-21 0 -35.5 -1t-28.5 -3l-110 -510q-5 -22 -7 -38.5t-2 -29.5q0 -19 6 -32.5t21 -23.5h-188q28 10 45 38
t31 89l96 449q4 20 6.5 36.5t2.5 31.5q0 20 -6.5 33t-20.5 23z" />
    <glyph glyph-name="Q" unicode="Q" horiz-adv-x="725" 
d="M734 -184q-23 -17 -47.5 -26t-51.5 -9q-54 0 -119 49t-145 155q-8 0 -15 -0.5t-14 -0.5q-144 0 -215.5 80.5t-71.5 216.5q0 179 107 307t270 128q120 0 196.5 -74t76.5 -224q0 -137 -59.5 -244t-169.5 -161q54 -85 122 -138t136 -59zM418 651q-107 0 -184 -102t-77 -268
q0 -109 47.5 -170.5t139.5 -61.5q119 0 188.5 111.5t70.5 260.5q0 104 -48.5 167t-136.5 63z" />
    <glyph glyph-name="R" unicode="R" horiz-adv-x="611" 
d="M151 700h208q112 0 161 -37t49 -110q0 -91 -62 -142t-152 -58l25 -53q64 -137 123.5 -212.5t117.5 -87.5q-26 -4 -47 -6.5t-37 -2.5q-67 0 -110 39.5t-110 184.5l-81 173l38 -2q83 -5 138 38.5t55 112.5q0 47 -31.5 74t-107.5 27q-8 0 -17.5 -0.5t-33.5 -2.5l-110 -511
q-5 -23 -7 -39t-2 -29q0 -19 6 -32.5t21 -23.5h-188q28 10 45 38t31 89l96 449q4 20 6.5 36.5t2.5 31.5q0 20 -6.5 33t-20.5 23z" />
    <glyph glyph-name="S" unicode="S" horiz-adv-x="548" 
d="M527 690l-14 -139q-19 44 -60.5 67t-94.5 23q-60 0 -99 -28.5t-39 -74.5q0 -33 22 -62.5t123 -91.5q77 -49 106.5 -87.5t29.5 -94.5q0 -95 -75 -156.5t-218 -61.5q-49 0 -88.5 8t-78.5 23l-27 144q43 -48 101 -74t122 -26q71 0 116.5 34.5t45.5 95.5q0 40 -27 68t-109 78
q-92 55 -118.5 94.5t-26.5 88.5q0 92 70.5 144.5t181.5 53.5q40 0 77 -6.5t80 -19.5z" />
    <glyph glyph-name="T" unicode="T" horiz-adv-x="550" 
d="M307 633h-115q-65 -1 -86 -8t-43 -23l55 108q11 -5 29 -8t43 -2h388q19 0 41 1.5t42 5.5l-51 -108q-10 18 -23 26t-49 8h-137l-110 -509q-4 -16 -6 -36t-2 -33q0 -24 6.5 -36t20.5 -19h-189q29 10 45.5 35.5t31.5 91.5z" />
    <glyph glyph-name="U" unicode="U" horiz-adv-x="703" 
d="M133 700h188q-30 -11 -46 -38t-29 -89l-64 -294q-8 -36 -11 -59.5t-3 -40.5q0 -56 37.5 -88t100.5 -32q46 0 88.5 18.5t75.5 57.5q19 22 29 46.5t26 97.5l62 294q4 19 6.5 38.5t2.5 32.5q-1 21 -8 34.5t-22 21.5h192q-29 -11 -46 -39t-30 -88l-96 -449q-4 -18 -6.5 -37.5
t-2.5 -30.5q0 -19 6 -32.5t21 -23.5h-148l25 79q-43 -47 -97.5 -71t-115.5 -24q-88 0 -145 44.5t-57 119.5q0 13 1.5 28t13.5 69l70 331q4 18 6.5 37t2.5 32q0 17 -6.5 30.5t-20.5 24.5z" />
    <glyph glyph-name="V" unicode="V" horiz-adv-x="583" 
d="M279 144l276 476q6 10 12.5 26t6.5 23q-1 9 -7 17.5t-15 13.5h139l-430 -722l-21 19q-28 25 -38 50t-19 86l-72 461q-10 63 -20 81t-27 25h185q-21 -6 -32 -20t-11 -35q0 -9 1.5 -26.5t4.5 -32.5z" />
    <glyph glyph-name="W" unicode="W" horiz-adv-x="932" 
d="M250 132l236 471q8 16 11.5 29t3.5 27q0 15 -7 25.5t-19 15.5h137q-5 -13 -6.5 -24.5t-1.5 -25.5q0 -6 0.5 -18t3.5 -32l48 -468l255 494q9 18 13 28t4 18q0 10 -5 17t-12 11h124l-385 -722l-31 22q-24 16 -38 41.5t-22 124.5l-33 368l-281 -556l-37 29q-21 16 -32 36.5
t-21 113.5l-48 437q-7 57 -14.5 76t-23.5 30h169q-22 -9 -32 -23t-9 -36q-1 -7 -0.5 -13t3.5 -28z" />
    <glyph glyph-name="X" unicode="X" horiz-adv-x="638" 
d="M373 439l141 150q31 33 44 52.5t13 31.5q0 5 -4 12.5t-9 14.5h165l-321 -323l93 -230q36 -90 59 -114.5t54 -32.5q-39 -7 -55 -9t-31 -2q-46 0 -69.5 28.5t-62.5 134.5l-64 170l-222 -240q-21 -22 -25.5 -32t-4.5 -19q0 -8 4 -17t13 -14h-168l373 382l-59 153
q-38 96 -54.5 121t-39.5 44h138q4 -17 9 -32.5t11 -31.5z" />
    <glyph glyph-name="Y" unicode="Y" horiz-adv-x="578" 
d="M360 308l-39 -183q-4 -18 -6.5 -38t-2.5 -32q0 -20 6.5 -33.5t20.5 -21.5h-190q30 10 46 37.5t30 90.5l39 180q-48 129 -106.5 234t-112.5 158q16 4 30.5 6t28.5 2q66 0 117.5 -72.5t112.5 -246.5l202 247q8 9 12 17.5t4 17.5q0 7 -5 14.5t-13 14.5h148z" />
    <glyph glyph-name="Z" unicode="Z" horiz-adv-x="618" 
d="M668 700l-526 -614q55 -8 107.5 -11t95.5 -3q87 -1 145.5 14.5t106.5 49.5l-86 -136h-552l528 618q-34 5 -66 7.5t-81 2.5q-76 0 -120 -14t-87 -44l72 130h463z" />
    <glyph glyph-name="bracketleft" unicode="[" horiz-adv-x="352" 
d="M299 646l-159 -736h115l-10 -56h-242q25 11 38.5 32.5t35.5 122.5l120 563q8 40 11 56t3 26q0 14 -6.5 24.5t-23.5 23.5h244l-13 -56h-113z" />
    <glyph glyph-name="backslash" unicode="\" horiz-adv-x="528" 
d="M219 740l193 -785h-72l-193 785h72z" />
    <glyph glyph-name="bracketright" unicode="]" horiz-adv-x="352" 
d="M69 -90l159 736h-115l10 56h242q-26 -10 -40 -35.5t-34 -119.5l-121 -563q-6 -25 -9.5 -49t-3.5 -35q0 -15 7.5 -25.5t22.5 -20.5h-244l13 56h113z" />
    <glyph glyph-name="asciicircum" unicode="^" horiz-adv-x="523" 
d="M297 634l-141 -247h-93l178 315h112l178 -315h-93z" />
    <glyph glyph-name="underscore" unicode="_" horiz-adv-x="520" 
d="M-73 -72h525v-63h-525v63z" />
    <glyph glyph-name="grave" unicode="`" horiz-adv-x="523" 
d="M305 718l146 -167l-226 99z" />
    <glyph glyph-name="a" unicode="a" horiz-adv-x="555" 
d="M335 89l-76 -95q-15 -5 -29.5 -7.5t-29.5 -2.5q-79 0 -124.5 51.5t-45.5 138.5q0 134 90 225.5t226 91.5q11 0 24 -1t25 -2q17 -3 37 -7t28 -3q11 0 30 5.5t38 14.5l-71 -336q-4 -18 -7.5 -40t-3.5 -30q0 -18 10.5 -28.5t31.5 -9.5q12 -1 22.5 1.5t20.5 8.5l-66 -70
q-10 -1 -20 -2.5t-16 -1.5q-35 0 -56 19t-21 55q0 7 1 14.5t7 36.5l61 287q-20 12 -42.5 18.5t-49.5 7.5q-93 0 -149 -69t-56 -171q0 -66 27 -98t74 -31q24 -1 53 7t57 23z" />
    <glyph glyph-name="b" unicode="b" horiz-adv-x="553" 
d="M215 389l76 93q15 4 31 6.5t31 2.5q75 0 121.5 -52.5t46.5 -135.5q0 -125 -84 -222t-244 -97q-48 0 -95.5 8t-98.5 26q18 7 28.5 26t26.5 93l99 467q3 18 5.5 30t2.5 19q0 12 -9 24.5t-25 22.5h40q34 0 56 5.5t44 18.5l-139 -653q22 -13 45 -18.5t49 -5.5q91 0 148 69.5
t57 177.5q0 57 -26.5 89.5t-73.5 32.5q-24 0 -54 -7.5t-58 -19.5z" />
    <glyph glyph-name="c" unicode="c" horiz-adv-x="452" 
d="M414 119l-43 -107q-32 -15 -64.5 -21.5t-72.5 -6.5q-107 0 -157.5 50.5t-50.5 134.5q0 134 90 228t214 94q57 0 89.5 -25t33.5 -61q0 -30 -21 -48t-54 -18q-11 -1 -21 1.5t-20 8.5q9 6 14 15.5t6 20.5q0 17 -15 30t-41 13q-77 0 -129 -71.5t-52 -163.5q0 -60 31.5 -97
t94.5 -37q44 -1 88.5 16t79.5 44z" />
    <glyph glyph-name="d" unicode="d" horiz-adv-x="564" 
d="M337 89l-75 -95q-15 -5 -29.5 -7.5t-29.5 -2.5q-80 0 -126.5 52.5t-45.5 139.5q0 122 84.5 218.5t223.5 96.5q27 -1 51 -5.5t48 -12.5l32 157q1 7 2 12.5t1 10.5q0 13 -9.5 25.5t-24.5 21.5h40q36 0 58.5 5.5t43.5 18.5l-121 -564q-8 -38 -9.5 -48.5t-1.5 -18.5
q0 -20 11 -29.5t32 -9.5q10 0 20.5 2t20.5 6l-66 -69q-10 -1 -18.5 -2t-15.5 -1q-38 0 -58.5 17t-20.5 52q0 8 1 16.5t7 37.5l59 282q-22 17 -44.5 25t-48.5 8q-80 0 -141.5 -64.5t-61.5 -172.5q0 -61 26.5 -97t74.5 -35q26 0 55 7.5t56 22.5z" />
    <glyph glyph-name="e" unicode="e" horiz-adv-x="464" 
d="M412 128l-29 -99q-47 -23 -92 -34t-90 -11q-87 0 -128.5 42t-41.5 121q0 129 83 236.5t219 107.5q63 0 97 -27.5t34 -69.5q-1 -49 -34 -88.5t-93 -67.5q-50 -24 -106.5 -38t-109.5 -18q-1 -4 -1 -8v-7q0 -54 31 -83.5t85 -29.5q51 0 96 19t80 55zM127 234q93 10 167 48
t74 88q0 25 -19.5 39t-46.5 15q-59 0 -110.5 -56t-64.5 -134z" />
    <glyph glyph-name="f" unicode="f" horiz-adv-x="347" 
d="M228 476h137q13 0 25 2.5t19 7.5l-19 -106q-11 16 -22.5 22.5t-32.5 6.5h-119l-50 -267q-38 -202 -88 -280.5t-134 -79.5q-17 1 -33 4t-33 9l51 62q8 -4 16 -7t15 -3q37 0 59.5 43.5t61.5 256.5l47 262h-55l67 67l12 52q23 99 80.5 139.5t145.5 40.5q28 0 51.5 -3
t46.5 -9l-62 -80q-14 14 -30.5 20.5t-35.5 6.5q-47 0 -72.5 -26.5t-38.5 -94.5z" />
    <glyph glyph-name="g" unicode="g" horiz-adv-x="533" 
d="M342 109l-78 -94q-16 -4 -32.5 -6t-29.5 -2q-77 0 -122.5 51t-45.5 132q-1 131 92.5 216t226.5 85q14 0 28.5 -1.5t36.5 -5.5q19 -3 28.5 -4t18.5 -1q12 0 24.5 3t40.5 17l-101 -462q-31 -140 -91.5 -201.5t-176.5 -61.5q-77 0 -123 28.5t-46 71.5q0 29 20.5 47t51.5 18
q10 1 21.5 -2.5t23.5 -9.5q-11 -4 -17 -13.5t-6 -21.5q0 -20 24 -36.5t65 -16.5q66 0 106 46.5t70 188.5l68 326q-20 13 -43 19.5t-48 6.5q-88 0 -144 -65t-56 -155q0 -55 26 -90t77 -34q21 0 51.5 7t59.5 20z" />
    <glyph glyph-name="h" unicode="h" horiz-adv-x="576" 
d="M270 724l-69 -322q36 43 82.5 66t105.5 23q64 0 98 -25.5t34 -76.5q0 -11 -1.5 -20t-11.5 -57l-31 -140q-8 -34 -10.5 -50t-1.5 -26q0 -21 10 -31.5t32 -10.5q10 0 21 2t22 8l-65 -71q-8 -1 -16 -1.5t-19 -1.5q-38 0 -58.5 18t-20.5 55q-1 10 1.5 27.5t6.5 32.5l39 181
q4 21 6 35t3 22q0 30 -18.5 47.5t-54.5 17.5q-69 0 -118 -46.5t-64 -117.5l-36 -163q-4 -17 -6 -31t-2 -21q0 -14 6 -25.5t20 -21.5h-166q22 12 35.5 31.5t24.5 67.5l114 535q5 23 -3 38t-29 28h40q34 0 56 5.5t44 18.5z" />
    <glyph glyph-name="i" unicode="i" horiz-adv-x="248" 
d="M219 59l-66 -72q-7 -1 -13 -2t-17 -1q-43 0 -63.5 17.5t-20.5 57.5q0 9 1 19.5t8 41.5l61 287q2 12 3 17t1 9q0 14 -10 25.5t-24 16.5h47q26 -1 46.5 5.5t44.5 19.5l-70 -332q-8 -35 -10 -51t-2 -27q0 -21 10 -31.5t31 -10.5q12 -1 22.5 2t20.5 9zM211 689
q20 0 33.5 -14.5t14.5 -41.5q0 -41 -19.5 -63.5t-45.5 -22.5q-24 0 -37 14.5t-12 41.5q-1 38 19 62t47 24z" />
    <glyph glyph-name="j" unicode="j" horiz-adv-x="239" 
d="M221 500l-108 -505q-24 -111 -62 -153t-113 -42q-8 0 -19 1.5t-24 3.5q51 15 81.5 58t54.5 155l77 364q3 15 5 30t3 21q-1 15 -9.5 26t-23.5 16h48q24 0 46 6t44 19zM214 690q20 0 34 -14.5t14 -41.5q0 -41 -19.5 -63.5t-45.5 -22.5q-24 0 -36.5 14.5t-12.5 41.5
q0 38 19.5 62t46.5 24z" />
    <glyph glyph-name="k" unicode="k" horiz-adv-x="512" 
d="M154 0h-166q23 13 36.5 30.5t24.5 68.5l106 495q3 14 6 32t3 25q0 15 -8.5 26.5t-25.5 22.5h41q33 -1 55 5t44 19l-68 -321q34 44 74 65.5t90 22.5q56 0 87 -28.5t31 -80.5q0 -65 -46 -107t-132 -59l46 -76q38 -64 69 -98.5t60 -41.5q-29 -6 -46 -8.5t-38 -2.5
q-38 1 -54 14t-60 84l-102 161h10q107 0 153 28t46 82q-1 30 -18.5 48t-45.5 18q-58 0 -100.5 -51.5t-64.5 -156.5l-25 -117q-4 -15 -6 -31t-2 -22q0 -13 6 -24.5t20 -21.5z" />
    <glyph glyph-name="l" unicode="l" horiz-adv-x="248" 
d="M265 724l-118 -556q-8 -34 -10 -51t-2 -27q0 -20 10 -31t31 -10q9 0 20.5 2t22.5 8l-66 -72q-7 -1 -13 -2t-17 -1q-43 0 -63.5 17.5t-20.5 57.5q0 9 1 20t8 41l102 474q3 14 6 32t3 25q0 15 -8.5 26.5t-25.5 22.5h41q33 0 55 5.5t44 18.5z" />
    <glyph glyph-name="m" unicode="m" horiz-adv-x="886" 
d="M155 0h-165q24 13 37 33t23 66l62 292q4 23 5 27t1 9q0 17 -8.5 29.5t-24.5 18.5h50q25 0 45.5 5.5t42.5 17.5l-22 -96q36 42 84.5 65.5t105.5 23.5q59 0 89 -26t32 -71q37 50 86 73t104 24q62 -1 94 -27.5t32 -72.5q-1 -11 -5 -35t-11 -61l-26 -123q-5 -19 -8 -42.5
t-3 -34.5q0 -19 9.5 -30t30.5 -11q10 0 21 2.5t21 7.5l-65 -71q-8 -1 -17 -2t-17 -1q-37 0 -57.5 18.5t-20.5 53.5q-1 11 0.5 23t7.5 38l41 191q7 33 7 37t1 9q0 30 -19.5 47t-51.5 17q-33 0 -67 -17t-58 -42q-21 -22 -34.5 -51.5t-30.5 -109.5l-23 -105q-7 -30 -7.5 -37
t-0.5 -14q0 -15 6 -26.5t20 -21.5h-165q22 10 36 30t25 69l44 206q4 20 6.5 35.5t2.5 26.5q0 25 -21 40.5t-52 16.5q-33 0 -66.5 -17t-58.5 -45q-19 -21 -32 -50t-30 -108l-23 -105q-3 -11 -5.5 -29t-2.5 -24q0 -13 6.5 -25t19.5 -21z" />
    <glyph glyph-name="n" unicode="n" horiz-adv-x="574" 
d="M153 0h-165q21 11 35 30t25 69l63 292q4 22 5 26.5t1 9.5q-1 17 -9 29.5t-24 18.5h50q25 0 45.5 5.5t42.5 17.5l-22 -96q37 43 84 66t106 23q62 -1 94.5 -26.5t32.5 -68.5q0 -13 -3.5 -35.5t-6.5 -38.5l-33 -150q-4 -18 -7.5 -42t-3.5 -35q0 -19 9.5 -30t30.5 -11
q10 0 21 2.5t21 7.5l-65 -71q-8 -1 -17 -2t-17 -1q-37 0 -57.5 18.5t-20.5 53.5q0 11 1 23t7 38l41 190q6 31 7 36t1 9q0 33 -20.5 49.5t-57.5 16.5q-40 0 -73 -17.5t-57 -48.5q-21 -27 -34.5 -62t-27.5 -103l-20 -94q-3 -12 -5.5 -30t-2.5 -23q0 -13 6.5 -25t19.5 -21z" />
    <glyph glyph-name="o" unicode="o" horiz-adv-x="534" 
d="M316 491q84 0 134.5 -50t51.5 -136q0 -123 -75.5 -222t-201.5 -99q-92 0 -143 50.5t-51 141.5q0 136 83 225.5t202 89.5zM293 428q-72 0 -120 -72.5t-48 -168.5q-1 -70 31.5 -105t84.5 -35q67 0 117 66t50 177q-1 70 -32.5 103.5t-82.5 34.5z" />
    <glyph glyph-name="p" unicode="p" horiz-adv-x="560" 
d="M168 -1l-22 94q19 -21 45.5 -32t58.5 -10q82 0 133 64.5t51 160.5q-1 70 -30.5 107.5t-82.5 37.5q-52 0 -93 -37.5t-57 -114.5l-85 -386q-5 -18 -6.5 -31t-1.5 -22q0 -13 6.5 -24.5t19.5 -22.5h-165q25 16 38 35.5t22 64.5l109 508q4 22 4.5 26.5t1.5 9.5q0 17 -8.5 29.5
t-24.5 18.5h50q25 0 45.5 5.5t42.5 17.5l-23 -95h3q25 42 65 65t95 23q86 0 127 -53t42 -146q0 -134 -77 -221t-201 -87q-24 0 -44 4t-38 11z" />
    <glyph glyph-name="q" unicode="q" horiz-adv-x="545" 
d="M529 496l-132 -614q-4 -18 -6.5 -31t-1.5 -21q0 -13 6.5 -24.5t19.5 -22.5h-165q23 15 36 33t24 66l110 516q-23 14 -45.5 21t-49.5 7q-89 0 -145.5 -67.5t-56.5 -165.5q0 -63 28.5 -98.5t84.5 -35.5q20 -1 47 6.5t57 22.5l-80 -97q-18 -4 -28 -5.5t-18 -1.5
q-82 0 -134 50.5t-51 145.5q0 134 90.5 222.5t228.5 88.5q14 -1 24 -2t33 -5q19 -5 31.5 -6.5t22.5 -1.5q13 -1 32 4.5t38 15.5z" />
    <glyph glyph-name="r" unicode="r" horiz-adv-x="350" 
d="M154 0h-166q24 13 37 33t23 66l62 292q4 23 5 27t1 9q0 17 -8.5 29.5t-24.5 18.5h50q25 0 45.5 5.5t42.5 17.5l-27 -116h3q40 60 81 83t95 23h17l-29 -115q-8 11 -19.5 16.5t-28.5 5.5q-48 0 -90.5 -47.5t-57.5 -116.5l-29 -132q-3 -11 -5.5 -29t-2.5 -24q0 -13 6.5 -25
t19.5 -21z" />
    <glyph glyph-name="s" unicode="s" horiz-adv-x="442" 
d="M407 466l-19 -101q-21 30 -49.5 44.5t-69.5 14.5q-46 -1 -70.5 -19.5t-24.5 -47.5q0 -21 14 -37.5t81 -42.5q69 -28 93.5 -59.5t25.5 -73.5q0 -68 -56.5 -114t-158.5 -46q-38 0 -78.5 8t-82.5 22l-15 110q31 -29 84.5 -51t95.5 -22q56 0 86.5 24t30.5 59q0 21 -15 36
t-87 47q-67 28 -91 56t-24 71q0 63 54 105t149 42q40 0 70.5 -6.5t56.5 -18.5z" />
    <glyph glyph-name="t" unicode="t" horiz-adv-x="325" 
d="M127 409h-79l11 49h10q65 0 100 49t50 149h48l-39 -181h98q13 -1 23 1.5t20 8.5l-25 -120q-6 23 -20 33t-49 11h-61l-46 -216q-9 -39 -12 -58.5t-3 -29.5q0 -29 17.5 -42.5t55.5 -13.5q15 0 27.5 2t26.5 7l-41 -68q-11 -3 -22 -4.5t-26 -1.5q-64 0 -96.5 24t-32.5 73
q0 12 1.5 26t9.5 49z" />
    <glyph glyph-name="u" unicode="u" horiz-adv-x="567" 
d="M537 64l-66 -71q-8 -1 -16.5 -2t-15.5 -1q-37 0 -60.5 20.5t-21.5 50.5l1 19q-36 -47 -84.5 -71.5t-104.5 -24.5q-60 0 -90.5 27.5t-30.5 75.5q0 14 3 37t11 56l46 211q4 21 5 26t1 10q0 17 -8.5 29.5t-24.5 18.5h50q25 0 45.5 5.5t42.5 17.5l-69 -315q-6 -24 -8 -39.5
t-2 -24.5q0 -31 19 -48.5t59 -17.5q60 0 107 47t66 132l35 159q4 21 5 26t1 10q0 17 -8.5 29.5t-24.5 18.5h50q25 0 45.5 5.5t42.5 17.5l-72 -333q-6 -27 -8.5 -42.5t-2.5 -24.5q0 -22 10.5 -33t28.5 -11q11 0 22.5 2.5t21.5 7.5z" />
    <glyph glyph-name="v" unicode="v" horiz-adv-x="518" 
d="M222 498l-68 -320q-3 -13 -6 -36t-3 -32q0 -24 11.5 -37.5t35.5 -13.5q71 0 147.5 87t77.5 185q0 36 -17.5 56.5t-52.5 21.5q-17 0 -29 -5t-22 -15l-1 19q-2 37 25.5 59.5t71.5 23.5q47 0 79 -30t32 -89q0 -75 -38 -154.5t-98 -139.5q-50 -49 -98.5 -71.5t-100.5 -22.5
q-59 0 -88 27t-29 78q-1 7 0 15.5t16 76.5l44 210q5 24 5.5 28t0.5 8q0 17 -8.5 29.5t-24.5 18.5h50q25 0 45.5 5.5t42.5 17.5z" />
    <glyph glyph-name="w" unicode="w" horiz-adv-x="826" 
d="M222 498l-69 -325q-3 -13 -5.5 -32.5t-2.5 -27.5q-1 -23 17 -38.5t50 -15.5q27 0 59.5 13.5t55.5 38.5q19 21 34 54.5t24 75.5l32 150q4 22 4.5 26.5t1.5 9.5q0 17 -8.5 29.5t-24.5 18.5h50q25 0 45.5 5.5t42.5 17.5l-68 -311q-5 -21 -8 -43t-3 -34q0 -25 11.5 -38
t36.5 -13q73 -1 150.5 85t77.5 187q0 39 -18.5 58.5t-50.5 19.5q-18 0 -30.5 -5.5t-21.5 -14.5q-7 44 19.5 72t75.5 28q52 -1 81.5 -32.5t30.5 -84.5q0 -75 -38.5 -155.5t-98.5 -139.5q-50 -49 -98.5 -71t-104.5 -22q-59 0 -89 25.5t-30 73.5q-38 -50 -84.5 -74.5
t-96.5 -24.5q-54 0 -87.5 25t-32.5 73q-1 15 3 38.5t12 60.5l45 210q4 22 5 26.5t1 9.5q0 17 -8.5 29.5t-24.5 18.5h50q25 0 45.5 5.5t42.5 17.5z" />
    <glyph glyph-name="x" unicode="x" horiz-adv-x="520" 
d="M279 302l37 50q54 73 89.5 101t70.5 28q15 0 25.5 -4.5t22.5 -14.5l3 -81q-10 5 -20.5 8t-26.5 3q-24 0 -45 -12.5t-45 -40.5l-82 -94l75 -135q41 -76 57 -91t37 -23q-22 -6 -39 -9t-41 -3q-32 0 -47.5 14.5t-34.5 54.5l-68 134l-53 -64q-87 -105 -110.5 -119t-47.5 -14
q-17 0 -29 5t-22 16l-4 81q13 -6 24.5 -9t22.5 -3q26 0 54 20t84 88l48 58l-60 116q-38 71 -53.5 87.5t-38.5 25.5h133z" />
    <glyph glyph-name="y" unicode="y" horiz-adv-x="552" 
d="M217 498l-70 -321q-6 -24 -6.5 -30.5t-0.5 -11.5q0 -27 20 -43.5t56 -16.5q31 0 66 16.5t58 41.5q17 19 31.5 52.5t22.5 68.5l28 137q5 25 5.5 28.5t0.5 7.5q-1 17 -9 29.5t-24 18.5h50q25 0 45.5 5.5t42.5 17.5l-97 -451q-18 -83 -34.5 -121.5t-41.5 -69.5
q-35 -41 -81 -61.5t-106 -20.5q-79 0 -125 28.5t-46 70.5q0 30 17.5 48.5t48.5 17.5q14 0 26 -2.5t22 -8.5q-10 -4 -16 -12t-6 -20q0 -23 24 -40t65 -17q61 0 100 43.5t62 147.5l13 60q-42 -45 -91.5 -67.5t-97.5 -22.5q-58 0 -89.5 27t-31.5 67q-1 13 3.5 38.5t15.5 75.5
l39 183q4 22 4.5 26.5t1.5 9.5q0 17 -8.5 29.5t-24.5 18.5h50q25 0 45.5 5.5t42.5 17.5z" />
    <glyph glyph-name="z" unicode="z" horiz-adv-x="496" 
d="M513 475l-377 -397q8 0 17.5 0.5t15.5 1.5q2 -1 4.5 -1t40.5 -3q29 -4 52.5 -5t40.5 -1q42 0 79 9t70 30l-65 -111q-25 -3 -43 -5t-36 -2t-41 1.5t-61 5.5q-29 2 -37.5 3t-15.5 2q-15 1 -29.5 1.5t-28.5 0.5q-37 0 -68 -2.5t-63 -7.5l380 404h-95q-69 0 -101.5 -10.5
t-66.5 -37.5l67 124h361z" />
    <glyph glyph-name="braceleft" unicode="{" horiz-adv-x="352" 
d="M402 702l-11 -54h-23q-43 -1 -57.5 -19.5t-29.5 -91.5l-29 -136q-16 -74 -32.5 -95.5t-51.5 -30.5q19 -9 30 -22.5t11 -34.5q0 -11 -3 -28.5t-8 -43.5l-34 -161q-7 -31 -7.5 -36.5t-0.5 -10.5q0 -16 12 -23t42 -7h22l-11 -54h-73q-43 0 -63 11t-20 37q0 8 1 17t8 39
l47 221q2 12 4 23t2 17q0 21 -15.5 30t-42.5 8l10 47q39 -3 57.5 14t32.5 83l45 213q14 69 39 78.5t86 9.5h63z" />
    <glyph glyph-name="bar" unicode="|" horiz-adv-x="506" 
d="M212 716h90v-891h-90v891z" />
    <glyph glyph-name="braceright" unicode="}" horiz-adv-x="364" 
d="M-35 -146l12 54h22q38 1 54 17.5t33 93.5l29 136q16 78 34 98t50 27q-22 10 -32 25t-10 40v7.5t12 56.5l35 161q7 33 7.5 36.5t0.5 7.5q0 18 -12.5 25t-41.5 8h-23l12 55h72q44 0 63.5 -12.5t19.5 -39.5q-1 -8 -3 -23t-5 -30l-46 -212q-6 -26 -6.5 -32t-0.5 -11
q0 -25 12.5 -35t40.5 -9h4l-10 -46q-40 2 -58.5 -15t-31.5 -82l-45 -213q-14 -66 -33 -77t-92 -11h-63z" />
    <glyph glyph-name="asciitilde" unicode="~" horiz-adv-x="639" 
d="M198 532l-53 42q20 53 59.5 87.5t85.5 35.5q17 -1 34.5 -4.5t84.5 -34.5q44 -21 63 -27.5t35 -5.5q25 0 50 20t40 56l52 -43q-21 -55 -61 -90t-83 -35q-16 0 -30.5 3t-87.5 38q-48 22 -66 27.5t-35 5.5q-24 0 -47.5 -20t-40.5 -55z" />
    <glyph glyph-name="afii10017" unicode="&#xc0;" horiz-adv-x="686" 
d="M485 258h-273l-87 -147q-30 -50 -34.5 -61.5t-3.5 -18.5q0 -11 7 -19t20 -12h-180q20 6 33.5 16t51.5 71l309 490q25 40 32.5 56.5t7.5 29.5q0 14 -9 23.5t-22 13.5h164l101 -568q13 -74 26.5 -98.5t39.5 -33.5h-182q17 7 26 19t9 30q0 5 -1 12t-7 42zM473 325l-49 286
l-170 -286h219z" />
    <glyph glyph-name="afii10017" unicode="&#x410;" horiz-adv-x="686" 
d="M485 258h-273l-87 -147q-30 -50 -34.5 -61.5t-3.5 -18.5q0 -11 7 -19t20 -12h-180q20 6 33.5 16t51.5 71l309 490q25 40 32.5 56.5t7.5 29.5q0 14 -9 23.5t-22 13.5h164l101 -568q13 -74 26.5 -98.5t39.5 -33.5h-182q17 7 26 19t9 30q0 5 -1 12t-7 42zM473 325l-49 286
l-170 -286h219z" />
    <glyph glyph-name="afii10018" unicode="&#xc1;" horiz-adv-x="596" 
d="M561 700l-16 -129q-24 33 -52.5 45.5t-114.5 12.5q-25 0 -49 -1.5t-54 -3.5l-46 -214q30 10 60 14.5t61 5.5q102 0 154.5 -48.5t52.5 -136.5q0 -114 -74.5 -179.5t-221.5 -65.5h-264q28 10 46 39t31 89l95 448q4 23 6.5 38.5t2.5 29.5q0 20 -6.5 33t-20.5 23h410z
M216 348l-58 -266q21 -11 45.5 -16t58.5 -5q87 -1 139.5 47t53.5 124q0 60 -38 95.5t-112 35.5q-21 0 -43 -4t-46 -11z" />
    <glyph glyph-name="afii10018" unicode="&#x411;" horiz-adv-x="596" 
d="M561 700l-16 -129q-24 33 -52.5 45.5t-114.5 12.5q-25 0 -49 -1.5t-54 -3.5l-46 -214q30 10 60 14.5t61 5.5q102 0 154.5 -48.5t52.5 -136.5q0 -114 -74.5 -179.5t-221.5 -65.5h-264q28 10 46 39t31 89l95 448q4 23 6.5 38.5t2.5 29.5q0 20 -6.5 33t-20.5 23h410z
M216 348l-58 -266q21 -11 45.5 -16t58.5 -5q87 -1 139.5 47t53.5 124q0 60 -38 95.5t-112 35.5q-21 0 -43 -4t-46 -11z" />
    <glyph glyph-name="afii10019" unicode="&#xc2;" horiz-adv-x="612" 
d="M151 700h193q114 0 164.5 -34.5t50.5 -111.5q0 -73 -46.5 -124t-117.5 -57v-3q69 -1 116.5 -43t47.5 -107q-1 -58 -31 -107t-79 -77q-36 -21 -76 -28.5t-123 -7.5h-253q28 10 46 39t31 89l95 448q4 21 6.5 36.5t2.5 31.5q0 22 -6.5 34.5t-20.5 21.5zM277 633l-49 -226
q16 -3 31.5 -4t33.5 0q78 0 121 33t43 102q0 47 -34 72.5t-95 26.5q-11 0 -23.5 -1t-27.5 -3zM213 334l-55 -252q21 -11 46.5 -16t62.5 -5q91 0 140 44t50 112q-1 60 -49 89.5t-145 29.5q-9 0 -19.5 -0.5t-30.5 -1.5z" />
    <glyph glyph-name="afii10019" unicode="&#x412;" horiz-adv-x="612" 
d="M151 700h193q114 0 164.5 -34.5t50.5 -111.5q0 -73 -46.5 -124t-117.5 -57v-3q69 -1 116.5 -43t47.5 -107q-1 -58 -31 -107t-79 -77q-36 -21 -76 -28.5t-123 -7.5h-253q28 10 46 39t31 89l95 448q4 21 6.5 36.5t2.5 31.5q0 22 -6.5 34.5t-20.5 21.5zM277 633l-49 -226
q16 -3 31.5 -4t33.5 0q78 0 121 33t43 102q0 47 -34 72.5t-95 26.5q-11 0 -23.5 -1t-27.5 -3zM213 334l-55 -252q21 -11 46.5 -16t62.5 -5q91 0 140 44t50 112q-1 60 -49 89.5t-145 29.5q-9 0 -19.5 -0.5t-30.5 -1.5z" />
    <glyph glyph-name="afii10020" unicode="&#xc3;" horiz-adv-x="454" 
d="M530 700l-21 -129q-11 31 -37 44t-94 14q-24 0 -52 -1.5t-51 -3.5l-112 -521q-7 -31 -7.5 -39t-0.5 -18q0 -19 7 -29.5t23 -16.5h-188q30 11 47 39.5t30 88.5l95 448q4 23 6.5 38.5t2.5 29.5q0 20 -6.5 33t-20.5 23h379z" />
    <glyph glyph-name="afii10020" unicode="&#x413;" horiz-adv-x="454" 
d="M530 700l-21 -129q-11 31 -37 44t-94 14q-24 0 -52 -1.5t-51 -3.5l-112 -521q-7 -31 -7.5 -39t-0.5 -18q0 -19 7 -29.5t23 -16.5h-188q30 11 47 39.5t30 88.5l95 448q4 23 6.5 38.5t2.5 29.5q0 20 -6.5 33t-20.5 23h379z" />
    <glyph glyph-name="afii10021" unicode="&#xc4;" horiz-adv-x="651" 
d="M194 700h507q-31 -11 -47 -38t-29 -89l-106 -497h96l-49 -226l-65 -33q3 27 5 52t2 43q-1 45 -17 66.5t-55 21.5h-362q-50 0 -84.5 -47t-55.5 -136l-54 33l50 226h76q101 130 165.5 286.5t64.5 252.5q-1 30 -11 50.5t-31 34.5zM539 624h-215q-32 -160 -87.5 -293.5
t-136.5 -254.5h324z" />
    <glyph glyph-name="afii10021" unicode="&#x414;" horiz-adv-x="651" 
d="M194 700h507q-31 -11 -47 -38t-29 -89l-106 -497h96l-49 -226l-65 -33q3 27 5 52t2 43q-1 45 -17 66.5t-55 21.5h-362q-50 0 -84.5 -47t-55.5 -136l-54 33l50 226h76q101 130 165.5 286.5t64.5 252.5q-1 30 -11 50.5t-31 34.5zM539 624h-215q-32 -160 -87.5 -293.5
t-136.5 -254.5h324z" />
    <glyph glyph-name="afii10022" unicode="&#xc5;" horiz-adv-x="536" 
d="M521 700l-22 -130q-7 32 -33 46t-95 14q-20 0 -46.5 -2t-49.5 -4l-45 -209h120q22 -1 43.5 1.5t34.5 7.5l-29 -136q1 24 -16 37.5t-64 13.5h-105l-56 -256q30 -6 61 -8.5t81 -1.5q92 0 137.5 14t90.5 53l-80 -140h-451q30 11 47 39.5t30 88.5l95 448q4 20 6.5 37t2.5 31
q0 20 -6.5 33t-20.5 23h370z" />
    <glyph glyph-name="afii10022" unicode="&#x415;" horiz-adv-x="536" 
d="M521 700l-22 -130q-7 32 -33 46t-95 14q-20 0 -46.5 -2t-49.5 -4l-45 -209h120q22 -1 43.5 1.5t34.5 7.5l-29 -136q1 24 -16 37.5t-64 13.5h-105l-56 -256q30 -6 61 -8.5t81 -1.5q92 0 137.5 14t90.5 53l-80 -140h-451q30 11 47 39.5t30 88.5l95 448q4 20 6.5 37t2.5 31
q0 20 -6.5 33t-20.5 23h370z" />
    <glyph glyph-name="afii10024" unicode="&#xc6;" horiz-adv-x="966" 
d="M534 0h-188q28 10 45 37.5t31 90.5l96 448q4 21 6.5 36.5t2.5 31.5q-1 22 -7 34.5t-20 21.5h189q-31 -11 -47 -38t-29 -89l-97 -449q-5 -22 -7 -38.5t-2 -29.5q0 -19 6 -32.5t21 -23.5zM363 390l-168 246q-15 21 -31 37t-31 27h185q-16 -7 -24.5 -17.5t-8.5 -21.5
q0 -5 1.5 -10t7.5 -14l164 -267l-240 -268q-55 -62 -100.5 -86t-110.5 -24q-19 0 -37 2t-35 6q50 14 99 52t118 112zM684 382l119 -218q40 -74 75 -112.5t79 -51.5q-21 -4 -34 -6t-34 -2q-70 0 -97.5 21t-64.5 89l-149 269l277 267q11 10 14.5 17.5t4.5 14.5q0 8 -7.5 16.5
t-18.5 13.5h182z" />
    <glyph glyph-name="afii10024" unicode="&#x416;" horiz-adv-x="966" 
d="M534 0h-188q28 10 45 37.5t31 90.5l96 448q4 21 6.5 36.5t2.5 31.5q-1 22 -7 34.5t-20 21.5h189q-31 -11 -47 -38t-29 -89l-97 -449q-5 -22 -7 -38.5t-2 -29.5q0 -19 6 -32.5t21 -23.5zM363 390l-168 246q-15 21 -31 37t-31 27h185q-16 -7 -24.5 -17.5t-8.5 -21.5
q0 -5 1.5 -10t7.5 -14l164 -267l-240 -268q-55 -62 -100.5 -86t-110.5 -24q-19 0 -37 2t-35 6q50 14 99 52t118 112zM684 382l119 -218q40 -74 75 -112.5t79 -51.5q-21 -4 -34 -6t-34 -2q-70 0 -97.5 21t-64.5 89l-149 269l277 267q11 10 14.5 17.5t4.5 14.5q0 8 -7.5 16.5
t-18.5 13.5h182z" />
    <glyph glyph-name="afii10025" unicode="&#xc7;" horiz-adv-x="562" 
d="M155 333l22 87q16 -3 37 -4t40 -1q83 0 127 32.5t44 86.5q0 50 -32.5 78t-90.5 28q-50 0 -92 -16t-75 -49l36 120q39 9 80 15t80 6q98 0 147 -43.5t49 -119.5q0 -77 -50.5 -125.5t-124.5 -49.5v-4q62 -11 100.5 -52t38.5 -103q0 -105 -81 -170t-225 -65
q-96 0 -151.5 35.5t-55.5 93.5q0 33 20.5 56.5t51.5 23.5q13 0 28 -5t28 -11q-14 -6 -22 -17.5t-8 -25.5q0 -31 31.5 -53t88.5 -21q92 -1 142.5 39.5t50.5 112.5q0 63 -42.5 96.5t-132.5 33.5q-25 0 -37 -2t-22 -7z" />
    <glyph glyph-name="afii10025" unicode="&#x417;" horiz-adv-x="562" 
d="M155 333l22 87q16 -3 37 -4t40 -1q83 0 127 32.5t44 86.5q0 50 -32.5 78t-90.5 28q-50 0 -92 -16t-75 -49l36 120q39 9 80 15t80 6q98 0 147 -43.5t49 -119.5q0 -77 -50.5 -125.5t-124.5 -49.5v-4q62 -11 100.5 -52t38.5 -103q0 -105 -81 -170t-225 -65
q-96 0 -151.5 35.5t-55.5 93.5q0 33 20.5 56.5t51.5 23.5q13 0 28 -5t28 -11q-14 -6 -22 -17.5t-8 -25.5q0 -31 31.5 -53t88.5 -21q92 -1 142.5 39.5t50.5 112.5q0 63 -42.5 96.5t-132.5 33.5q-25 0 -37 -2t-22 -7z" />
    <glyph glyph-name="afii10026" unicode="&#xc8;" horiz-adv-x="761" 
d="M169 131l456 530q15 18 23.5 25t20.5 14h141q-30 -11 -47 -38.5t-30 -88.5l-96 -449q-3 -13 -5.5 -36t-2.5 -33q0 -20 6.5 -33.5t19.5 -21.5h-189q30 10 46.5 37.5t30.5 89.5l94 442l-457 -530q-16 -18 -24.5 -25.5t-18.5 -13.5h-140q31 11 48 40.5t29 86.5l95 449
q5 27 7 40.5t2 27.5q-1 22 -7 34.5t-20 21.5h190q-30 -11 -47 -39t-30 -88z" />
    <glyph glyph-name="afii10026" unicode="&#x418;" horiz-adv-x="761" 
d="M169 131l456 530q15 18 23.5 25t20.5 14h141q-30 -11 -47 -38.5t-30 -88.5l-96 -449q-3 -13 -5.5 -36t-2.5 -33q0 -20 6.5 -33.5t19.5 -21.5h-189q30 10 46.5 37.5t30.5 89.5l94 442l-457 -530q-16 -18 -24.5 -25.5t-18.5 -13.5h-140q31 11 48 40.5t29 86.5l95 449
q5 27 7 40.5t2 27.5q-1 22 -7 34.5t-20 21.5h190q-30 -11 -47 -39t-30 -88z" />
    <glyph glyph-name="afii10027" unicode="&#xc9;" horiz-adv-x="761" 
d="M169 131l456 530q15 18 23.5 25t20.5 14h141q-30 -11 -47 -38.5t-30 -88.5l-96 -449q-3 -13 -5.5 -36t-2.5 -33q0 -20 6.5 -33.5t19.5 -21.5h-189q30 10 46.5 37.5t30.5 89.5l94 442l-457 -530q-16 -18 -24.5 -25.5t-18.5 -13.5h-140q31 11 48 40.5t29 86.5l95 449
q5 27 7 40.5t2 27.5q-1 22 -7 34.5t-20 21.5h190q-30 -11 -47 -39t-30 -88zM690 931l-32 -129q-42 -23 -86.5 -33.5t-91.5 -10.5q-68 0 -113 26.5t-45 74.5q0 31 19.5 51.5t50.5 20.5q19 0 34.5 -4.5t33.5 -14.5q-14 -6 -22.5 -16t-7.5 -22q0 -24 23 -38.5t59 -14.5
q57 0 103 29.5t75 80.5z" />
    <glyph glyph-name="afii10027" unicode="&#x419;" horiz-adv-x="761" 
d="M169 131l456 530q15 18 23.5 25t20.5 14h141q-30 -11 -47 -38.5t-30 -88.5l-96 -449q-3 -13 -5.5 -36t-2.5 -33q0 -20 6.5 -33.5t19.5 -21.5h-189q30 10 46.5 37.5t30.5 89.5l94 442l-457 -530q-16 -18 -24.5 -25.5t-18.5 -13.5h-140q31 11 48 40.5t29 86.5l95 449
q5 27 7 40.5t2 27.5q-1 22 -7 34.5t-20 21.5h190q-30 -11 -47 -39t-30 -88zM690 931l-32 -129q-42 -23 -86.5 -33.5t-91.5 -10.5q-68 0 -113 26.5t-45 74.5q0 31 19.5 51.5t50.5 20.5q19 0 34.5 -4.5t33.5 -14.5q-14 -6 -22.5 -16t-7.5 -22q0 -24 23 -38.5t59 -14.5
q57 0 103 29.5t75 80.5z" />
    <glyph glyph-name="afii10028" unicode="&#xca;" horiz-adv-x="622" 
d="M185 0h-188q28 10 45 37.5t31 90.5l96 448q4 21 6.5 36.5t2.5 31.5q0 22 -6.5 34.5t-20.5 21.5h189q-31 -11 -47 -38t-29 -89l-97 -449q-5 -22 -7 -38.5t-2 -29.5q0 -19 6 -32.5t21 -23.5zM335 382l119 -218q40 -74 75 -112.5t79 -51.5q-21 -4 -34 -6t-34 -2
q-70 0 -97.5 21t-64.5 89l-149 269l277 267q11 10 15 17.5t4 14.5q0 8 -7.5 16.5t-18.5 13.5h182z" />
    <glyph glyph-name="afii10028" unicode="&#x41a;" horiz-adv-x="622" 
d="M185 0h-188q28 10 45 37.5t31 90.5l96 448q4 21 6.5 36.5t2.5 31.5q0 22 -6.5 34.5t-20.5 21.5h189q-31 -11 -47 -38t-29 -89l-97 -449q-5 -22 -7 -38.5t-2 -29.5q0 -19 6 -32.5t21 -23.5zM335 382l119 -218q40 -74 75 -112.5t79 -51.5q-21 -4 -34 -6t-34 -2
q-70 0 -97.5 21t-64.5 89l-149 269l277 267q11 10 15 17.5t4 14.5q0 8 -7.5 16.5t-18.5 13.5h182z" />
    <glyph glyph-name="afii10029" unicode="&#xcb;" horiz-adv-x="656" 
d="M-50 -7v123q11 -16 25 -23.5t28 -7.5q77 0 151 195.5t74 334.5q-1 33 -13 54t-37 31h527q-30 -11 -47 -38.5t-30 -88.5l-96 -449q-3 -13 -5.5 -36t-2.5 -33q0 -20 6.5 -33.5t19.5 -21.5h-189q29 10 46 35.5t31 91.5l105 497h-224l-22 -101q-63 -287 -136.5 -413
t-167.5 -126q-11 0 -21.5 2.5t-21.5 6.5z" />
    <glyph glyph-name="afii10029" unicode="&#x41b;" horiz-adv-x="656" 
d="M-50 -7v123q11 -16 25 -23.5t28 -7.5q77 0 151 195.5t74 334.5q-1 33 -13 54t-37 31h527q-30 -11 -47 -38.5t-30 -88.5l-96 -449q-3 -13 -5.5 -36t-2.5 -33q0 -20 6.5 -33.5t19.5 -21.5h-189q29 10 46 35.5t31 91.5l105 497h-224l-22 -101q-63 -287 -136.5 -413
t-167.5 -126q-11 0 -21.5 2.5t-21.5 6.5z" />
    <glyph glyph-name="afii10030" unicode="&#xcc;" horiz-adv-x="949" 
d="M466 153l258 443q24 42 34 62.5t17 41.5h180q-31 -9 -43.5 -27t-18.5 -98l-36 -474q-4 -45 7 -70.5t32 -30.5h-195q25 6 39.5 28.5t22.5 99.5l45 482l-363 -619l-20 22q-15 16 -26 39.5t-17 56.5l-102 501l-156 -481q-11 -32 -15.5 -52.5t-4.5 -31.5q-1 -14 5.5 -25.5
t18.5 -19.5h-169q26 7 42 27t45 102l153 446q6 18 11.5 40.5t5.5 36.5q0 15 -8 27t-22 21h170q-1 -17 1 -34.5t12 -59.5z" />
    <glyph glyph-name="afii10030" unicode="&#x41c;" horiz-adv-x="949" 
d="M466 153l258 443q24 42 34 62.5t17 41.5h180q-31 -9 -43.5 -27t-18.5 -98l-36 -474q-4 -45 7 -70.5t32 -30.5h-195q25 6 39.5 28.5t22.5 99.5l45 482l-363 -619l-20 22q-15 16 -26 39.5t-17 56.5l-102 501l-156 -481q-11 -32 -15.5 -52.5t-4.5 -31.5q-1 -14 5.5 -25.5
t18.5 -19.5h-169q26 7 42 27t45 102l153 446q6 18 11.5 40.5t5.5 36.5q0 15 -8 27t-22 21h170q-1 -17 1 -34.5t12 -59.5z" />
    <glyph glyph-name="afii10031" unicode="&#xcd;" horiz-adv-x="760" 
d="M586 332h-373l-46 -208q-5 -21 -7 -38t-2 -30q0 -19 6 -32.5t21 -23.5h-188q31 11 48 40.5t29 86.5l95 449q5 27 7 40.5t2 27.5q-1 22 -7 34.5t-20 21.5h190q-30 -11 -47 -36.5t-30 -90.5l-35 -165h373l37 168q4 19 6.5 36t2.5 31q0 20 -6.5 33.5t-20.5 23.5h188
q-30 -11 -47 -38.5t-30 -88.5l-96 -449q-3 -13 -6 -36t-2 -33q0 -20 6.5 -33.5t19.5 -21.5h-189q29 10 45.5 35.5t31.5 91.5z" />
    <glyph glyph-name="afii10031" unicode="&#x41d;" horiz-adv-x="760" 
d="M586 332h-373l-46 -208q-5 -21 -7 -38t-2 -30q0 -19 6 -32.5t21 -23.5h-188q31 11 48 40.5t29 86.5l95 449q5 27 7 40.5t2 27.5q-1 22 -7 34.5t-20 21.5h190q-30 -11 -47 -36.5t-30 -90.5l-35 -165h373l37 168q4 19 6.5 36t2.5 31q0 20 -6.5 33.5t-20.5 23.5h188
q-30 -11 -47 -38.5t-30 -88.5l-96 -449q-3 -13 -6 -36t-2 -33q0 -20 6.5 -33.5t19.5 -21.5h-189q29 10 45.5 35.5t31.5 91.5z" />
    <glyph glyph-name="afii10032" unicode="&#xce;" horiz-adv-x="730" 
d="M435 716q137 -1 203.5 -84.5t66.5 -214.5q0 -181 -104.5 -307t-272.5 -126q-128 0 -200.5 80t-72.5 218q-1 175 104.5 304.5t275.5 129.5zM418 651q-106 0 -183.5 -102t-77.5 -268q0 -109 47.5 -170.5t138.5 -61.5q110 -1 185 103.5t75 268.5q0 115 -52.5 172t-132.5 58z
" />
    <glyph glyph-name="afii10032" unicode="&#x41e;" horiz-adv-x="730" 
d="M435 716q137 -1 203.5 -84.5t66.5 -214.5q0 -181 -104.5 -307t-272.5 -126q-128 0 -200.5 80t-72.5 218q-1 175 104.5 304.5t275.5 129.5zM418 651q-106 0 -183.5 -102t-77.5 -268q0 -109 47.5 -170.5t138.5 -61.5q110 -1 185 103.5t75 268.5q0 115 -52.5 172t-132.5 58z
" />
    <glyph glyph-name="afii10033" unicode="&#xcf;" horiz-adv-x="714" 
d="M601 624h-327l-107 -500q-5 -23 -7 -39t-2 -29q-1 -19 5.5 -32.5t21.5 -23.5h-188q31 11 48 40.5t29 86.5l95 449q5 27 7 40.5t2 27.5q-1 22 -7 34.5t-20 21.5h612q-30 -11 -47 -38.5t-30 -88.5l-96 -449q-3 -13 -5.5 -36t-2.5 -33q0 -20 6.5 -33.5t19.5 -21.5h-189
q29 10 46 35.5t31 91.5z" />
    <glyph glyph-name="afii10033" unicode="&#x41f;" horiz-adv-x="714" 
d="M601 624h-327l-107 -500q-5 -23 -7 -39t-2 -29q-1 -19 5.5 -32.5t21.5 -23.5h-188q31 11 48 40.5t29 86.5l95 449q5 27 7 40.5t2 27.5q-1 22 -7 34.5t-20 21.5h612q-30 -11 -47 -38.5t-30 -88.5l-96 -449q-3 -13 -5.5 -36t-2.5 -33q0 -20 6.5 -33.5t19.5 -21.5h-189
q29 10 46 35.5t31 91.5z" />
    <glyph glyph-name="afii10034" unicode="&#xd0;" horiz-adv-x="555" 
d="M151 700h203q122 -1 179 -38.5t57 -117.5q0 -91 -64.5 -158t-176.5 -67q-43 0 -70 9t-42 30q14 -3 29 -4t27 -1q90 0 142.5 52.5t52.5 121.5q-1 51 -35 81t-112 30q-21 0 -35.5 -1t-28.5 -3l-110 -510q-5 -22 -7 -38.5t-2 -29.5q0 -19 6 -32.5t21 -23.5h-188q28 10 45 38
t31 89l96 449q4 20 6.5 36.5t2.5 31.5q0 20 -6.5 33t-20.5 23z" />
    <glyph glyph-name="afii10034" unicode="&#x420;" horiz-adv-x="555" 
d="M151 700h203q122 -1 179 -38.5t57 -117.5q0 -91 -64.5 -158t-176.5 -67q-43 0 -70 9t-42 30q14 -3 29 -4t27 -1q90 0 142.5 52.5t52.5 121.5q-1 51 -35 81t-112 30q-21 0 -35.5 -1t-28.5 -3l-110 -510q-5 -22 -7 -38.5t-2 -29.5q0 -19 6 -32.5t21 -23.5h-188q28 10 45 38
t31 89l96 449q4 20 6.5 36.5t2.5 31.5q0 20 -6.5 33t-20.5 23z" />
    <glyph glyph-name="afii10035" unicode="&#xd1;" horiz-adv-x="642" 
d="M630 694l-10 -139q-23 43 -61.5 64t-96.5 21q-137 0 -221.5 -95t-83.5 -243q0 -110 59 -173t161 -62q63 0 122.5 21t109.5 66l-49 -130q-51 -21 -101 -30.5t-98 -9.5q-142 0 -224 81.5t-82 222.5q-1 170 114.5 299t311.5 129q42 0 76 -5.5t73 -16.5z" />
    <glyph glyph-name="afii10035" unicode="&#x421;" horiz-adv-x="642" 
d="M630 694l-10 -139q-23 43 -61.5 64t-96.5 21q-137 0 -221.5 -95t-83.5 -243q0 -110 59 -173t161 -62q63 0 122.5 21t109.5 66l-49 -130q-51 -21 -101 -30.5t-98 -9.5q-142 0 -224 81.5t-82 222.5q-1 170 114.5 299t311.5 129q42 0 76 -5.5t73 -16.5z" />
    <glyph glyph-name="afii10036" unicode="&#xd2;" horiz-adv-x="550" 
d="M307 633h-115q-65 -1 -86 -8t-43 -23l55 108q11 -5 29 -8t43 -2h388q19 0 41 1.5t42 5.5l-51 -108q-10 18 -23 26t-49 8h-137l-110 -509q-4 -16 -6 -36t-2 -33q0 -24 6.5 -36t20.5 -19h-189q29 10 45.5 35.5t31.5 91.5z" />
    <glyph glyph-name="afii10036" unicode="&#x422;" horiz-adv-x="550" 
d="M307 633h-115q-65 -1 -86 -8t-43 -23l55 108q11 -5 29 -8t43 -2h388q19 0 41 1.5t42 5.5l-51 -108q-10 18 -23 26t-49 8h-137l-110 -509q-4 -16 -6 -36t-2 -33q0 -24 6.5 -36t20.5 -19h-189q29 10 45.5 35.5t31.5 91.5z" />
    <glyph glyph-name="afii10037" unicode="&#xd3;" horiz-adv-x="574" 
d="M78 700h142l118 -423l207 309q12 19 19.5 39.5t8.5 37.5q0 12 -4.5 21.5t-14.5 15.5h148l-370 -558q-56 -84 -111.5 -121t-121.5 -37q-47 0 -73 23.5t-26 66.5q0 37 26.5 58.5t63.5 20.5q-7 -7 -9.5 -14.5t-2.5 -15.5q-1 -25 15 -41t43 -15q30 0 59 19.5t63 68.5l27 39
q-18 14 -28 29.5t-22 57.5l-102 345q-8 24 -22.5 44t-32.5 30z" />
    <glyph glyph-name="afii10037" unicode="&#x423;" horiz-adv-x="574" 
d="M78 700h142l118 -423l207 309q12 19 19.5 39.5t8.5 37.5q0 12 -4.5 21.5t-14.5 15.5h148l-370 -558q-56 -84 -111.5 -121t-121.5 -37q-47 0 -73 23.5t-26 66.5q0 37 26.5 58.5t63.5 20.5q-7 -7 -9.5 -14.5t-2.5 -15.5q-1 -25 15 -41t43 -15q30 0 59 19.5t63 68.5l27 39
q-18 14 -28 29.5t-22 57.5l-102 345q-8 24 -22.5 44t-32.5 30z" />
    <glyph glyph-name="afii10038" unicode="&#xd4;" horiz-adv-x="825" 
d="M417 740h187q-28 -18 -44.5 -40t-20.5 -50q117 3 191 -52.5t75 -166.5q0 -147 -107 -237.5t-276 -90.5l-1 -10q-5 -48 1.5 -64t24.5 -29h-187q29 18 45.5 42t19.5 51l1 10q-118 -4 -192 51.5t-74 166.5q0 147 106.5 237.5t276.5 91.5q8 24 1.5 48t-27.5 42zM525 585
l-90 -417q114 -2 191 68.5t77 180.5q0 84 -49 127.5t-129 40.5zM340 168l90 417q-115 1 -191.5 -69.5t-76.5 -179.5q0 -85 48.5 -128.5t129.5 -39.5z" />
    <glyph glyph-name="afii10038" unicode="&#x424;" horiz-adv-x="825" 
d="M417 740h187q-28 -18 -44.5 -40t-20.5 -50q117 3 191 -52.5t75 -166.5q0 -147 -107 -237.5t-276 -90.5l-1 -10q-5 -48 1.5 -64t24.5 -29h-187q29 18 45.5 42t19.5 51l1 10q-118 -4 -192 51.5t-74 166.5q0 147 106.5 237.5t276.5 91.5q8 24 1.5 48t-27.5 42zM525 585
l-90 -417q114 -2 191 68.5t77 180.5q0 84 -49 127.5t-129 40.5zM340 168l90 417q-115 1 -191.5 -69.5t-76.5 -179.5q0 -85 48.5 -128.5t129.5 -39.5z" />
    <glyph glyph-name="afii10039" unicode="&#xd5;" horiz-adv-x="638" 
d="M373 439l141 150q31 33 44 52.5t13 31.5q0 5 -4 12.5t-9 14.5h165l-321 -323l93 -230q36 -90 59 -114.5t54 -32.5q-39 -7 -55 -9t-31 -2q-46 0 -69.5 28.5t-62.5 134.5l-64 170l-222 -240q-21 -22 -25.5 -32t-4.5 -19q0 -8 4 -17t13 -14h-168l373 382l-59 153
q-38 96 -54.5 121t-39.5 44h138q4 -17 9 -32.5t11 -31.5z" />
    <glyph glyph-name="afii10039" unicode="&#x425;" horiz-adv-x="638" 
d="M373 439l141 150q31 33 44 52.5t13 31.5q0 5 -4 12.5t-9 14.5h165l-321 -323l93 -230q36 -90 59 -114.5t54 -32.5q-39 -7 -55 -9t-31 -2q-46 0 -69.5 28.5t-62.5 134.5l-64 170l-222 -240q-21 -22 -25.5 -32t-4.5 -19q0 -8 4 -17t13 -14h-168l373 382l-59 153
q-38 96 -54.5 121t-39.5 44h138q4 -17 9 -32.5t11 -31.5z" />
    <glyph glyph-name="afii10040" unicode="&#xd6;" horiz-adv-x="724" 
d="M159 76h337l107 500q4 22 6.5 38t2.5 30q0 18 -6.5 31.5t-20.5 24.5h188q-31 -12 -48 -40.5t-29 -86.5l-106 -497h96l-49 -226l-65 -33q3 27 5 52t2 43q0 45 -16.5 66.5t-55.5 21.5h-510q29 10 46 37.5t31 89.5l96 449q2 12 5 35t3 34q-1 19 -7.5 32.5t-18.5 22.5h189
q-30 -11 -47 -36.5t-30 -90.5z" />
    <glyph glyph-name="afii10040" unicode="&#x426;" horiz-adv-x="724" 
d="M159 76h337l107 500q4 22 6.5 38t2.5 30q0 18 -6.5 31.5t-20.5 24.5h188q-31 -12 -48 -40.5t-29 -86.5l-106 -497h96l-49 -226l-65 -33q3 27 5 52t2 43q0 45 -16.5 66.5t-55.5 21.5h-510q29 10 46 37.5t31 89.5l96 449q2 12 5 35t3 34q-1 19 -7.5 32.5t-18.5 22.5h189
q-30 -11 -47 -36.5t-30 -90.5z" />
    <glyph glyph-name="afii10041" unicode="&#xd7;" horiz-adv-x="649" 
d="M510 700h188q-30 -11 -47 -38.5t-30 -88.5l-96 -449q-3 -13 -6 -36t-2 -33q0 -20 6.5 -33.5t19.5 -21.5h-189q29 10 46 35.5t31 91.5l43 201q-43 -19 -97 -28.5t-99 -9.5q-93 0 -138 36.5t-45 97.5q-1 16 1 29.5t5 26.5l23 96q4 18 6.5 35.5t2.5 31.5q-1 20 -7 33.5
t-20 23.5h188q-31 -12 -48 -41t-29 -86l-13 -61q-4 -18 -5.5 -30.5t-1.5 -23.5q-1 -53 25.5 -73t87.5 -19q45 0 89.5 8t90.5 25l38 177q4 23 6.5 38.5t2.5 28.5q0 20 -6.5 33.5t-20.5 23.5z" />
    <glyph glyph-name="afii10041" unicode="&#x427;" horiz-adv-x="649" 
d="M510 700h188q-30 -11 -47 -38.5t-30 -88.5l-96 -449q-3 -13 -6 -36t-2 -33q0 -20 6.5 -33.5t19.5 -21.5h-189q29 10 46 35.5t31 91.5l43 201q-43 -19 -97 -28.5t-99 -9.5q-93 0 -138 36.5t-45 97.5q-1 16 1 29.5t5 26.5l23 96q4 18 6.5 35.5t2.5 31.5q-1 20 -7 33.5
t-20 23.5h188q-31 -12 -48 -41t-29 -86l-13 -61q-4 -18 -5.5 -30.5t-1.5 -23.5q-1 -53 25.5 -73t87.5 -19q45 0 89.5 8t90.5 25l38 177q4 23 6.5 38.5t2.5 28.5q0 20 -6.5 33.5t-20.5 23.5z" />
    <glyph glyph-name="afii10042" unicode="&#xd8;" horiz-adv-x="978" 
d="M159 76h248l107 500q4 21 6.5 36.5t2.5 31.5q0 22 -6.5 34.5t-20.5 21.5h189q-31 -11 -47 -38t-29 -89l-107 -497h248l107 500q4 22 6.5 38t2.5 30q0 18 -6.5 31.5t-20.5 24.5h188q-32 -12 -49 -41.5t-28 -85.5l-95 -449q-6 -28 -7.5 -41.5t-1.5 -26.5q0 -23 6 -35.5
t21 -20.5h-876q29 10 46 37.5t31 89.5l96 449q2 12 5 35t3 34q-1 19 -7.5 32.5t-18.5 22.5h189q-30 -11 -47 -36.5t-30 -90.5z" />
    <glyph glyph-name="afii10042" unicode="&#x428;" horiz-adv-x="978" 
d="M159 76h248l107 500q4 21 6.5 36.5t2.5 31.5q0 22 -6.5 34.5t-20.5 21.5h189q-31 -11 -47 -38t-29 -89l-107 -497h248l107 500q4 22 6.5 38t2.5 30q0 18 -6.5 31.5t-20.5 24.5h188q-32 -12 -49 -41.5t-28 -85.5l-95 -449q-6 -28 -7.5 -41.5t-1.5 -26.5q0 -23 6 -35.5
t21 -20.5h-876q29 10 46 37.5t31 89.5l96 449q2 12 5 35t3 34q-1 19 -7.5 32.5t-18.5 22.5h189q-30 -11 -47 -36.5t-30 -90.5z" />
    <glyph glyph-name="afii10043" unicode="&#xd9;" horiz-adv-x="978" 
d="M159 76h248l107 500q4 21 6.5 36.5t2.5 31.5q0 22 -6.5 34.5t-20.5 21.5h189q-31 -11 -47 -38t-29 -89l-107 -497h248l107 500q4 22 6.5 38t2.5 30q0 18 -6.5 31.5t-20.5 24.5h188q-32 -12 -49 -41.5t-28 -85.5l-105 -497h96l-49 -226l-65 -33q3 27 5 52t2 43
q0 45 -16.5 66.5t-55.5 21.5h-765q29 10 46 37.5t31 89.5l96 449q2 12 5 35t3 34q-1 19 -7.5 32.5t-18.5 22.5h189q-30 -11 -47 -36.5t-30 -90.5z" />
    <glyph glyph-name="afii10043" unicode="&#x429;" horiz-adv-x="978" 
d="M159 76h248l107 500q4 21 6.5 36.5t2.5 31.5q0 22 -6.5 34.5t-20.5 21.5h189q-31 -11 -47 -38t-29 -89l-107 -497h248l107 500q4 22 6.5 38t2.5 30q0 18 -6.5 31.5t-20.5 24.5h188q-32 -12 -49 -41.5t-28 -85.5l-105 -497h96l-49 -226l-65 -33q3 27 5 52t2 43
q0 45 -16.5 66.5t-55.5 21.5h-765q29 10 46 37.5t31 89.5l96 449q2 12 5 35t3 34q-1 19 -7.5 32.5t-18.5 22.5h189q-30 -11 -47 -36.5t-30 -90.5z" />
    <glyph glyph-name="afii10044" unicode="&#xda;" horiz-adv-x="704" 
d="M371 573l-35 -163q31 10 61.5 14.5t61.5 5.5q105 0 157 -49.5t53 -135.5q-1 -114 -74.5 -179.5t-221.5 -65.5h-269q28 10 46 39t31 89l108 505h-112q-65 -1 -86 -8t-43 -23l55 108q11 -5 29 -7.5t43 -2.5h273q-30 -11 -46.5 -36.5t-30.5 -90.5zM323 348l-58 -266
q22 -11 48 -16t61 -5q87 0 140 47.5t53 123.5q0 60 -39 95.5t-116 35.5q-22 0 -44 -4t-45 -11z" />
    <glyph glyph-name="afii10044" unicode="&#x42a;" horiz-adv-x="704" 
d="M371 573l-35 -163q31 10 61.5 14.5t61.5 5.5q105 0 157 -49.5t53 -135.5q-1 -114 -74.5 -179.5t-221.5 -65.5h-269q28 10 46 39t31 89l108 505h-112q-65 -1 -86 -8t-43 -23l55 108q11 -5 29 -7.5t43 -2.5h273q-30 -11 -46.5 -36.5t-30.5 -90.5zM323 348l-58 -266
q22 -11 48 -16t61 -5q87 0 140 47.5t53 123.5q0 60 -39 95.5t-116 35.5q-22 0 -44 -4t-45 -11z" />
    <glyph glyph-name="afii10045" unicode="&#xdb;" horiz-adv-x="850" 
d="M264 573l-35 -162q32 10 60.5 14t56.5 5q102 0 154.5 -50t52.5 -135q0 -126 -78 -185.5t-230 -59.5h-248q28 10 46 39t31 89l95 448q5 27 6.5 40.5t2.5 27.5q-1 22 -7 34.5t-20 21.5h190q-30 -11 -46.5 -36.5t-30.5 -90.5zM216 348l-58 -266q21 -11 46 -16.5t58 -4.5
q84 0 136.5 47.5t52.5 123.5q0 60 -38.5 95.5t-112.5 35.5q-20 -1 -41 -4.5t-43 -10.5zM744 0h-188q28 10 45 37.5t31 90.5l96 448q4 21 6 36.5t3 31.5q0 22 -6.5 34.5t-20.5 21.5h189q-31 -11 -47 -38t-29 -89l-97 -449q-5 -22 -7 -38.5t-2 -29.5q0 -19 6 -32.5t21 -23.5z
" />
    <glyph glyph-name="afii10045" unicode="&#x42b;" horiz-adv-x="850" 
d="M264 573l-35 -162q32 10 60.5 14t56.5 5q102 0 154.5 -50t52.5 -135q0 -126 -78 -185.5t-230 -59.5h-248q28 10 46 39t31 89l95 448q5 27 6.5 40.5t2.5 27.5q-1 22 -7 34.5t-20 21.5h190q-30 -11 -46.5 -36.5t-30.5 -90.5zM216 348l-58 -266q21 -11 46 -16.5t58 -4.5
q84 0 136.5 47.5t52.5 123.5q0 60 -38.5 95.5t-112.5 35.5q-20 -1 -41 -4.5t-43 -10.5zM744 0h-188q28 10 45 37.5t31 90.5l96 448q4 21 6 36.5t3 31.5q0 22 -6.5 34.5t-20.5 21.5h189q-31 -11 -47 -38t-29 -89l-97 -449q-5 -22 -7 -38.5t-2 -29.5q0 -19 6 -32.5t21 -23.5z
" />
    <glyph glyph-name="afii10046" unicode="&#xdc;" horiz-adv-x="597" 
d="M264 573l-35 -163q31 10 61.5 14.5t61.5 5.5q105 0 157.5 -49.5t52.5 -135.5q0 -114 -74 -179.5t-222 -65.5h-269q28 10 46 39t31 89l95 448q5 27 6.5 40.5t2.5 27.5q-1 22 -7 34.5t-20 21.5h190q-30 -11 -46.5 -36.5t-30.5 -90.5zM217 348l-59 -266q22 -11 48 -16t61 -5
q87 0 140 47.5t53 123.5q0 60 -39 95t-116 36q-22 0 -44.5 -4t-43.5 -11z" />
    <glyph glyph-name="afii10046" unicode="&#x42c;" horiz-adv-x="597" 
d="M264 573l-35 -163q31 10 61.5 14.5t61.5 5.5q105 0 157.5 -49.5t52.5 -135.5q0 -114 -74 -179.5t-222 -65.5h-269q28 10 46 39t31 89l95 448q5 27 6.5 40.5t2.5 27.5q-1 22 -7 34.5t-20 21.5h190q-30 -11 -46.5 -36.5t-30.5 -90.5zM217 348l-59 -266q22 -11 48 -16t61 -5
q87 0 140 47.5t53 123.5q0 60 -39 95t-116 36q-22 0 -44.5 -4t-43.5 -11z" />
    <glyph glyph-name="afii10047" unicode="&#xdd;" horiz-adv-x="643" 
d="M169 318l31 102q16 -3 38 -4t39 -1h229q0 96 -53 160.5t-161 64.5q-54 0 -96 -16.5t-74 -48.5l36 120q38 9 80.5 15t82.5 6q130 0 208.5 -73.5t78.5 -225.5q0 -188 -118.5 -310.5t-304.5 -122.5q-95 0 -151 34t-56 95q0 33 20.5 56.5t51.5 23.5q13 0 28 -5t28 -11
q-14 -6 -22.5 -17.5t-7.5 -25.5q0 -30 31.5 -52.5t91.5 -21.5q122 0 203 82.5t97 196.5h-264q-23 0 -39 -5.5t-27 -15.5z" />
    <glyph glyph-name="afii10047" unicode="&#x42d;" horiz-adv-x="643" 
d="M169 318l31 102q16 -3 38 -4t39 -1h229q0 96 -53 160.5t-161 64.5q-54 0 -96 -16.5t-74 -48.5l36 120q38 9 80.5 15t82.5 6q130 0 208.5 -73.5t78.5 -225.5q0 -188 -118.5 -310.5t-304.5 -122.5q-95 0 -151 34t-56 95q0 33 20.5 56.5t51.5 23.5q13 0 28 -5t28 -11
q-14 -6 -22.5 -17.5t-7.5 -25.5q0 -30 31.5 -52.5t91.5 -21.5q122 0 203 82.5t97 196.5h-264q-23 0 -39 -5.5t-27 -15.5z" />
    <glyph glyph-name="afii10048" unicode="&#xde;" horiz-adv-x="1016" 
d="M229 408h128q40 145 141.5 226.5t237.5 81.5q129 0 192 -83.5t63 -215.5q-1 -201 -118.5 -317t-273.5 -116q-120 0 -189 78.5t-69 219.5q0 12 0.5 24.5t2.5 25.5h-131l-46 -208q-5 -21 -7 -38t-2 -30q0 -19 6 -32.5t21 -23.5h-188q31 11 48 40.5t29 86.5l95 449
q5 27 7 40.5t2 27.5q-1 22 -7 34.5t-20 21.5h190q-30 -11 -47 -36.5t-30 -90.5zM719 651q-110 0 -193 -102t-83 -268q0 -110 43.5 -171.5t127.5 -60.5q115 0 194.5 105t80.5 267q0 114 -48 171.5t-122 58.5z" />
    <glyph glyph-name="afii10048" unicode="&#x42e;" horiz-adv-x="1016" 
d="M229 408h128q40 145 141.5 226.5t237.5 81.5q129 0 192 -83.5t63 -215.5q-1 -201 -118.5 -317t-273.5 -116q-120 0 -189 78.5t-69 219.5q0 12 0.5 24.5t2.5 25.5h-131l-46 -208q-5 -21 -7 -38t-2 -30q0 -19 6 -32.5t21 -23.5h-188q31 11 48 40.5t29 86.5l95 449
q5 27 7 40.5t2 27.5q-1 22 -7 34.5t-20 21.5h190q-30 -11 -47 -36.5t-30 -90.5zM719 651q-110 0 -193 -102t-83 -268q0 -110 43.5 -171.5t127.5 -60.5q115 0 194.5 105t80.5 267q0 114 -48 171.5t-122 58.5z" />
    <glyph glyph-name="afii10049" unicode="&#xdf;" horiz-adv-x="604" 
d="M386 127l106 497q-22 2 -43.5 4t-37.5 2q-95 0 -147 -40t-52 -108q-1 -71 49 -107.5t122 -31.5q-92 -133 -173 -222.5t-131 -110.5q-20 -9 -45.5 -12.5t-56.5 -3.5q-21 0 -38 1.5t-34 4.5q98 45 181.5 121t162.5 187q-66 9 -102.5 57t-36.5 118q0 100 79.5 161t228.5 62
q40 0 90 -3.5t145 -2.5q-30 -11 -47 -38.5t-30 -88.5l-96 -449q-3 -13 -6 -36t-2 -33q0 -20 6.5 -33.5t19.5 -21.5h-189q29 10 46 35.5t31 91.5z" />
    <glyph glyph-name="afii10049" unicode="&#x42f;" horiz-adv-x="604" 
d="M386 127l106 497q-22 2 -43.5 4t-37.5 2q-95 0 -147 -40t-52 -108q-1 -71 49 -107.5t122 -31.5q-92 -133 -173 -222.5t-131 -110.5q-20 -9 -45.5 -12.5t-56.5 -3.5q-21 0 -38 1.5t-34 4.5q98 45 181.5 121t162.5 187q-66 9 -102.5 57t-36.5 118q0 100 79.5 161t228.5 62
q40 0 90 -3.5t145 -2.5q-30 -11 -47 -38.5t-30 -88.5l-96 -449q-3 -13 -6 -36t-2 -33q0 -20 6.5 -33.5t19.5 -21.5h-189q29 10 46 35.5t31 91.5z" />
    <glyph glyph-name="dagger" unicode="&#x2020;" 
d="M405 458h115q54 0 70.5 7.5t30.5 26.5l-32 -152q-5 19 -19 28.5t-67 9.5h-115l-89 -418q-4 -14 -7.5 -35.5t-2.5 -30.5q0 -14 6.5 -25t21.5 -17h-167q22 9 34 23t29 91l89 412h-117q-49 -1 -67.5 -9t-28.5 -29l33 156q5 -22 17 -30t64 -8h116l33 151q3 16 4.5 26.5
t1.5 21.5q0 15 -6.5 25.5t-19.5 17.5h164q-24 -10 -35.5 -24.5t-22.5 -66.5z" />
    <glyph glyph-name="degree" unicode="&#xb0;" horiz-adv-x="598" 
d="M200 564q0 61 43 104.5t105 43.5q61 0 104.5 -43.5t43.5 -104.5q0 -62 -43.5 -105t-104.5 -43q-62 0 -105.5 43t-42.5 105zM256 564q0 -39 26.5 -65.5t65.5 -26.5q38 0 64.5 26.5t27.5 65.5q0 38 -27 65t-65 27q-39 0 -65.5 -27t-26.5 -65z" />
    <glyph glyph-name="afii10050" unicode="&#xa5;" horiz-adv-x="480" 
d="M275 624l-112 -521q-7 -31 -7.5 -39t-0.5 -18q0 -19 7 -29.5t23 -16.5h-188q30 11 47 39.5t30 88.5l95 448q4 23 6.5 38.5t2.5 29.5q0 20 -6.5 33t-20.5 23h315q38 -1 66.5 10t47.5 31l-30 -139q-22 11 -73 19t-99 8q-23 0 -50.5 -1.5t-52.5 -3.5z" />
    <glyph glyph-name="afii10050" unicode="&#x490;" horiz-adv-x="480" 
d="M275 624l-112 -521q-7 -31 -7.5 -39t-0.5 -18q0 -19 7 -29.5t23 -16.5h-188q30 11 47 39.5t30 88.5l95 448q4 23 6.5 38.5t2.5 29.5q0 20 -6.5 33t-20.5 23h315q38 -1 66.5 10t47.5 31l-30 -139q-22 11 -73 19t-99 8q-23 0 -50.5 -1.5t-52.5 -3.5z" />
    <glyph glyph-name="sterling" horiz-adv-x="571" 
d="M325 400h165l-13 -63h-124q5 -15 7.5 -31t3.5 -33q0 -42 -19 -85.5t-52 -82.5q26 -11 47 -15.5t44 -3.5q35 0 62.5 11.5t48.5 33.5l-25 -120q-23 -13 -47 -20t-52 -7q-43 0 -78.5 14t-69.5 42q-26 -24 -56.5 -38t-61.5 -14q-41 0 -65 21.5t-24 59.5q0 42 31 67.5t79 25.5
q22 0 41.5 -4.5t67.5 -26.5q18 21 29 49.5t11 59.5q0 21 -7.5 46t-20.5 51h-114l13 63h62q-15 26 -22 50t-7 50q-1 88 63.5 152t179.5 64q33 0 66.5 -7t67.5 -20l-6 -123q-23 37 -59 59t-82 22q-53 0 -89 -32.5t-36 -87.5q0 -25 10.5 -58t30.5 -69zM178 75q-19 15 -33 22
t-28 7q-18 -1 -28 -9t-10 -20q-1 -15 10 -25t28 -10q14 0 28.5 8t32.5 27z" />
    <glyph glyph-name="section" unicode="&#xa7;" horiz-adv-x="625" 
d="M593 676l-26 -111q-21 36 -56 58t-81 23q-56 0 -88 -29t-32 -70q0 -26 14 -47.5t114 -84.5q61 -40 81.5 -70.5t20.5 -68.5q0 -50 -30.5 -92t-85.5 -64q15 -21 23 -43t8 -48q0 -79 -61.5 -135.5t-172.5 -56.5q-51 0 -96 13.5t-85 39.5l21 110q24 -41 68 -67t103 -26
q55 1 91 29.5t36 77.5q-1 31 -19 54t-98 71q-85 50 -108.5 86.5t-23.5 80.5q-1 57 35 97.5t92 57.5q-12 16 -17.5 34.5t-5.5 40.5q-1 76 57 128t166 52q48 0 84.5 -10.5t71.5 -29.5zM270 419q-32 -15 -49.5 -40.5t-17.5 -55.5q-1 -25 12.5 -46.5t66.5 -55.5l1 -1l62 -39
q10 -7 19.5 -13t20.5 -12q28 16 43.5 40.5t15.5 55.5q0 30 -15.5 49.5t-80.5 62.5q-22 14 -41 27t-37 28z" />
    <glyph glyph-name="bullet" unicode="&#x2022;" horiz-adv-x="703" 
d="M229 357q0 61 43 104.5t105 43.5q61 0 104.5 -43.5t43.5 -104.5q0 -62 -43.5 -105.5t-104.5 -42.5q-62 0 -105 43t-43 105z" />
    <glyph glyph-name="paragraph" unicode="&#xb6;" horiz-adv-x="618" 
d="M431 -177h-77l177 834h-42l-178 -834h-74l177 834q-78 -3 -123 -77.5t-44 -166.5q0 -39 17 -63.5t59 -42.5q-12 -4 -23 -5t-24 -1q-80 -1 -125.5 41.5t-45.5 113.5q-1 114 76 179t229 65h253q-31 -18 -46.5 -44.5t-29.5 -94.5z" />
    <glyph glyph-name="afii10055" unicode="&#xb2;" horiz-adv-x="291" 
d="M185 0h-188q28 10 45 37.5t31 90.5l96 448q4 21 6.5 36.5t2.5 31.5q0 22 -6.5 34.5t-20.5 21.5h189q-31 -11 -47 -38t-29 -89l-97 -449q-5 -22 -7 -38.5t-2 -29.5q0 -19 6 -32.5t21 -23.5z" />
    <glyph glyph-name="afii10055" unicode="&#x406;" horiz-adv-x="291" 
d="M185 0h-188q28 10 45 37.5t31 90.5l96 448q4 21 6.5 36.5t2.5 31.5q0 22 -6.5 34.5t-20.5 21.5h189q-31 -11 -47 -38t-29 -89l-97 -449q-5 -22 -7 -38.5t-2 -29.5q0 -19 6 -32.5t21 -23.5z" />
    <glyph glyph-name="registered" unicode="&#xae;" horiz-adv-x="819" 
d="M457 716q144 0 244.5 -101t100.5 -245q0 -158 -115 -272t-273 -114q-148 0 -249 100t-101 246q0 158 116 272t277 114zM446 673q-135 0 -234 -101.5t-98 -239.5q0 -128 87.5 -216.5t214.5 -88.5q137 0 236 100.5t100 239.5q0 128 -88.5 217t-217.5 89zM424 521l-81 -305
q-3 -12 -5 -20.5t-1 -14.5q0 -10 6 -17t18 -13h-143q21 2 33 16.5t22 50.5l76 287q2 7 4 18t2 16q-1 8 -6.5 15.5t-16.5 14.5h142q69 0 100 -21t32 -66q0 -51 -39 -85t-96 -38l46 -98q24 -53 50.5 -78t61.5 -29q-25 -5 -40.5 -6.5t-25.5 -1.5q-43 0 -71 35t-61 123l-32 83
q5 -2 11 -2.5t12 -0.5q43 0 76.5 24.5t33.5 62.5q0 25 -18 38.5t-59 14.5q-8 0 -15.5 -1t-15.5 -2z" />
    <glyph glyph-name="copyright" unicode="&#xa9;" horiz-adv-x="819" 
d="M457 716q144 0 244.5 -101t100.5 -245q0 -158 -115 -272t-273 -114q-148 0 -249 100t-101 246q0 158 116 272t277 114zM446 673q-135 0 -234 -101.5t-98 -239.5q0 -128 87.5 -216.5t214.5 -88.5q137 0 236 100.5t100 239.5q0 128 -88.5 217t-217.5 89zM595 553l-6 -101
q-20 33 -42.5 47t-61.5 14q-86 0 -132.5 -56t-46.5 -131q0 -64 35.5 -99t97.5 -35q47 0 85 16t69 48l-37 -95q-29 -13 -61.5 -19t-65.5 -6q-92 0 -145 48.5t-52 133.5q-1 107 77.5 178t188.5 71q23 0 48.5 -4t48.5 -10z" />
    <glyph glyph-name="trademark" unicode="&#x2122;" horiz-adv-x="832" 
d="M268 657l-54 -252q-2 -8 -3.5 -16t-0.5 -11q0 -10 4 -16.5t13 -10.5h-115q13 2 21 11t16 45l54 250h-48q-38 0 -53.5 -5t-31.5 -16l38 71q6 -4 15.5 -6t22.5 -1h218q10 0 21.5 1t22.5 4l-35 -69q-7 11 -15 16t-23 5h-67zM597 443l126 205q17 28 20 35t6 17h105
q-14 -3 -21.5 -15.5t-8.5 -38.5l-17 -239q-3 -33 5 -43t26 -13h-126q14 1 20.5 11t10.5 44l21 225l-179 -289l-15 16q-10 9 -16 20t-9 27l-55 227l-72 -225q-4 -11 -5.5 -19.5t-1.5 -13.5q0 -6 2.5 -12t9.5 -11h-97q11 6 18 15.5t19 41.5l84 238q2 6 4 14t2 13q0 6 -4.5 12
t-14.5 15h103l-1 -12l9 -35z" />
    <glyph glyph-name="afii10051" horiz-adv-x="731" 
d="M269 633h-100q-65 -1 -86 -8t-43 -23l55 108q11 -5 29 -7.5t43 -2.5h393q19 0 41 1.5t42 5.5l-51 -108q-10 18 -23 26t-49 8h-157l-49 -225q47 16 101 27t93 12q74 0 120 -42.5t47 -129.5q0 -78 -23.5 -163t-61.5 -153q-45 -80 -99.5 -117t-114.5 -37q-14 0 -29 3.5
t-33 10.5q107 21 183 150.5t76 278.5q-1 64 -31.5 93.5t-91.5 29.5q-39 -1 -70.5 -9t-81.5 -29l-45 -209q-4 -16 -6 -36t-2 -33q-1 -24 6 -36t21 -19h-189q29 10 45.5 35.5t31.5 91.5z" />
    <glyph glyph-name="afii10051" unicode="&#x402;" horiz-adv-x="731" 
d="M269 633h-100q-65 -1 -86 -8t-43 -23l55 108q11 -5 29 -7.5t43 -2.5h393q19 0 41 1.5t42 5.5l-51 -108q-10 18 -23 26t-49 8h-157l-49 -225q47 16 101 27t93 12q74 0 120 -42.5t47 -129.5q0 -78 -23.5 -163t-61.5 -153q-45 -80 -99.5 -117t-114.5 -37q-14 0 -29 3.5
t-33 10.5q107 21 183 150.5t76 278.5q-1 64 -31.5 93.5t-91.5 29.5q-39 -1 -70.5 -9t-81.5 -29l-45 -209q-4 -16 -6 -36t-2 -33q-1 -24 6 -36t21 -19h-189q29 10 45.5 35.5t31.5 91.5z" />
    <glyph glyph-name="afii10099" horiz-adv-x="564" 
d="M270 724l-26 -121h180l-9 -53h-182l-32 -148q36 43 82.5 66t105.5 23q77 -1 113 -41.5t36 -114.5t-23.5 -171t-60.5 -172q-49 -98 -112 -143.5t-137 -45.5q-13 1 -24.5 1.5t-22.5 2.5q73 12 137 87.5t103 186.5q21 61 33 126t13 111q0 56 -21 82t-69 26
q-68 0 -117.5 -46.5t-64.5 -117.5l-36 -163q-4 -17 -6 -31t-2 -21q0 -14 6 -25.5t20 -21.5h-166q22 12 35.5 31.5t24.5 67.5l96 451h-105l10 53h106l7 31q5 22 -3 37.5t-29 28.5h40q34 0 56 5.5t44 18.5z" />
    <glyph glyph-name="afii10099" unicode="&#x452;" horiz-adv-x="564" 
d="M270 724l-26 -121h180l-9 -53h-182l-32 -148q36 43 82.5 66t105.5 23q77 -1 113 -41.5t36 -114.5t-23.5 -171t-60.5 -172q-49 -98 -112 -143.5t-137 -45.5q-13 1 -24.5 1.5t-22.5 2.5q73 12 137 87.5t103 186.5q21 61 33 126t13 111q0 56 -21 82t-69 26
q-68 0 -117.5 -46.5t-64.5 -117.5l-36 -163q-4 -17 -6 -31t-2 -21q0 -14 6 -25.5t20 -21.5h-166q22 12 35.5 31.5t24.5 67.5l96 451h-105l10 53h106l7 31q5 22 -3 37.5t-29 28.5h40q34 0 56 5.5t44 18.5z" />
    <glyph glyph-name="notequal" 
d="M42 467h328l110 158l45 -31l-89 -127h169v-55h-207l-87 -124h294v-55h-333l-108 -156l-45 32l87 124h-164v55h202l86 124h-288v55z" />
    <glyph glyph-name="glyph260" horiz-adv-x="362" 
d="M400 903l45 -74l-284 -78z" />
    <glyph glyph-name="afii10052" horiz-adv-x="454" 
d="M530 700l-21 -129q-11 31 -37 44t-94 14q-24 0 -52 -1.5t-51 -3.5l-112 -521q-7 -31 -7.5 -39t-0.5 -18q0 -19 7 -29.5t23 -16.5h-188q30 11 47 39.5t30 88.5l95 448q4 23 6.5 38.5t2.5 29.5q0 20 -6.5 33t-20.5 23h379zM469 903l45 -74l-284 -78z" />
    <glyph glyph-name="afii10052" unicode="&#x403;" horiz-adv-x="454" 
d="M530 700l-21 -129q-11 31 -37 44t-94 14q-24 0 -52 -1.5t-51 -3.5l-112 -521q-7 -31 -7.5 -39t-0.5 -18q0 -19 7 -29.5t23 -16.5h-188q30 11 47 39.5t30 88.5l95 448q4 23 6.5 38.5t2.5 29.5q0 20 -6.5 33t-20.5 23h379zM469 903l45 -74l-284 -78z" />
    <glyph glyph-name="afii10068" unicode="&#xe3;" horiz-adv-x="445" 
d="M109 376l21 87q30 14 61 20.5t69 7.5q81 -1 126 -27t45 -82q0 -51 -33.5 -85.5t-126.5 -64.5q-110 -36 -132.5 -58t-22.5 -54q0 -36 24.5 -53.5t72.5 -17.5t98.5 19.5t93.5 55.5l-29 -99q-45 -21 -92.5 -31t-88.5 -10q-74 0 -123.5 32t-49.5 100q0 49 29 81.5t146 70.5
q85 27 112 49.5t28 57.5q0 23 -22.5 37t-62.5 14q-32 0 -67 -12t-76 -38z" />
    <glyph glyph-name="afii10068" unicode="&#x433;" horiz-adv-x="445" 
d="M109 376l21 87q30 14 61 20.5t69 7.5q81 -1 126 -27t45 -82q0 -51 -33.5 -85.5t-126.5 -64.5q-110 -36 -132.5 -58t-22.5 -54q0 -36 24.5 -53.5t72.5 -17.5t98.5 19.5t93.5 55.5l-29 -99q-45 -21 -92.5 -31t-88.5 -10q-74 0 -123.5 32t-49.5 100q0 49 29 81.5t146 70.5
q85 27 112 49.5t28 57.5q0 23 -22.5 37t-62.5 14q-32 0 -67 -12t-76 -38z" />
    <glyph glyph-name="glyph239" horiz-adv-x="524" 
d="M470 718l50 -68l-268 -99z" />
    <glyph glyph-name="afii10100" unicode="&#x192;" horiz-adv-x="445" 
d="M109 376l21 87q30 14 61 20.5t69 7.5q81 -1 126 -27t45 -82q0 -51 -33.5 -85.5t-126.5 -64.5q-110 -36 -132.5 -58t-22.5 -54q0 -36 24.5 -53.5t72.5 -17.5t98.5 19.5t93.5 55.5l-29 -99q-45 -21 -92.5 -31t-88.5 -10q-74 0 -123.5 32t-49.5 100q0 49 29 81.5t146 70.5
q85 27 112 49.5t28 57.5q0 23 -22.5 37t-62.5 14q-32 0 -67 -12t-76 -38zM431 718l50 -68l-268 -99z" />
    <glyph glyph-name="afii10100" unicode="&#x453;" horiz-adv-x="445" 
d="M109 376l21 87q30 14 61 20.5t69 7.5q81 -1 126 -27t45 -82q0 -51 -33.5 -85.5t-126.5 -64.5q-110 -36 -132.5 -58t-22.5 -54q0 -36 24.5 -53.5t72.5 -17.5t98.5 19.5t93.5 55.5l-29 -99q-45 -21 -92.5 -31t-88.5 -10q-74 0 -123.5 32t-49.5 100q0 49 29 81.5t146 70.5
q85 27 112 49.5t28 57.5q0 23 -22.5 37t-62.5 14q-32 0 -67 -12t-76 -38zM431 718l50 -68l-268 -99z" />
    <glyph glyph-name="infinity" horiz-adv-x="762" 
d="M40 350q0 68 48.5 115t118.5 47q47 0 89.5 -25.5t94.5 -87.5q52 63 93.5 88t90.5 25q74 0 120.5 -49t46.5 -113q0 -69 -49 -115.5t-118 -46.5q-48 0 -90.5 25t-93.5 88q-53 -64 -94.5 -88.5t-89.5 -24.5q-75 0 -121 48.5t-46 113.5zM120 350q0 -44 24 -73t63 -29
q36 0 72.5 25.5t75.5 76.5q-39 50 -75.5 76t-72.5 26q-39 0 -63 -29t-24 -73zM662 350q0 43 -24.5 72t-62.5 30q-37 0 -73.5 -26t-74.5 -76q38 -51 74.5 -76.5t73.5 -25.5q38 0 62 28.5t25 73.5z" />
    <glyph glyph-name="plusminus" unicode="&#xb1;" 
d="M109 39v70h466v-70h-466zM377 167h-70v192h-198v70h198v202h70v-202h198v-70h-198v-192z" />
    <glyph glyph-name="lessequal" 
d="M66 406l512 324l30 -49l-431 -275l431 -275l-30 -49zM27 267l30 49l510 -322l-30 -49z" />
    <glyph glyph-name="greaterequal" 
d="M580 406l-512 -324l-30 49l431 275l-431 275l30 49zM619 267l-510 -322l-30 49l510 322z" />
    <glyph glyph-name="afii10103" unicode="&#xb3;" horiz-adv-x="248" 
d="M219 59l-66 -72q-7 -1 -13 -2t-17 -1q-43 0 -63.5 17.5t-20.5 57.5q0 9 1 19.5t8 41.5l61 287q2 12 3 17t1 9q0 14 -10 25.5t-24 16.5h47q26 -1 46.5 5.5t44.5 19.5l-70 -332q-8 -35 -10 -51t-2 -27q0 -21 10 -31.5t31 -10.5q12 -1 22.5 2t20.5 9zM211 689
q20 0 33.5 -14.5t14.5 -41.5q0 -41 -19.5 -63.5t-45.5 -22.5q-24 0 -37 14.5t-12 41.5q-1 38 19 62t47 24z" />
    <glyph glyph-name="afii10103" unicode="&#x456;" horiz-adv-x="248" 
d="M219 59l-66 -72q-7 -1 -13 -2t-17 -1q-43 0 -63.5 17.5t-20.5 57.5q0 9 1 19.5t8 41.5l61 287q2 12 3 17t1 9q0 14 -10 25.5t-24 16.5h47q26 -1 46.5 5.5t44.5 19.5l-70 -332q-8 -35 -10 -51t-2 -27q0 -21 10 -31.5t31 -10.5q12 -1 22.5 2t20.5 9zM211 689
q20 0 33.5 -14.5t14.5 -41.5q0 -41 -19.5 -63.5t-45.5 -22.5q-24 0 -37 14.5t-12 41.5q-1 38 19 62t47 24z" />
    <glyph glyph-name="mu" unicode="&#xb5;" horiz-adv-x="538" 
d="M508 60l-62 -68q-9 -1 -16.5 -1.5t-13.5 -1.5q-34 0 -57.5 19t-21.5 49l1 18q-31 -45 -74.5 -68t-89.5 -23q-29 0 -48 9t-30 29l-38 -232h-85l105 490l28 143q3 19 -4.5 31.5t-25.5 20.5h34q32 -1 54.5 4.5t43.5 19.5l-72 -335q-7 -31 -7.5 -37t-0.5 -10
q0 -34 19.5 -48.5t56.5 -14.5q65 0 107 45t58 121l41 199q4 20 -3 33.5t-27 22.5h35q34 -1 55.5 5t41.5 19l-76 -353q-6 -27 -7 -35t-1 -15q0 -22 10 -33t28 -11q7 0 19 2t23 6z" />
    <glyph glyph-name="afii10098" unicode="&#xb4;" horiz-adv-x="320" 
d="M385 498l-23 -104q-8 6 -19 8t-33 3h-124l-50 -233q-4 -18 -7.5 -42t-3.5 -35q0 -20 10 -30t30 -10q10 0 20 2t22 7l-65 -71q-8 -1 -17 -2t-17 -1q-37 0 -57.5 18.5t-20.5 53.5q0 11 1 23t7 38l58 268q4 22 4.5 26.5t1.5 9.5q0 17 -8.5 29.5t-24.5 18.5h256q23 0 36.5 6
t23.5 17z" />
    <glyph glyph-name="afii10098" unicode="&#x491;" horiz-adv-x="320" 
d="M385 498l-23 -104q-8 6 -19 8t-33 3h-124l-50 -233q-4 -18 -7.5 -42t-3.5 -35q0 -20 10 -30t30 -10q10 0 20 2t22 7l-65 -71q-8 -1 -17 -2t-17 -1q-37 0 -57.5 18.5t-20.5 53.5q0 11 1 23t7 38l58 268q4 22 4.5 26.5t1.5 9.5q0 17 -8.5 29.5t-24.5 18.5h256q23 0 36.5 6
t23.5 17z" />
    <glyph glyph-name="afii10057" unicode="&#xa3;" horiz-adv-x="289" 
d="M150 700h191q-32 -12 -49 -40.5t-29 -87.5l-117 -550q-32 -150 -74 -199t-145 -49q-16 0 -25 1t-19 3q69 26 106.5 80.5t69.5 202.5l110 514q4 21 6.5 38t2.5 31q0 21 -7.5 34.5t-20.5 21.5z" />
    <glyph glyph-name="afii10057" unicode="&#x408;" horiz-adv-x="289" 
d="M150 700h191q-32 -12 -49 -40.5t-29 -87.5l-117 -550q-32 -150 -74 -199t-145 -49q-16 0 -25 1t-19 3q69 26 106.5 80.5t69.5 202.5l110 514q4 21 6.5 38t2.5 31q0 21 -7.5 34.5t-20.5 21.5z" />
    <glyph glyph-name="afii10053" unicode="&#xaa;" horiz-adv-x="642" 
d="M630 694l-10 -139q-23 43 -61.5 64t-96.5 21q-109 0 -185.5 -62t-102.5 -164h267q9 0 18 0.5t18 2.5l-23 -105q-12 14 -28 19.5t-42 6.5h-225q-2 -9 -2 -18v-18q0 -110 59 -173t161 -62q63 0 122.5 21t109.5 66l-49 -130q-51 -21 -101 -30.5t-98 -9.5q-142 0 -224 81.5
t-82 222.5q-1 170 114.5 299t311.5 129q42 0 76 -5.5t73 -16.5z" />
    <glyph glyph-name="afii10053" unicode="&#x404;" horiz-adv-x="642" 
d="M630 694l-10 -139q-23 43 -61.5 64t-96.5 21q-109 0 -185.5 -62t-102.5 -164h267q9 0 18 0.5t18 2.5l-23 -105q-12 14 -28 19.5t-42 6.5h-225q-2 -9 -2 -18v-18q0 -110 59 -173t161 -62q63 0 122.5 21t109.5 66l-49 -130q-51 -21 -101 -30.5t-98 -9.5q-142 0 -224 81.5
t-82 222.5q-1 170 114.5 299t311.5 129q42 0 76 -5.5t73 -16.5z" />
    <glyph glyph-name="afii10101" unicode="&#xba;" horiz-adv-x="452" 
d="M414 119l-43 -107q-32 -15 -64.5 -21.5t-72.5 -6.5q-107 0 -157.5 50.5t-50.5 134.5q0 134 90 228t214 94q57 0 89.5 -25t33.5 -61q0 -30 -21 -48t-54 -18q-11 -1 -21 1.5t-20 8.5q9 7 14.5 16.5t5.5 19.5q0 16 -15 28.5t-41 12.5q-55 0 -101.5 -40.5t-64.5 -101.5h151
q9 -1 18 0t19 3l-20 -92q-12 14 -28 19.5t-43 6.5h-109q-2 -9 -3 -15.5t0 -12.5q-1 -64 34 -99t92 -35q44 0 88.5 16.5t79.5 43.5z" />
    <glyph glyph-name="afii10101" unicode="&#x454;" horiz-adv-x="452" 
d="M414 119l-43 -107q-32 -15 -64.5 -21.5t-72.5 -6.5q-107 0 -157.5 50.5t-50.5 134.5q0 134 90 228t214 94q57 0 89.5 -25t33.5 -61q0 -30 -21 -48t-54 -18q-11 -1 -21 1.5t-20 8.5q9 7 14.5 16.5t5.5 19.5q0 16 -15 28.5t-41 12.5q-55 0 -101.5 -40.5t-64.5 -101.5h151
q9 -1 18 0t19 3l-20 -92q-12 14 -28 19.5t-43 6.5h-109q-2 -9 -3 -15.5t0 -12.5q-1 -64 34 -99t92 -35q44 0 88.5 16.5t79.5 43.5z" />
    <glyph glyph-name="glyph263" horiz-adv-x="283" 
d="M161 887q20 0 32 -12t12 -37q0 -36 -19.5 -59t-44.5 -23q-19 0 -31.5 12t-12.5 37q0 35 17 58.5t47 23.5zM331 887q20 0 32 -12t12 -37q-1 -36 -20 -59t-44 -23q-19 -1 -32 11.5t-12 37.5q0 35 17 58.5t47 23.5z" />
    <glyph glyph-name="afii10056" unicode="&#xaf;" horiz-adv-x="292" 
d="M185 0h-188q28 10 45 37.5t31 90.5l96 448q4 21 6.5 36.5t2.5 31.5q0 22 -6.5 34.5t-20.5 21.5h189q-31 -11 -47 -38t-29 -89l-97 -449q-5 -22 -7 -38.5t-2 -29.5q0 -19 6 -32.5t21 -23.5zM182 886q20 0 32 -12t12 -37q0 -36 -19.5 -59t-44.5 -23q-19 0 -31.5 12
t-12.5 37q0 35 17 58.5t47 23.5zM352 886q20 0 32 -12t12 -37q-1 -36 -20 -59t-44 -23q-19 -1 -32 11.5t-12 37.5q0 35 17 58.5t47 23.5z" />
    <glyph glyph-name="afii10056" unicode="&#x407;" horiz-adv-x="292" 
d="M185 0h-188q28 10 45 37.5t31 90.5l96 448q4 21 6.5 36.5t2.5 31.5q0 22 -6.5 34.5t-20.5 21.5h189q-31 -11 -47 -38t-29 -89l-97 -449q-5 -22 -7 -38.5t-2 -29.5q0 -19 6 -32.5t21 -23.5zM182 886q20 0 32 -12t12 -37q0 -36 -19.5 -59t-44.5 -23q-19 0 -31.5 12
t-12.5 37q0 35 17 58.5t47 23.5zM352 886q20 0 32 -12t12 -37q-1 -36 -20 -59t-44 -23q-19 -1 -32 11.5t-12 37.5q0 35 17 58.5t47 23.5z" />
    <glyph glyph-name="afii10104" unicode="&#xbf;" horiz-adv-x="249" 
d="M219 59l-66 -72q-7 -1 -13 -2t-17 -1q-43 0 -63.5 17.5t-20.5 57.5q0 9 1 19.5t8 41.5l61 287q2 12 3 17t1 9q0 14 -10 25.5t-24 16.5h47q26 -1 46.5 5.5t44.5 19.5l-70 -332q-8 -35 -10 -51t-2 -27q0 -21 10 -31.5t31 -10.5q12 -1 22.5 2t20.5 9zM126 697q20 0 32 -12
t12 -37q-1 -36 -20 -59t-44 -23q-19 0 -31.5 12t-12.5 37q0 35 17 58.5t47 23.5zM266 697q20 0 32 -12t12 -37q0 -36 -19.5 -59t-44.5 -23q-19 0 -32 12t-12 37q0 35 17 58.5t47 23.5z" />
    <glyph glyph-name="afii10104" unicode="&#x457;" horiz-adv-x="249" 
d="M219 59l-66 -72q-7 -1 -13 -2t-17 -1q-43 0 -63.5 17.5t-20.5 57.5q0 9 1 19.5t8 41.5l61 287q2 12 3 17t1 9q0 14 -10 25.5t-24 16.5h47q26 -1 46.5 5.5t44.5 19.5l-70 -332q-8 -35 -10 -51t-2 -27q0 -21 10 -31.5t31 -10.5q12 -1 22.5 2t20.5 9zM126 697q20 0 32 -12
t12 -37q-1 -36 -20 -59t-44 -23q-19 0 -31.5 12t-12.5 37q0 35 17 58.5t47 23.5zM266 697q20 0 32 -12t12 -37q0 -36 -19.5 -59t-44.5 -23q-19 0 -32 12t-12 37q0 35 17 58.5t47 23.5z" />
    <glyph glyph-name="afii10058" unicode="&#x160;" horiz-adv-x="962" 
d="M-50 -7v113q10 -13 24 -19.5t29 -6.5q79 0 151.5 196.5t72.5 338.5q0 33 -12.5 53.5t-36.5 31.5h527q-30 -11 -47 -38.5t-30 -88.5l-34 -157q29 6 57 10t57 4q111 0 165 -49.5t54 -135.5q0 -114 -74 -179.5t-222 -65.5h-269q28 10 46 39t31 89l104 496h-227l-19 -100
q-50 -263 -128.5 -401.5t-175.5 -138.5q-11 0 -21.5 2.5t-21.5 6.5zM581 348l-58 -266q22 -11 48 -16.5t61 -4.5q87 0 140 47.5t53 123.5q0 60 -39 95.5t-116 35.5q-22 0 -44 -4t-45 -11z" />
    <glyph glyph-name="afii10058" unicode="&#x409;" horiz-adv-x="962" 
d="M-50 -7v113q10 -13 24 -19.5t29 -6.5q79 0 151.5 196.5t72.5 338.5q0 33 -12.5 53.5t-36.5 31.5h527q-30 -11 -47 -38.5t-30 -88.5l-34 -157q29 6 57 10t57 4q111 0 165 -49.5t54 -135.5q0 -114 -74 -179.5t-222 -65.5h-269q28 10 46 39t31 89l104 496h-227l-19 -100
q-50 -263 -128.5 -401.5t-175.5 -138.5q-11 0 -21.5 2.5t-21.5 6.5zM581 348l-58 -266q22 -11 48 -16.5t61 -4.5q87 0 140 47.5t53 123.5q0 60 -39 95.5t-116 35.5q-22 0 -44 -4t-45 -11z" />
    <glyph glyph-name="afii10106" unicode="&#x161;" horiz-adv-x="770" 
d="M499 496l-69 -312q-5 -22 -7.5 -39t-2.5 -29q-1 -35 21 -52.5t60 -17.5q64 0 102 35.5t38 92.5q0 44 -25 69t-78 25q-20 -1 -33.5 -2.5t-27.5 -4.5l58 67q15 3 28.5 4.5t27.5 2.5q67 0 105.5 -37.5t38.5 -106.5q0 -89 -73 -148t-189 -59q-66 0 -103 29.5t-37 87.5
q-1 13 2.5 35t8.5 44l53 241q-75 0 -120 -35.5t-79 -134.5l-30 -88q-38 -109 -74.5 -144t-87.5 -35q-31 0 -50 18.5t-19 49.5q0 24 14.5 44t38.5 28q-1 -20 7.5 -31.5t24.5 -11.5q24 0 43.5 25t44.5 96l31 90q24 72 58 113t91 62q22 8 48.5 12.5t88.5 6.5q22 0 38 2.5
t34 7.5z" />
    <glyph glyph-name="afii10106" unicode="&#x459;" horiz-adv-x="770" 
d="M499 496l-69 -312q-5 -22 -7.5 -39t-2.5 -29q-1 -35 21 -52.5t60 -17.5q64 0 102 35.5t38 92.5q0 44 -25 69t-78 25q-20 -1 -33.5 -2.5t-27.5 -4.5l58 67q15 3 28.5 4.5t27.5 2.5q67 0 105.5 -37.5t38.5 -106.5q0 -89 -73 -148t-189 -59q-66 0 -103 29.5t-37 87.5
q-1 13 2.5 35t8.5 44l53 241q-75 0 -120 -35.5t-79 -134.5l-30 -88q-38 -109 -74.5 -144t-87.5 -35q-31 0 -50 18.5t-19 49.5q0 24 14.5 44t38.5 28q-1 -20 7.5 -31.5t24.5 -11.5q24 0 43.5 25t44.5 96l31 90q24 72 58 113t91 62q22 8 48.5 12.5t88.5 6.5q22 0 38 2.5
t34 7.5z" />
    <glyph glyph-name="afii10059" unicode="&#x152;" horiz-adv-x="1066" 
d="M586 332h-373l-46 -208q-5 -21 -7 -38t-2 -30q0 -19 6 -32.5t21 -23.5h-188q31 11 48 40.5t29 86.5l95 449q5 27 7 40.5t2 27.5q-1 22 -7 34.5t-20 21.5h190q-30 -11 -47 -36.5t-30 -90.5l-35 -165h373l37 168q4 19 6.5 36t2.5 31q0 20 -6.5 33.5t-20.5 23.5h188
q-30 -11 -47 -38.5t-30 -88.5l-34 -157q29 6 57 9.5t57 4.5q111 0 165 -49.5t54 -135.5q0 -114 -74 -179.5t-222 -65.5h-269q28 10 46 39t31 89zM685 348l-58 -266q22 -11 48 -16.5t61 -4.5q87 0 140 47.5t53 123.5q-1 60 -39.5 95.5t-115.5 35.5q-22 0 -44 -4t-45 -11z" />
    <glyph glyph-name="afii10059" unicode="&#x40a;" horiz-adv-x="1066" 
d="M586 332h-373l-46 -208q-5 -21 -7 -38t-2 -30q0 -19 6 -32.5t21 -23.5h-188q31 11 48 40.5t29 86.5l95 449q5 27 7 40.5t2 27.5q-1 22 -7 34.5t-20 21.5h190q-30 -11 -47 -36.5t-30 -90.5l-35 -165h373l37 168q4 19 6.5 36t2.5 31q0 20 -6.5 33.5t-20.5 23.5h188
q-30 -11 -47 -38.5t-30 -88.5l-34 -157q29 6 57 9.5t57 4.5q111 0 165 -49.5t54 -135.5q0 -114 -74 -179.5t-222 -65.5h-269q28 10 46 39t31 89zM685 348l-58 -266q22 -11 48 -16.5t61 -4.5q87 0 140 47.5t53 123.5q-1 60 -39.5 95.5t-115.5 35.5q-22 0 -44 -4t-45 -11z" />
    <glyph glyph-name="afii10107" unicode="&#x153;" horiz-adv-x="798" 
d="M153 0h-165q21 11 35 30t25 69l63 292q4 22 5 26.5t1 9.5q-1 17 -9 29.5t-24 18.5h50q25 0 45.5 5.5t42.5 17.5l-47 -209h227l22 102q4 22 4.5 26.5t1.5 9.5q0 17 -8.5 29.5t-24.5 18.5h50q25 0 45.5 5.5t42.5 17.5l-71 -314q-6 -24 -8 -40.5t-2 -27.5q0 -32 20.5 -50.5
t60.5 -18.5q64 0 102 35.5t38 91.5q0 44 -25 68.5t-78 24.5q-17 0 -31 -1.5t-30 -4.5l58 67q15 3 28.5 4.5t27.5 2.5q67 0 105.5 -37.5t38.5 -106.5q0 -89 -73 -148t-189 -59q-67 0 -103.5 29.5t-36.5 87.5q0 13 3 34.5t8 44.5l9 42h-226l-26 -123q-3 -13 -5.5 -30t-2.5 -23
q0 -13 6.5 -25t19.5 -21z" />
    <glyph glyph-name="afii10107" unicode="&#x45a;" horiz-adv-x="798" 
d="M153 0h-165q21 11 35 30t25 69l63 292q4 22 5 26.5t1 9.5q-1 17 -9 29.5t-24 18.5h50q25 0 45.5 5.5t42.5 17.5l-47 -209h227l22 102q4 22 4.5 26.5t1.5 9.5q0 17 -8.5 29.5t-24.5 18.5h50q25 0 45.5 5.5t42.5 17.5l-71 -314q-6 -24 -8 -40.5t-2 -27.5q0 -32 20.5 -50.5
t60.5 -18.5q64 0 102 35.5t38 91.5q0 44 -25 68.5t-78 24.5q-17 0 -31 -1.5t-30 -4.5l58 67q15 3 28.5 4.5t27.5 2.5q67 0 105.5 -37.5t38.5 -106.5q0 -89 -73 -148t-189 -59q-67 0 -103.5 29.5t-36.5 87.5q0 13 3 34.5t8 44.5l9 42h-226l-26 -123q-3 -13 -5.5 -30t-2.5 -23
q0 -13 6.5 -25t19.5 -21z" />
    <glyph glyph-name="afii10105" unicode="&#xbc;" horiz-adv-x="239" 
d="M221 500l-108 -505q-24 -111 -62 -153t-113 -42q-8 0 -19 1.5t-24 3.5q51 15 81.5 58t54.5 155l77 364q3 15 5 30t3 21q-1 15 -9.5 26t-23.5 16h48q24 0 46 6t44 19zM214 690q20 0 34 -14.5t14 -41.5q0 -41 -19.5 -63.5t-45.5 -22.5q-24 0 -36.5 14.5t-12.5 41.5
q0 38 19.5 62t46.5 24z" />
    <glyph glyph-name="afii10105" unicode="&#x458;" horiz-adv-x="239" 
d="M221 500l-108 -505q-24 -111 -62 -153t-113 -42q-8 0 -19 1.5t-24 3.5q51 15 81.5 58t54.5 155l77 364q3 15 5 30t3 21q-1 15 -9.5 26t-23.5 16h48q24 0 46 6t44 19zM214 690q20 0 34 -14.5t14 -41.5q0 -41 -19.5 -63.5t-45.5 -22.5q-24 0 -36.5 14.5t-12.5 41.5
q0 38 19.5 62t46.5 24z" />
    <glyph glyph-name="afii10054" unicode="&#xbd;" horiz-adv-x="548" 
d="M527 690l-14 -139q-19 44 -60.5 67t-94.5 23q-60 0 -99 -28.5t-39 -74.5q0 -33 22 -62.5t123 -91.5q77 -49 106.5 -87.5t29.5 -94.5q0 -95 -75 -156.5t-218 -61.5q-49 0 -88.5 8t-78.5 23l-27 144q43 -48 101 -74t122 -26q71 0 116.5 34.5t45.5 95.5q0 40 -27 68t-109 78
q-92 55 -118.5 94.5t-26.5 88.5q0 92 70.5 144.5t181.5 53.5q40 0 77 -6.5t80 -19.5z" />
    <glyph glyph-name="afii10054" unicode="&#x405;" horiz-adv-x="548" 
d="M527 690l-14 -139q-19 44 -60.5 67t-94.5 23q-60 0 -99 -28.5t-39 -74.5q0 -33 22 -62.5t123 -91.5q77 -49 106.5 -87.5t29.5 -94.5q0 -95 -75 -156.5t-218 -61.5q-49 0 -88.5 8t-78.5 23l-27 144q43 -48 101 -74t122 -26q71 0 116.5 34.5t45.5 95.5q0 40 -27 68t-109 78
q-92 55 -118.5 94.5t-26.5 88.5q0 92 70.5 144.5t181.5 53.5q40 0 77 -6.5t80 -19.5z" />
    <glyph glyph-name="logicalnot" unicode="&#xac;" 
d="M439 10v206h-358v69h436v-275h-78z" />
    <glyph glyph-name="radical" horiz-adv-x="745" 
d="M77 427h258l76 -438l320 772h140v-47h-103l-384 -925h-42l-105 587h-160v51z" />
    <glyph glyph-name="florin" horiz-adv-x="448" 
d="M299 499h126q-17 0 11 -0.5t47 10.5l-32 -107q-8 15 -20 21.5t-32 7.5h-123l-87 -289q-63 -207 -126.5 -287.5t-144.5 -80.5q-21 0 -37 3t-31 10l60 64q8 -5 16 -7.5t16 -2.5q44 0 75 59t86 247l83 284h-55l77 68l19 54q29 84 92.5 123.5t154.5 39.5q27 0 51 -3.5
t48 -8.5l-77 -82q-10 15 -26 23t-38 8q-48 0 -79.5 -34.5t-46.5 -92.5z" />
    <glyph glyph-name="approxequal" horiz-adv-x="650" 
d="M128 364l-43 22q32 59 70 88.5t91 29.5q30 -1 55.5 -8t66.5 -30q35 -21 55 -27.5t37 -6.5q23 0 44.5 21t38.5 59l43 -21q-37 -68 -70.5 -95t-76.5 -27q-28 0 -50.5 6t-60.5 28q-45 25 -66 32.5t-39 7.5q-27 0 -49.5 -18.5t-45.5 -60.5zM128 184l-43 22q32 59 70 88t91 30
q30 -1 55.5 -8t66.5 -30q35 -21 55 -28t37 -6q23 0 44.5 21t38.5 59l43 -21q-37 -68 -70.5 -95t-76.5 -27q-28 0 -50.5 6t-60.5 28q-45 25 -66 32.5t-39 7.5q-27 0 -49.5 -18.5t-45.5 -60.5z" />
    <glyph glyph-name="Delta" horiz-adv-x="623" 
d="M302 700h164l137 -700h-683l391 633q13 21 11 39.5t-20 27.5zM376 609l-322 -534h420z" />
    <glyph glyph-name="guillemotleft" unicode="&#xab;" horiz-adv-x="377" 
d="M125 276l67 -187h-31l-126 190l185 177h46zM261 276l67 -187h-31l-126 190l186 177h45z" />
    <glyph glyph-name="guillemotright" unicode="&#xbb;" horiz-adv-x="377" 
d="M139 269l-67 187h31l126 -190l-186 -177h-45zM275 269l-67 187h31l126 -190l-185 -177h-46z" />
    <glyph glyph-name="ellipsis" unicode="&#x2026;" horiz-adv-x="856" 
d="M114 133q19 0 32.5 -14.5t13.5 -41.5q0 -36 -17.5 -61t-46.5 -25q-22 0 -34.5 14t-12.5 43q0 39 19 62t46 23zM399 133q19 0 32.5 -14.5t14.5 -41.5q0 -37 -17.5 -61.5t-45.5 -24.5q-22 0 -35 13.5t-13 42.5q0 40 19 63t45 23zM685 133q19 0 33 -14.5t14 -41.5
q0 -37 -17.5 -61.5t-45.5 -24.5q-24 0 -36 15t-12 42q0 39 19 62t45 23z" />
    <glyph glyph-name="afii10060" horiz-adv-x="740" 
d="M269 633h-100q-65 -1 -86 -8t-43 -23l55 108q11 -5 29 -7.5t43 -2.5h393q19 0 41 1.5t42 5.5l-51 -108q-10 18 -23 26t-49 8h-157l-49 -223q52 18 98 28t88 10q93 0 138.5 -36t45.5 -98q0 -13 -2 -26.5t-5 -29.5l-30 -134q-5 -20 -7 -37t-2 -30q-1 -21 5.5 -34.5
t21.5 -22.5h-188q31 12 48 41.5t29 85.5l20 99q3 15 4.5 28.5t1.5 25.5q0 53 -27.5 72.5t-84.5 19.5q-42 0 -82 -8.5t-87 -27.5l-46 -212q-4 -16 -6 -36t-2 -33q-1 -24 6 -36t21 -19h-189q29 10 45.5 35.5t31.5 91.5z" />
    <glyph glyph-name="afii10060" unicode="&#x40b;" horiz-adv-x="740" 
d="M269 633h-100q-65 -1 -86 -8t-43 -23l55 108q11 -5 29 -7.5t43 -2.5h393q19 0 41 1.5t42 5.5l-51 -108q-10 18 -23 26t-49 8h-157l-49 -223q52 18 98 28t88 10q93 0 138.5 -36t45.5 -98q0 -13 -2 -26.5t-5 -29.5l-30 -134q-5 -20 -7 -37t-2 -30q-1 -21 5.5 -34.5
t21.5 -22.5h-188q31 12 48 41.5t29 85.5l20 99q3 15 4.5 28.5t1.5 25.5q0 53 -27.5 72.5t-84.5 19.5q-42 0 -82 -8.5t-87 -27.5l-46 -212q-4 -16 -6 -36t-2 -33q-1 -24 6 -36t21 -19h-189q29 10 45.5 35.5t31.5 91.5z" />
    <glyph glyph-name="afii10108" horiz-adv-x="576" 
d="M270 724l-26 -121h180l-9 -53h-182l-32 -148q36 43 82.5 66t105.5 23q64 0 98 -25.5t34 -76.5q0 -11 -1.5 -20t-11.5 -57l-31 -140q-8 -34 -10.5 -50t-1.5 -26q0 -21 10 -31.5t32 -10.5q10 0 21 2t22 8l-65 -71q-8 -1 -16 -1.5t-19 -1.5q-38 0 -58.5 18t-20.5 55
q-1 10 1.5 27.5t6.5 32.5l39 181q4 21 6 35t3 22q0 30 -18.5 47.5t-54.5 17.5q-69 0 -118 -46.5t-64 -117.5l-36 -163q-4 -17 -6 -31t-2 -21q0 -14 6 -25.5t20 -21.5h-166q22 12 35.5 31.5t24.5 67.5l96 451h-105l10 53h106l7 31q5 22 -3 37.5t-29 28.5h40q34 0 56 5.5
t44 18.5z" />
    <glyph glyph-name="afii10108" unicode="&#x45b;" horiz-adv-x="576" 
d="M270 724l-26 -121h180l-9 -53h-182l-32 -148q36 43 82.5 66t105.5 23q64 0 98 -25.5t34 -76.5q0 -11 -1.5 -20t-11.5 -57l-31 -140q-8 -34 -10.5 -50t-1.5 -26q0 -21 10 -31.5t32 -10.5q10 0 21 2t22 8l-65 -71q-8 -1 -16 -1.5t-19 -1.5q-38 0 -58.5 18t-20.5 55
q-1 10 1.5 27.5t6.5 32.5l39 181q4 21 6 35t3 22q0 30 -18.5 47.5t-54.5 17.5q-69 0 -118 -46.5t-64 -117.5l-36 -163q-4 -17 -6 -31t-2 -21q0 -14 6 -25.5t20 -21.5h-166q22 12 35.5 31.5t24.5 67.5l96 451h-105l10 53h106l7 31q5 22 -3 37.5t-29 28.5h40q34 0 56 5.5
t44 18.5z" />
    <glyph glyph-name="afii10061" horiz-adv-x="622" 
d="M185 0h-188q28 10 45 37.5t31 90.5l96 448q4 21 6.5 36.5t2.5 31.5q0 22 -6.5 34.5t-20.5 21.5h189q-31 -11 -47 -38t-29 -89l-97 -449q-5 -22 -7 -38.5t-2 -29.5q0 -19 6 -32.5t21 -23.5zM335 382l119 -218q40 -74 75 -112.5t79 -51.5q-21 -4 -34 -6t-34 -2
q-70 0 -97.5 21t-64.5 89l-149 269l277 267q11 10 15 17.5t4 14.5q0 8 -7.5 16.5t-18.5 13.5h182zM530 903l45 -74l-284 -78z" />
    <glyph glyph-name="afii10061" unicode="&#x40c;" horiz-adv-x="622" 
d="M185 0h-188q28 10 45 37.5t31 90.5l96 448q4 21 6.5 36.5t2.5 31.5q0 22 -6.5 34.5t-20.5 21.5h189q-31 -11 -47 -38t-29 -89l-97 -449q-5 -22 -7 -38.5t-2 -29.5q0 -19 6 -32.5t21 -23.5zM335 382l119 -218q40 -74 75 -112.5t79 -51.5q-21 -4 -34 -6t-34 -2
q-70 0 -97.5 21t-64.5 89l-149 269l277 267q11 10 15 17.5t4 14.5q0 8 -7.5 16.5t-18.5 13.5h182zM530 903l45 -74l-284 -78z" />
    <glyph glyph-name="afii10076" unicode="&#xea;" horiz-adv-x="482" 
d="M147 0h-159q21 13 32 28.5t17 41.5l73 337q2 9 3 15.5t1 10.5q0 13 -9.5 24.5t-24.5 17.5h47q26 0 46.5 6t44.5 19l-91 -430q-6 -26 -1 -42t21 -28zM186 256l137 126q33 30 45 44.5t12 25.5q0 10 -4 18t-12 15h157l-241 -210l27 -49q45 -83 84.5 -136t88.5 -90l-37 -6
q-56 -9 -96.5 16.5t-121.5 174.5z" />
    <glyph glyph-name="afii10076" unicode="&#x43a;" horiz-adv-x="482" 
d="M147 0h-159q21 13 32 28.5t17 41.5l73 337q2 9 3 15.5t1 10.5q0 13 -9.5 24.5t-24.5 17.5h47q26 0 46.5 6t44.5 19l-91 -430q-6 -26 -1 -42t21 -28zM186 256l137 126q33 30 45 44.5t12 25.5q0 10 -4 18t-12 15h157l-241 -210l27 -49q45 -83 84.5 -136t88.5 -90l-37 -6
q-56 -9 -96.5 16.5t-121.5 174.5z" />
    <glyph glyph-name="afii10109" horiz-adv-x="482" 
d="M147 0h-159q21 13 32 28.5t17 41.5l73 337q2 9 3 15.5t1 10.5q0 13 -9.5 24.5t-24.5 17.5h47q26 0 46.5 6t44.5 19l-91 -430q-6 -26 -1 -42t21 -28zM186 256l137 126q33 30 45 44.5t12 25.5q0 10 -4 18t-12 15h157l-241 -210l27 -49q45 -83 84.5 -136t88.5 -90l-37 -6
q-56 -9 -96.5 16.5t-121.5 174.5zM448 718l50 -68l-268 -99z" />
    <glyph glyph-name="afii10109" unicode="&#x45c;" horiz-adv-x="482" 
d="M147 0h-159q21 13 32 28.5t17 41.5l73 337q2 9 3 15.5t1 10.5q0 13 -9.5 24.5t-24.5 17.5h47q26 0 46.5 6t44.5 19l-91 -430q-6 -26 -1 -42t21 -28zM186 256l137 126q33 30 45 44.5t12 25.5q0 10 -4 18t-12 15h157l-241 -210l27 -49q45 -83 84.5 -136t88.5 -90l-37 -6
q-56 -9 -96.5 16.5t-121.5 174.5zM448 718l50 -68l-268 -99z" />
    <glyph glyph-name="afii10102" unicode="&#xbe;" horiz-adv-x="442" 
d="M407 466l-19 -101q-21 30 -49.5 44.5t-69.5 14.5q-46 -1 -70.5 -19.5t-24.5 -47.5q0 -21 14 -37.5t81 -42.5q69 -28 93.5 -59.5t25.5 -73.5q0 -68 -56.5 -114t-158.5 -46q-38 0 -78.5 8t-82.5 22l-15 110q31 -29 84.5 -51t95.5 -22q56 0 86.5 24t30.5 59q0 21 -15 36
t-87 47q-67 28 -91 56t-24 71q0 63 54 105t149 42q40 0 70.5 -6.5t56.5 -18.5z" />
    <glyph glyph-name="afii10102" unicode="&#x455;" horiz-adv-x="442" 
d="M407 466l-19 -101q-21 30 -49.5 44.5t-69.5 14.5q-46 -1 -70.5 -19.5t-24.5 -47.5q0 -21 14 -37.5t81 -42.5q69 -28 93.5 -59.5t25.5 -73.5q0 -68 -56.5 -114t-158.5 -46q-38 0 -78.5 8t-82.5 22l-15 110q31 -29 84.5 -51t95.5 -22q56 0 86.5 24t30.5 59q0 21 -15 36
t-87 47q-67 28 -91 56t-24 71q0 63 54 105t149 42q40 0 70.5 -6.5t56.5 -18.5z" />
    <glyph glyph-name="endash" unicode="&#x2013;" horiz-adv-x="447" 
d="M96 346h212q41 0 64 4t54 16l-67 -85h-212q-34 -1 -61.5 -5.5t-54.5 -15.5z" />
    <glyph glyph-name="emdash" unicode="&#x2014;" horiz-adv-x="956" 
d="M242 326h424q41 -1 65 3.5t54 16.5l-67 -85h-425q-36 0 -63 -5t-54 -16z" />
    <glyph glyph-name="quotedblleft" unicode="&#x201c;" horiz-adv-x="436" 
d="M297 712l18 -23q-38 -9 -66.5 -28t-45.5 -48q16 -6 26 -19.5t10 -35.5q0 -34 -19 -58.5t-48 -24.5q-23 0 -34 14.5t-11 40.5q0 40 27 81.5t64 67.5q15 11 36 19.5t43 13.5zM467 712l18 -23q-38 -9 -66.5 -28t-45.5 -48q16 -6 26 -19.5t10 -35.5q0 -34 -19 -59t-48 -24
q-23 0 -34 14.5t-11 40.5q-1 40 26.5 81.5t64.5 67.5q15 11 36 19.5t43 13.5z" />
    <glyph glyph-name="quotedblright" unicode="&#x201d;" horiz-adv-x="443" 
d="M119 475l-18 23q37 7 66 26.5t47 49.5q-19 5 -28 19t-8 35q0 38 20 60.5t47 23.5q21 0 33 -15t12 -39q0 -39 -26.5 -80.5t-65.5 -69.5q-19 -14 -38 -22t-41 -11zM290 475l-18 23q37 7 66 26.5t47 49.5q-19 5 -27.5 19t-8.5 35q0 38 20 61t47 23q21 0 33 -15t12 -39
q0 -39 -26.5 -80.5t-65.5 -69.5q-19 -14 -38 -22t-41 -11z" />
    <glyph glyph-name="quoteleft" unicode="&#x2018;" horiz-adv-x="286" 
d="M310 712l18 -23q-38 -9 -66.5 -28t-45.5 -48q16 -6 26 -19.5t10 -35.5q0 -34 -19 -58.5t-48 -24.5q-23 0 -34.5 14.5t-10.5 40.5q0 40 27 81.5t64 67.5q15 11 36 19.5t43 13.5z" />
    <glyph glyph-name="quoteright" unicode="&#x2019;" horiz-adv-x="286" 
d="M126 475l-18 23q37 7 66 26.5t47 49.5q-19 5 -27.5 19t-8.5 35q0 38 20 61t47 23q21 -1 32.5 -15.5t12.5 -38.5q0 -39 -26.5 -80.5t-65.5 -69.5q-19 -14 -38 -22t-41 -11z" />
    <glyph glyph-name="divide" 
d="M575 389v-70h-466v70h466zM342 243q20 0 32.5 -16t12.5 -40q0 -27 -13 -43t-33 -16q-22 0 -34.5 13.5t-12.5 41.5t13.5 44t34.5 16zM343 580q20 0 32.5 -16t12.5 -40q0 -27 -13 -43t-33 -16q-22 0 -34.5 13.5t-12.5 41.5t13.5 44t34.5 16z" />
    <glyph glyph-name="quotedblbase" unicode="&#x201e;" horiz-adv-x="437" 
d="M-6 -109l-18 23q37 8 66 27.5t47 48.5q-19 6 -27.5 19.5t-8.5 34.5q0 38 20 61t47 23q21 0 33 -15t12 -39q0 -39 -26.5 -80t-65.5 -70q-19 -13 -38 -21t-41 -12zM165 -109l-18 23q37 8 66 27.5t47 48.5q-19 6 -27.5 19.5t-8.5 34.5q0 38 20 61t47 23q21 0 33 -15t12 -39
q0 -39 -26.5 -80t-65.5 -70q-19 -13 -38 -21t-41 -12z" />
    <glyph glyph-name="glyph274" horiz-adv-x="573" 
d="M566 931l-32 -129q-42 -23 -86.5 -33.5t-91.5 -10.5q-68 0 -113 26.5t-45 74.5q0 31 19.5 51.5t50.5 20.5q19 -1 34.5 -5t33.5 -14q-14 -6 -22 -16t-8 -22q-1 -24 22.5 -38.5t59.5 -14.5q57 0 103 29.5t75 80.5z" />
    <glyph glyph-name="afii10062" unicode="&#xa1;" horiz-adv-x="573" 
d="M78 700h142l118 -423l207 309q12 19 19.5 39.5t8.5 37.5q0 12 -4.5 21.5t-14.5 15.5h148l-370 -558q-56 -84 -111.5 -121t-121.5 -37q-47 0 -73 23.5t-26 66.5q0 37 26.5 58.5t63.5 20.5q-7 -7 -9.5 -14.5t-2.5 -15.5q-1 -25 15 -41t43 -15q30 0 59 19.5t63 68.5l27 39
q-18 14 -28 29.5t-22 57.5l-102 345q-8 24 -22.5 44t-32.5 30zM607 931l-32 -129q-42 -23 -86.5 -33.5t-91.5 -10.5q-68 0 -113 26.5t-45 74.5q0 31 19.5 51.5t50.5 20.5q19 -1 34.5 -5t33.5 -14q-14 -6 -22 -16t-8 -22q-1 -24 22.5 -38.5t59.5 -14.5q57 0 103 29.5t75 80.5
z" />
    <glyph glyph-name="afii10062" unicode="&#x40e;" horiz-adv-x="573" 
d="M78 700h142l118 -423l207 309q12 19 19.5 39.5t8.5 37.5q0 12 -4.5 21.5t-14.5 15.5h148l-370 -558q-56 -84 -111.5 -121t-121.5 -37q-47 0 -73 23.5t-26 66.5q0 37 26.5 58.5t63.5 20.5q-7 -7 -9.5 -14.5t-2.5 -15.5q-1 -25 15 -41t43 -15q30 0 59 19.5t63 68.5l27 39
q-18 14 -28 29.5t-22 57.5l-102 345q-8 24 -22.5 44t-32.5 30zM607 931l-32 -129q-42 -23 -86.5 -33.5t-91.5 -10.5q-68 0 -113 26.5t-45 74.5q0 31 19.5 51.5t50.5 20.5q19 -1 34.5 -5t33.5 -14q-14 -6 -22 -16t-8 -22q-1 -24 22.5 -38.5t59.5 -14.5q57 0 103 29.5t75 80.5
z" />
    <glyph glyph-name="afii10085" unicode="&#xf3;" horiz-adv-x="552" 
d="M217 498l-70 -321q-6 -24 -6.5 -30.5t-0.5 -11.5q0 -27 20 -43.5t56 -16.5q31 0 66 16.5t58 41.5q17 19 31.5 52.5t22.5 68.5l28 137q5 25 5.5 28.5t0.5 7.5q-1 17 -9 29.5t-24 18.5h50q25 0 45.5 5.5t42.5 17.5l-97 -451q-18 -83 -34.5 -121.5t-41.5 -69.5
q-35 -41 -81 -61.5t-106 -20.5q-79 0 -125 28.5t-46 70.5q0 30 17.5 48.5t48.5 17.5q14 0 26 -2.5t22 -8.5q-10 -4 -16 -12t-6 -20q0 -23 24 -40t65 -17q61 0 100 43.5t62 147.5l13 60q-42 -45 -91.5 -67.5t-97.5 -22.5q-58 0 -89.5 27t-31.5 67q-1 13 3.5 38.5t15.5 75.5
l39 183q4 22 4.5 26.5t1.5 9.5q0 17 -8.5 29.5t-24.5 18.5h50q25 0 45.5 5.5t42.5 17.5z" />
    <glyph glyph-name="afii10085" unicode="&#x443;" horiz-adv-x="552" 
d="M217 498l-70 -321q-6 -24 -6.5 -30.5t-0.5 -11.5q0 -27 20 -43.5t56 -16.5q31 0 66 16.5t58 41.5q17 19 31.5 52.5t22.5 68.5l28 137q5 25 5.5 28.5t0.5 7.5q-1 17 -9 29.5t-24 18.5h50q25 0 45.5 5.5t42.5 17.5l-97 -451q-18 -83 -34.5 -121.5t-41.5 -69.5
q-35 -41 -81 -61.5t-106 -20.5q-79 0 -125 28.5t-46 70.5q0 30 17.5 48.5t48.5 17.5q14 0 26 -2.5t22 -8.5q-10 -4 -16 -12t-6 -20q0 -23 24 -40t65 -17q61 0 100 43.5t62 147.5l13 60q-42 -45 -91.5 -67.5t-97.5 -22.5q-58 0 -89.5 27t-31.5 67q-1 13 3.5 38.5t15.5 75.5
l39 183q4 22 4.5 26.5t1.5 9.5q0 17 -8.5 29.5t-24.5 18.5h50q25 0 45.5 5.5t42.5 17.5z" />
    <glyph glyph-name="glyph253" horiz-adv-x="390" 
d="M440 696l-29 -107q-34 -19 -69 -27t-74 -8q-67 0 -103.5 25t-36.5 62q0 26 18 42.5t46 17.5q14 -1 26.5 -4t30.5 -12q-17 -11 -21 -17t-4 -14q0 -20 19 -32t49 -12q43 -1 80.5 21t67.5 65z" />
    <glyph glyph-name="afii10110" unicode="&#xa2;" horiz-adv-x="552" 
d="M217 498l-70 -321q-6 -24 -6.5 -30.5t-0.5 -11.5q0 -27 20 -43.5t56 -16.5q31 0 66 16.5t58 41.5q17 19 31.5 52.5t22.5 68.5l28 137q5 25 5.5 28.5t0.5 7.5q-1 17 -9 29.5t-24 18.5h50q25 0 45.5 5.5t42.5 17.5l-97 -451q-18 -83 -34.5 -121.5t-41.5 -69.5
q-35 -41 -81 -61.5t-106 -20.5q-79 0 -125 28.5t-46 70.5q0 30 17.5 48.5t48.5 17.5q14 0 26 -2.5t22 -8.5q-10 -4 -16 -12t-6 -20q0 -23 24 -40t65 -17q61 0 100 43.5t62 147.5l13 60q-42 -45 -91.5 -67.5t-97.5 -22.5q-58 0 -89.5 27t-31.5 67q-1 13 3.5 38.5t15.5 75.5
l39 183q4 22 4.5 26.5t1.5 9.5q0 17 -8.5 29.5t-24.5 18.5h50q25 0 45.5 5.5t42.5 17.5zM506 696l-29 -107q-34 -19 -69 -27t-74 -8q-67 0 -103.5 25t-36.5 62q0 26 18 42.5t46 17.5q14 -1 26.5 -4t30.5 -12q-17 -11 -21 -17t-4 -14q0 -20 19 -32t49 -12q43 -1 80.5 21
t67.5 65z" />
    <glyph glyph-name="afii10110" unicode="&#x45e;" horiz-adv-x="552" 
d="M217 498l-70 -321q-6 -24 -6.5 -30.5t-0.5 -11.5q0 -27 20 -43.5t56 -16.5q31 0 66 16.5t58 41.5q17 19 31.5 52.5t22.5 68.5l28 137q5 25 5.5 28.5t0.5 7.5q-1 17 -9 29.5t-24 18.5h50q25 0 45.5 5.5t42.5 17.5l-97 -451q-18 -83 -34.5 -121.5t-41.5 -69.5
q-35 -41 -81 -61.5t-106 -20.5q-79 0 -125 28.5t-46 70.5q0 30 17.5 48.5t48.5 17.5q14 0 26 -2.5t22 -8.5q-10 -4 -16 -12t-6 -20q0 -23 24 -40t65 -17q61 0 100 43.5t62 147.5l13 60q-42 -45 -91.5 -67.5t-97.5 -22.5q-58 0 -89.5 27t-31.5 67q-1 13 3.5 38.5t15.5 75.5
l39 183q4 22 4.5 26.5t1.5 9.5q0 17 -8.5 29.5t-24.5 18.5h50q25 0 45.5 5.5t42.5 17.5zM506 696l-29 -107q-34 -19 -69 -27t-74 -8q-67 0 -103.5 25t-36.5 62q0 26 18 42.5t46 17.5q14 -1 26.5 -4t30.5 -12q-17 -11 -21 -17t-4 -14q0 -20 19 -32t49 -12q43 -1 80.5 21
t67.5 65z" />
    <glyph glyph-name="afii10145" horiz-adv-x="724" 
d="M159 76h337l107 500q4 22 6.5 38t2.5 30q0 18 -6.5 31.5t-20.5 24.5h188q-32 -12 -49 -41.5t-28 -85.5l-95 -449q-6 -28 -7.5 -41.5t-1.5 -26.5q0 -23 6 -35.5t21 -20.5h-249l-18 -85q-4 -15 -6 -35t-2 -34q-1 -23 6 -35t21 -20h-189q31 12 47.5 40t29.5 87l17 82h-279
q29 10 46 37.5t31 89.5l96 449q2 12 5 35t3 34q-1 19 -7.5 32.5t-18.5 22.5h189q-30 -11 -47 -36.5t-30 -90.5z" />
    <glyph glyph-name="afii10145" unicode="&#x40f;" horiz-adv-x="724" 
d="M159 76h337l107 500q4 22 6.5 38t2.5 30q0 18 -6.5 31.5t-20.5 24.5h188q-32 -12 -49 -41.5t-28 -85.5l-95 -449q-6 -28 -7.5 -41.5t-1.5 -26.5q0 -23 6 -35.5t21 -20.5h-249l-18 -85q-4 -15 -6 -35t-2 -34q-1 -23 6 -35t21 -20h-189q31 12 47.5 40t29.5 87l17 82h-279
q29 10 46 37.5t31 89.5l96 449q2 12 5 35t3 34q-1 19 -7.5 32.5t-18.5 22.5h189q-30 -11 -47 -36.5t-30 -90.5z" />
    <glyph glyph-name="afii10193" unicode="&#x178;" horiz-adv-x="567" 
d="M537 64l-66 -71q-8 -1 -16.5 -2t-15.5 -1q-37 0 -60.5 20.5t-21.5 50.5l1 19q-36 -47 -84.5 -71.5t-104.5 -24.5q-60 0 -90.5 27.5t-30.5 75.5q0 14 3 37t11 56l46 211q4 21 5 26t1 10q0 17 -8.5 29.5t-24.5 18.5h50q25 0 45.5 5.5t42.5 17.5l-69 -315q-6 -24 -8 -39.5
t-2 -24.5q0 -31 19 -48.5t59 -17.5q60 0 107 47t66 132l35 159q4 21 5 26t1 10q0 17 -8.5 29.5t-24.5 18.5h50q25 0 45.5 5.5t42.5 17.5l-72 -333q-6 -27 -8.5 -42.5t-2.5 -24.5q0 -22 10.5 -33t28.5 -11q11 0 22.5 2.5t21.5 7.5zM269 -9l25 -16q-11 -17 -17 -30.5
t-11 -98.5q-2 -30 -25 -55t-72 -53l-33 17q22 13 32.5 31.5t14.5 68.5q2 42 19.5 70.5t66.5 65.5z" />
    <glyph glyph-name="afii10193" unicode="&#x45f;" horiz-adv-x="567" 
d="M537 64l-66 -71q-8 -1 -16.5 -2t-15.5 -1q-37 0 -60.5 20.5t-21.5 50.5l1 19q-36 -47 -84.5 -71.5t-104.5 -24.5q-60 0 -90.5 27.5t-30.5 75.5q0 14 3 37t11 56l46 211q4 21 5 26t1 10q0 17 -8.5 29.5t-24.5 18.5h50q25 0 45.5 5.5t42.5 17.5l-69 -315q-6 -24 -8 -39.5
t-2 -24.5q0 -31 19 -48.5t59 -17.5q60 0 107 47t66 132l35 159q4 21 5 26t1 10q0 17 -8.5 29.5t-24.5 18.5h50q25 0 45.5 5.5t42.5 17.5l-72 -333q-6 -27 -8.5 -42.5t-2.5 -24.5q0 -22 10.5 -33t28.5 -11q11 0 22.5 2.5t21.5 7.5zM269 -9l25 -16q-11 -17 -17 -30.5
t-11 -98.5q-2 -30 -25 -55t-72 -53l-33 17q22 13 32.5 31.5t14.5 68.5q2 42 19.5 70.5t66.5 65.5z" />
    <glyph glyph-name="afii61352" unicode="&#xb9;" horiz-adv-x="1297" 
d="M598 133l58 286q34 172 83 240.5t121 68.5q15 -1 29 -5t28 -12l-24 -115q-6 14 -17.5 22.5t-27.5 8.5q-39 0 -67 -50.5t-53 -167.5l-61 -285q-3 -13 -5.5 -36t-2.5 -33q0 -20 6.5 -33.5t19.5 -21.5h-102q-23 20 -39.5 43.5t-25.5 46.5l-209 489l-58 -286
q-35 -173 -84 -241t-120 -68q-16 0 -30 4.5t-27 12.5l24 115q5 -15 16.5 -23t28.5 -8q38 0 66.5 50.5t53.5 167.5l49 235q10 48 11.5 61t1.5 25q0 21 -10 40.5t-28 35.5h147q0 -4 -0.5 -2.5t41.5 -91.5zM1004 225q-64 0 -105 39.5t-41 104.5q0 84 66.5 154.5t157.5 70.5
q62 0 103.5 -40t41.5 -104q0 -85 -67 -155t-156 -70zM1015 287q64 0 99 50.5t36 109.5q-1 40 -23.5 62.5t-59.5 22.5q-62 0 -97.5 -51.5t-34.5 -107.5q0 -38 20 -62t60 -24zM803 90l15 66h341l-15 -66h-341z" />
    <glyph glyph-name="afii61352" unicode="&#x2116;" horiz-adv-x="1297" 
d="M598 133l58 286q34 172 83 240.5t121 68.5q15 -1 29 -5t28 -12l-24 -115q-6 14 -17.5 22.5t-27.5 8.5q-39 0 -67 -50.5t-53 -167.5l-61 -285q-3 -13 -5.5 -36t-2.5 -33q0 -20 6.5 -33.5t19.5 -21.5h-102q-23 20 -39.5 43.5t-25.5 46.5l-209 489l-58 -286
q-35 -173 -84 -241t-120 -68q-16 0 -30 4.5t-27 12.5l24 115q5 -15 16.5 -23t28.5 -8q38 0 66.5 50.5t53.5 167.5l49 235q10 48 11.5 61t1.5 25q0 21 -10 40.5t-28 35.5h147q0 -4 -0.5 -2.5t41.5 -91.5zM1004 225q-64 0 -105 39.5t-41 104.5q0 84 66.5 154.5t157.5 70.5
q62 0 103.5 -40t41.5 -104q0 -85 -67 -155t-156 -70zM1015 287q64 0 99 50.5t36 109.5q-1 40 -23.5 62.5t-59.5 22.5q-62 0 -97.5 -51.5t-34.5 -107.5q0 -38 20 -62t60 -24zM803 90l15 66h341l-15 -66h-341z" />
    <glyph glyph-name="afii10023" unicode="&#xa8;" horiz-adv-x="536" 
d="M521 700l-22 -130q-7 32 -33 46t-95 14q-20 0 -46.5 -2t-49.5 -4l-45 -209h120q22 -1 43.5 1.5t34.5 7.5l-29 -136q1 24 -16 37.5t-64 13.5h-105l-56 -256q30 -6 61 -8.5t81 -1.5q92 0 137.5 14t90.5 53l-80 -140h-451q30 11 47 39.5t30 88.5l95 448q4 20 6.5 37t2.5 31
q0 20 -6.5 33t-20.5 23h370zM298 887q20 0 32 -12t12 -37q0 -36 -19.5 -59t-44.5 -23q-19 0 -31.5 12t-12.5 37q0 35 17 58.5t47 23.5zM468 887q20 0 32 -12t12 -37q0 -36 -19.5 -59t-44.5 -23q-19 -1 -31.5 11.5t-12.5 37.5q0 35 17 58.5t47 23.5z" />
    <glyph glyph-name="afii10023" unicode="&#x401;" horiz-adv-x="536" 
d="M521 700l-22 -130q-7 32 -33 46t-95 14q-20 0 -46.5 -2t-49.5 -4l-45 -209h120q22 -1 43.5 1.5t34.5 7.5l-29 -136q1 24 -16 37.5t-64 13.5h-105l-56 -256q30 -6 61 -8.5t81 -1.5q92 0 137.5 14t90.5 53l-80 -140h-451q30 11 47 39.5t30 88.5l95 448q4 20 6.5 37t2.5 31
q0 20 -6.5 33t-20.5 23h370zM298 887q20 0 32 -12t12 -37q0 -36 -19.5 -59t-44.5 -23q-19 0 -31.5 12t-12.5 37q0 35 17 58.5t47 23.5zM468 887q20 0 32 -12t12 -37q0 -36 -19.5 -59t-44.5 -23q-19 -1 -31.5 11.5t-12.5 37.5q0 35 17 58.5t47 23.5z" />
    <glyph glyph-name="afii10071" unicode="&#xb8;" horiz-adv-x="465" 
d="M412 128l-29 -99q-45 -22 -90.5 -33.5t-87.5 -11.5q-85 0 -130 42t-44 121q-1 129 82 236.5t220 107.5q63 -1 97 -28t34 -69q0 -75 -91 -137t-252 -75q-1 -4 -1 -8v-7q0 -54 31 -83.5t85 -29.5q51 0 96 19t80 55zM127 234q94 10 167.5 48t73.5 88q0 24 -19 39.5t-47 15.5
q-60 0 -110.5 -56t-64.5 -135zM266 697q20 0 32 -12t12 -37q0 -36 -19.5 -59t-44.5 -23q-19 0 -32 12t-12 37q0 35 17 58.5t47 23.5zM437 697q20 -1 32 -12.5t12 -36.5q-1 -36 -20 -59t-44 -23q-19 0 -31.5 12t-12.5 37q0 35 17 58.5t47 23.5z" />
    <glyph glyph-name="afii10071" unicode="&#x451;" horiz-adv-x="465" 
d="M412 128l-29 -99q-45 -22 -90.5 -33.5t-87.5 -11.5q-85 0 -130 42t-44 121q-1 129 82 236.5t220 107.5q63 -1 97 -28t34 -69q0 -75 -91 -137t-252 -75q-1 -4 -1 -8v-7q0 -54 31 -83.5t85 -29.5q51 0 96 19t80 55zM127 234q94 10 167.5 48t73.5 88q0 24 -19 39.5t-47 15.5
q-60 0 -110.5 -56t-64.5 -135zM266 697q20 0 32 -12t12 -37q0 -36 -19.5 -59t-44.5 -23q-19 0 -32 12t-12 37q0 35 17 58.5t47 23.5zM437 697q20 -1 32 -12.5t12 -36.5q-1 -36 -20 -59t-44 -23q-19 0 -31.5 12t-12.5 37q0 35 17 58.5t47 23.5z" />
    <glyph glyph-name="afii10097" unicode="&#xff;" horiz-adv-x="509" 
d="M287 232q-95 -139 -146.5 -187.5t-109.5 -48.5q-17 0 -37.5 1t-53.5 3q56 23 116 79.5t113 130.5q-44 6 -71.5 37.5t-27.5 78.5q0 70 61 117t171 48q59 0 75.5 -2.5t30.5 -2.5q19 -1 36.5 2t35.5 8l-71 -324q-5 -20 -8.5 -43t-2.5 -34q0 -19 9.5 -30t30.5 -11q10 -1 21 2
t21 8l-65 -71q-8 -1 -17 -1.5t-17 -1.5q-40 0 -59 20t-19 53q0 12 2 27t6 33l67 301q-21 2 -43 4t-39 2q-64 -1 -98 -29.5t-34 -75.5q0 -48 35 -72t88 -21z" />
    <glyph glyph-name="afii10097" unicode="&#x44f;" horiz-adv-x="509" 
d="M287 232q-95 -139 -146.5 -187.5t-109.5 -48.5q-17 0 -37.5 1t-53.5 3q56 23 116 79.5t113 130.5q-44 6 -71.5 37.5t-27.5 78.5q0 70 61 117t171 48q59 0 75.5 -2.5t30.5 -2.5q19 -1 36.5 2t35.5 8l-71 -324q-5 -20 -8.5 -43t-2.5 -34q0 -19 9.5 -30t30.5 -11q10 -1 21 2
t21 8l-65 -71q-8 -1 -17 -1.5t-17 -1.5q-40 0 -59 20t-19 53q0 12 2 27t6 33l67 301q-21 2 -43 4t-39 2q-64 -1 -98 -29.5t-34 -75.5q0 -48 35 -72t88 -21z" />
    <glyph glyph-name="afii10065" unicode="&#xe0;" horiz-adv-x="555" 
d="M335 89l-76 -95q-15 -5 -29.5 -7.5t-29.5 -2.5q-79 0 -124.5 51.5t-45.5 138.5q0 134 90 225.5t226 91.5q11 0 24 -1t25 -2q17 -3 37 -7t28 -3q11 0 30 5.5t38 14.5l-71 -336q-4 -18 -7.5 -40t-3.5 -30q0 -18 10.5 -28.5t31.5 -9.5q12 -1 22.5 1.5t20.5 8.5l-66 -70
q-10 -1 -20 -2.5t-16 -1.5q-35 0 -56 19t-21 55q0 7 1 14.5t7 36.5l61 287q-20 12 -42.5 18.5t-49.5 7.5q-93 0 -149 -69t-56 -171q0 -66 27 -98t74 -31q24 -1 53 7t57 23z" />
    <glyph glyph-name="afii10065" unicode="&#x430;" horiz-adv-x="555" 
d="M335 89l-76 -95q-15 -5 -29.5 -7.5t-29.5 -2.5q-79 0 -124.5 51.5t-45.5 138.5q0 134 90 225.5t226 91.5q11 0 24 -1t25 -2q17 -3 37 -7t28 -3q11 0 30 5.5t38 14.5l-71 -336q-4 -18 -7.5 -40t-3.5 -30q0 -18 10.5 -28.5t31.5 -9.5q12 -1 22.5 1.5t20.5 8.5l-66 -70
q-10 -1 -20 -2.5t-16 -1.5q-35 0 -56 19t-21 55q0 7 1 14.5t7 36.5l61 287q-20 12 -42.5 18.5t-49.5 7.5q-93 0 -149 -69t-56 -171q0 -66 27 -98t74 -31q24 -1 53 7t57 23z" />
    <glyph glyph-name="afii10066" unicode="&#xe1;" horiz-adv-x="558" 
d="M618 718l-74 -109q-16 -1 -27.5 -2t-67.5 -1q-142 -3 -211 -55.5t-101 -156.5l7 -5q31 44 79 68t110 24q86 0 138.5 -49t52.5 -132q0 -121 -77 -218.5t-205 -97.5q-101 0 -151.5 61.5t-50.5 165.5q0 123 61.5 252t148.5 184q46 29 104 41t154 12h50q23 -1 36 3.5t24 14.5
zM310 416q-76 0 -126 -67t-50 -160q0 -65 32 -102.5t92 -37.5q77 -1 124.5 68.5t47.5 164.5q0 63 -31 98.5t-89 35.5z" />
    <glyph glyph-name="afii10066" unicode="&#x431;" horiz-adv-x="558" 
d="M618 718l-74 -109q-16 -1 -27.5 -2t-67.5 -1q-142 -3 -211 -55.5t-101 -156.5l7 -5q31 44 79 68t110 24q86 0 138.5 -49t52.5 -132q0 -121 -77 -218.5t-205 -97.5q-101 0 -151.5 61.5t-50.5 165.5q0 123 61.5 252t148.5 184q46 29 104 41t154 12h50q23 -1 36 3.5t24 14.5
zM310 416q-76 0 -126 -67t-50 -160q0 -65 32 -102.5t92 -37.5q77 -1 124.5 68.5t47.5 164.5q0 63 -31 98.5t-89 35.5z" />
    <glyph glyph-name="afii10067" unicode="&#xe2;" horiz-adv-x="517" 
d="M353 259v-4q45 2 79 -22t34 -68q0 -74 -75 -127.5t-208 -53.5q-72 0 -110 31t-38 102q0 77 27.5 162.5t68.5 131.5q38 42 88.5 61t119.5 19q71 -1 106 -28t35 -73q0 -48 -32 -84t-95 -47zM151 270l90 8q81 7 114 29.5t34 63.5q0 29 -20 43.5t-61 14.5q-54 0 -94.5 -39
t-62.5 -120zM136 213q-6 -22 -9 -42t-3 -35q0 -47 20.5 -69t72.5 -21q68 0 111.5 31t43.5 80q0 33 -29 50t-95 18q-23 -1 -50.5 -3.5t-61.5 -8.5z" />
    <glyph glyph-name="afii10067" unicode="&#x432;" horiz-adv-x="517" 
d="M353 259v-4q45 2 79 -22t34 -68q0 -74 -75 -127.5t-208 -53.5q-72 0 -110 31t-38 102q0 77 27.5 162.5t68.5 131.5q38 42 88.5 61t119.5 19q71 -1 106 -28t35 -73q0 -48 -32 -84t-95 -47zM151 270l90 8q81 7 114 29.5t34 63.5q0 29 -20 43.5t-61 14.5q-54 0 -94.5 -39
t-62.5 -120zM136 213q-6 -22 -9 -42t-3 -35q0 -47 20.5 -69t72.5 -21q68 0 111.5 31t43.5 80q0 33 -29 50t-95 18q-23 -1 -50.5 -3.5t-61.5 -8.5z" />
    <glyph glyph-name="afii10069" unicode="&#xe4;" horiz-adv-x="571" 
d="M201 677l53 48q122 -2 206.5 -87t84.5 -235q0 -186 -90 -302.5t-231 -116.5q-95 0 -144.5 53.5t-48.5 144.5q0 126 84 217t197 92q27 0 49 -6.5t42 -18.5l17 -88q-18 23 -43.5 35t-56.5 13q-79 0 -135 -70t-55 -168q0 -62 28.5 -101t80.5 -38q90 0 151 100t61 249
q0 137 -68.5 208.5t-181.5 70.5z" />
    <glyph glyph-name="afii10069" unicode="&#x434;" horiz-adv-x="571" 
d="M201 677l53 48q122 -2 206.5 -87t84.5 -235q0 -186 -90 -302.5t-231 -116.5q-95 0 -144.5 53.5t-48.5 144.5q0 126 84 217t197 92q27 0 49 -6.5t42 -18.5l17 -88q-18 23 -43.5 35t-56.5 13q-79 0 -135 -70t-55 -168q0 -62 28.5 -101t80.5 -38q90 0 151 100t61 249
q0 137 -68.5 208.5t-181.5 70.5z" />
    <glyph glyph-name="afii10070" unicode="&#xe5;" horiz-adv-x="464" 
d="M412 128l-29 -99q-47 -23 -92 -34t-90 -11q-87 0 -128.5 42t-41.5 121q0 129 83 236.5t219 107.5q63 0 97 -27.5t34 -69.5q-1 -49 -34 -88.5t-93 -67.5q-50 -24 -106.5 -38t-109.5 -18q-1 -4 -1 -8v-7q0 -54 31 -83.5t85 -29.5q51 0 96 19t80 55zM127 234q93 10 167 48
t74 88q0 25 -19.5 39t-46.5 15q-59 0 -110.5 -56t-64.5 -134z" />
    <glyph glyph-name="afii10070" unicode="&#x435;" horiz-adv-x="464" 
d="M412 128l-29 -99q-47 -23 -92 -34t-90 -11q-87 0 -128.5 42t-41.5 121q0 129 83 236.5t219 107.5q63 0 97 -27.5t34 -69.5q-1 -49 -34 -88.5t-93 -67.5q-50 -24 -106.5 -38t-109.5 -18q-1 -4 -1 -8v-7q0 -54 31 -83.5t85 -29.5q51 0 96 19t80 55zM127 234q93 10 167 48
t74 88q0 25 -19.5 39t-46.5 15q-59 0 -110.5 -56t-64.5 -134z" />
    <glyph glyph-name="afii10072" unicode="&#xe6;" horiz-adv-x="883" 
d="M544 500l-50 -213h73q29 87 96 145.5t136 58.5q41 0 67.5 -23t26.5 -63q0 -30 -20 -48t-51 -18q-11 0 -21 2.5t-19 7.5q10 6 15 15.5t6 20.5q0 19 -9.5 29.5t-25.5 11.5q-47 0 -90 -81.5t-43 -179.5q0 -57 20 -87.5t65 -30.5q26 0 53 11.5t54 37.5l-26 -86
q-28 -12 -54 -19t-47 -7q-69 0 -111.5 45.5t-42.5 137.5q-1 14 0.5 28.5t4.5 28.5h-72l-52 -224q-25 0 -47 -6.5t-41 -18.5l58 249h-71q-22 -99 -93.5 -169.5t-148.5 -70.5q-42 0 -68 22.5t-26 63.5q0 29 19.5 47.5t51.5 18.5q10 0 20 -3t20 -7q-11 -7 -16 -16.5t-5 -19.5
q0 -20 9 -30.5t26 -10.5q45 -1 89 80.5t44 181.5q0 55 -20.5 86t-60.5 31q-26 0 -51 -13.5t-45 -35.5l26 86q21 11 45.5 18.5t43.5 7.5q69 0 109.5 -46.5t41.5 -128.5q0 -10 -0.5 -16.5t-0.5 -12.5h76l44 188q24 0 46 6.5t42 18.5z" />
    <glyph glyph-name="afii10072" unicode="&#x436;" horiz-adv-x="883" 
d="M544 500l-50 -213h73q29 87 96 145.5t136 58.5q41 0 67.5 -23t26.5 -63q0 -30 -20 -48t-51 -18q-11 0 -21 2.5t-19 7.5q10 6 15 15.5t6 20.5q0 19 -9.5 29.5t-25.5 11.5q-47 0 -90 -81.5t-43 -179.5q0 -57 20 -87.5t65 -30.5q26 0 53 11.5t54 37.5l-26 -86
q-28 -12 -54 -19t-47 -7q-69 0 -111.5 45.5t-42.5 137.5q-1 14 0.5 28.5t4.5 28.5h-72l-52 -224q-25 0 -47 -6.5t-41 -18.5l58 249h-71q-22 -99 -93.5 -169.5t-148.5 -70.5q-42 0 -68 22.5t-26 63.5q0 29 19.5 47.5t51.5 18.5q10 0 20 -3t20 -7q-11 -7 -16 -16.5t-5 -19.5
q0 -20 9 -30.5t26 -10.5q45 -1 89 80.5t44 181.5q0 55 -20.5 86t-60.5 31q-26 0 -51 -13.5t-45 -35.5l26 86q21 11 45.5 18.5t43.5 7.5q69 0 109.5 -46.5t41.5 -128.5q0 -10 -0.5 -16.5t-0.5 -12.5h76l44 188q24 0 46 6.5t42 18.5z" />
    <glyph glyph-name="afii10073" unicode="&#xe7;" horiz-adv-x="440" 
d="M277 265v-3q49 -2 81 -26.5t32 -70.5q0 -77 -68 -129t-168 -52q-68 0 -115 27t-47 77q0 29 17 48t45 19q15 0 29.5 -6t25.5 -16q-15 -8 -21 -16.5t-6 -19.5q0 -25 20 -37.5t57 -12.5q61 0 99 33t38 82q0 34 -26 52t-83 18q-17 0 -28.5 -1t-23.5 -3l12 57h33q58 -1 95 23
t38 64q0 25 -20 39.5t-60 14.5q-41 0 -76.5 -15t-67.5 -46l22 96q32 15 67.5 22t79.5 8q74 0 109.5 -27.5t35.5 -73.5q0 -49 -35 -84.5t-91 -40.5z" />
    <glyph glyph-name="afii10073" unicode="&#x437;" horiz-adv-x="440" 
d="M277 265v-3q49 -2 81 -26.5t32 -70.5q0 -77 -68 -129t-168 -52q-68 0 -115 27t-47 77q0 29 17 48t45 19q15 0 29.5 -6t25.5 -16q-15 -8 -21 -16.5t-6 -19.5q0 -25 20 -37.5t57 -12.5q61 0 99 33t38 82q0 34 -26 52t-83 18q-17 0 -28.5 -1t-23.5 -3l12 57h33q58 -1 95 23
t38 64q0 25 -20 39.5t-60 14.5q-41 0 -76.5 -15t-67.5 -46l22 96q32 15 67.5 22t79.5 8q74 0 109.5 -27.5t35.5 -73.5q0 -49 -35 -84.5t-91 -40.5z" />
    <glyph glyph-name="afii10074" unicode="&#xe8;" horiz-adv-x="567" 
d="M537 64l-66 -71q-8 -1 -16.5 -2t-15.5 -1q-37 0 -60.5 20.5t-21.5 50.5l1 19q-36 -47 -84.5 -71.5t-104.5 -24.5q-60 0 -90.5 27.5t-30.5 75.5q0 14 3 37t11 56l46 211q4 21 5 26t1 10q0 17 -8.5 29.5t-24.5 18.5h50q25 0 45.5 5.5t42.5 17.5l-69 -315q-6 -24 -8 -39.5
t-2 -24.5q0 -31 19 -48.5t59 -17.5q60 0 107 47t66 132l35 159q4 21 5 26t1 10q0 17 -8.5 29.5t-24.5 18.5h50q25 0 45.5 5.5t42.5 17.5l-72 -333q-6 -27 -8.5 -42.5t-2.5 -24.5q0 -22 10.5 -33t28.5 -11q11 0 22.5 2.5t21.5 7.5z" />
    <glyph glyph-name="afii10074" unicode="&#x438;" horiz-adv-x="567" 
d="M537 64l-66 -71q-8 -1 -16.5 -2t-15.5 -1q-37 0 -60.5 20.5t-21.5 50.5l1 19q-36 -47 -84.5 -71.5t-104.5 -24.5q-60 0 -90.5 27.5t-30.5 75.5q0 14 3 37t11 56l46 211q4 21 5 26t1 10q0 17 -8.5 29.5t-24.5 18.5h50q25 0 45.5 5.5t42.5 17.5l-69 -315q-6 -24 -8 -39.5
t-2 -24.5q0 -31 19 -48.5t59 -17.5q60 0 107 47t66 132l35 159q4 21 5 26t1 10q0 17 -8.5 29.5t-24.5 18.5h50q25 0 45.5 5.5t42.5 17.5l-72 -333q-6 -27 -8.5 -42.5t-2.5 -24.5q0 -22 10.5 -33t28.5 -11q11 0 22.5 2.5t21.5 7.5z" />
    <glyph glyph-name="afii10075" unicode="&#xe9;" horiz-adv-x="567" 
d="M537 64l-66 -71q-8 -1 -16.5 -2t-15.5 -1q-37 0 -60.5 20.5t-21.5 50.5l1 19q-36 -47 -84.5 -71.5t-104.5 -24.5q-60 0 -90.5 27.5t-30.5 75.5q0 14 3 37t11 56l46 211q4 21 5 26t1 10q0 17 -8.5 29.5t-24.5 18.5h50q25 0 45.5 5.5t42.5 17.5l-69 -315q-6 -24 -8 -39.5
t-2 -24.5q0 -31 19 -48.5t59 -17.5q60 0 107 47t66 132l35 159q4 21 5 26t1 10q0 17 -8.5 29.5t-24.5 18.5h50q25 0 45.5 5.5t42.5 17.5l-72 -333q-6 -27 -8.5 -42.5t-2.5 -24.5q0 -22 10.5 -33t28.5 -11q11 0 22.5 2.5t21.5 7.5zM504 696l-29 -107q-34 -19 -69 -27t-74 -8
q-67 0 -103.5 25t-36.5 62q0 26 18 43t46 17q14 0 26.5 -3.5t30.5 -12.5q-17 -11 -21 -17t-4 -14q0 -20 19 -32t49 -12q43 0 80.5 21.5t67.5 64.5z" />
    <glyph glyph-name="afii10075" unicode="&#x439;" horiz-adv-x="567" 
d="M537 64l-66 -71q-8 -1 -16.5 -2t-15.5 -1q-37 0 -60.5 20.5t-21.5 50.5l1 19q-36 -47 -84.5 -71.5t-104.5 -24.5q-60 0 -90.5 27.5t-30.5 75.5q0 14 3 37t11 56l46 211q4 21 5 26t1 10q0 17 -8.5 29.5t-24.5 18.5h50q25 0 45.5 5.5t42.5 17.5l-69 -315q-6 -24 -8 -39.5
t-2 -24.5q0 -31 19 -48.5t59 -17.5q60 0 107 47t66 132l35 159q4 21 5 26t1 10q0 17 -8.5 29.5t-24.5 18.5h50q25 0 45.5 5.5t42.5 17.5l-72 -333q-6 -27 -8.5 -42.5t-2.5 -24.5q0 -22 10.5 -33t28.5 -11q11 0 22.5 2.5t21.5 7.5zM504 696l-29 -107q-34 -19 -69 -27t-74 -8
q-67 0 -103.5 25t-36.5 62q0 26 18 43t46 17q14 0 26.5 -3.5t30.5 -12.5q-17 -11 -21 -17t-4 -14q0 -20 19 -32t49 -12q43 0 80.5 21.5t67.5 64.5z" />
    <glyph glyph-name="afii10077" unicode="&#xeb;" horiz-adv-x="531" 
d="M502 496l-71 -324q-5 -20 -8 -43t-3 -34q0 -19 9.5 -30t30.5 -11q10 -1 21 2t21 8l-65 -71q-8 -1 -17 -2t-17 -1q-40 0 -59 20t-19 53q0 12 2 28t6 32l67 298q-75 0 -120 -35.5t-79 -134.5l-30 -88q-38 -109 -74.5 -144t-87.5 -35q-31 0 -50 18.5t-19 49.5q0 24 14.5 44
t38.5 28q-1 -20 7.5 -31.5t24.5 -11.5q24 0 43.5 25t44.5 96l31 90q24 71 58.5 113t90.5 62q24 8 50.5 12t86.5 6q24 0 39.5 2.5t32.5 8.5z" />
    <glyph glyph-name="afii10077" unicode="&#x43b;" horiz-adv-x="531" 
d="M502 496l-71 -324q-5 -20 -8 -43t-3 -34q0 -19 9.5 -30t30.5 -11q10 -1 21 2t21 8l-65 -71q-8 -1 -17 -2t-17 -1q-40 0 -59 20t-19 53q0 12 2 28t6 32l67 298q-75 0 -120 -35.5t-79 -134.5l-30 -88q-38 -109 -74.5 -144t-87.5 -35q-31 0 -50 18.5t-19 49.5q0 24 14.5 44
t38.5 28q-1 -20 7.5 -31.5t24.5 -11.5q24 0 43.5 25t44.5 96l31 90q24 71 58.5 113t90.5 62q24 8 50.5 12t86.5 6q24 0 39.5 2.5t32.5 8.5z" />
    <glyph glyph-name="afii10078" unicode="&#xec;" horiz-adv-x="696" 
d="M121 475h148l72 -338l179 291q13 21 16.5 28.5t8.5 18.5h29q25 0 45.5 5.5t42.5 17.5l-55 -335q-7 -38 -8 -50t-1 -18q0 -20 10.5 -30.5t29.5 -10.5q10 0 21 2.5t21 7.5l-65 -71q-8 -1 -17 -2t-17 -1q-37 0 -57.5 19t-20.5 53q0 10 1.5 26t6.5 41l47 260l-251 -405
l-18 18q-7 6 -12 18t-10 39l-67 322l-48 -203q-25 -104 -61.5 -149t-83.5 -45q-29 0 -48 19t-19 49q0 24 14.5 44t38.5 28q0 -19 7 -31t24 -12q22 0 41 26t39 101l59 222q-10 16 -20 27t-22 18z" />
    <glyph glyph-name="afii10078" unicode="&#x43c;" horiz-adv-x="696" 
d="M121 475h148l72 -338l179 291q13 21 16.5 28.5t8.5 18.5h29q25 0 45.5 5.5t42.5 17.5l-55 -335q-7 -38 -8 -50t-1 -18q0 -20 10.5 -30.5t29.5 -10.5q10 0 21 2.5t21 7.5l-65 -71q-8 -1 -17 -2t-17 -1q-37 0 -57.5 19t-20.5 53q0 10 1.5 26t6.5 41l47 260l-251 -405
l-18 18q-7 6 -12 18t-10 39l-67 322l-48 -203q-25 -104 -61.5 -149t-83.5 -45q-29 0 -48 19t-19 49q0 24 14.5 44t38.5 28q0 -19 7 -31t24 -12q22 0 41 26t39 101l59 222q-10 16 -20 27t-22 18z" />
    <glyph glyph-name="afii10079" unicode="&#xed;" horiz-adv-x="564" 
d="M153 0h-165q21 11 35 30t25 69l63 292q4 22 5 26.5t1 9.5q-1 17 -9 29.5t-24 18.5h50q25 0 45.5 5.5t42.5 17.5l-45 -210h225l22 103q4 22 5 26.5t1 9.5q0 17 -8.5 29.5t-24.5 18.5h50q25 0 45.5 5.5t42.5 17.5l-71 -326q-4 -18 -7.5 -42t-3.5 -35q-1 -19 9 -30t31 -11
q10 0 21 2.5t21 7.5l-65 -71q-8 -1 -17 -2t-17 -1q-37 0 -57.5 18.5t-20.5 53.5q0 13 1.5 25.5t6.5 35.5l23 104h-226l-28 -128q-3 -11 -6 -29t-2 -24q-1 -13 6 -25t20 -21z" />
    <glyph glyph-name="afii10079" unicode="&#x43d;" horiz-adv-x="564" 
d="M153 0h-165q21 11 35 30t25 69l63 292q4 22 5 26.5t1 9.5q-1 17 -9 29.5t-24 18.5h50q25 0 45.5 5.5t42.5 17.5l-45 -210h225l22 103q4 22 5 26.5t1 9.5q0 17 -8.5 29.5t-24.5 18.5h50q25 0 45.5 5.5t42.5 17.5l-71 -326q-4 -18 -7.5 -42t-3.5 -35q-1 -19 9 -30t31 -11
q10 0 21 2.5t21 7.5l-65 -71q-8 -1 -17 -2t-17 -1q-37 0 -57.5 18.5t-20.5 53.5q0 13 1.5 25.5t6.5 35.5l23 104h-226l-28 -128q-3 -11 -6 -29t-2 -24q-1 -13 6 -25t20 -21z" />
    <glyph glyph-name="afii10080" unicode="&#xee;" horiz-adv-x="534" 
d="M316 491q84 0 134.5 -50t51.5 -136q0 -123 -75.5 -222t-201.5 -99q-92 0 -143 50.5t-51 141.5q0 136 83 225.5t202 89.5zM293 428q-72 0 -120 -72.5t-48 -168.5q-1 -70 31.5 -105t84.5 -35q67 0 117 66t50 177q-1 70 -32.5 103.5t-82.5 34.5z" />
    <glyph glyph-name="afii10080" unicode="&#x43e;" horiz-adv-x="534" 
d="M316 491q84 0 134.5 -50t51.5 -136q0 -123 -75.5 -222t-201.5 -99q-92 0 -143 50.5t-51 141.5q0 136 83 225.5t202 89.5zM293 428q-72 0 -120 -72.5t-48 -168.5q-1 -70 31.5 -105t84.5 -35q67 0 117 66t50 177q-1 70 -32.5 103.5t-82.5 34.5z" />
    <glyph glyph-name="afii10081" unicode="&#xef;" horiz-adv-x="574" 
d="M153 0h-165q21 11 35 30t25 69l63 292q4 22 5 26.5t1 9.5q-1 17 -9 29.5t-24 18.5h50q25 0 45.5 5.5t42.5 17.5l-22 -96q37 43 84 66t106 23q62 -1 94.5 -26.5t32.5 -68.5q0 -13 -3.5 -35.5t-6.5 -38.5l-33 -150q-4 -18 -7.5 -42t-3.5 -35q0 -19 9.5 -30t30.5 -11
q10 0 21 2.5t21 7.5l-65 -71q-8 -1 -17 -2t-17 -1q-37 0 -57.5 18.5t-20.5 53.5q0 11 1 23t7 38l41 190q6 31 6.5 36t1.5 9q-1 31 -21 47.5t-57 16.5q-39 -1 -73 -18.5t-57 -45.5q-20 -25 -34 -60.5t-28 -104.5l-20 -94q-3 -12 -5.5 -30t-2.5 -23q0 -13 6.5 -25t19.5 -21z
" />
    <glyph glyph-name="afii10081" unicode="&#x43f;" horiz-adv-x="574" 
d="M153 0h-165q21 11 35 30t25 69l63 292q4 22 5 26.5t1 9.5q-1 17 -9 29.5t-24 18.5h50q25 0 45.5 5.5t42.5 17.5l-22 -96q37 43 84 66t106 23q62 -1 94.5 -26.5t32.5 -68.5q0 -13 -3.5 -35.5t-6.5 -38.5l-33 -150q-4 -18 -7.5 -42t-3.5 -35q0 -19 9.5 -30t30.5 -11
q10 0 21 2.5t21 7.5l-65 -71q-8 -1 -17 -2t-17 -1q-37 0 -57.5 18.5t-20.5 53.5q0 11 1 23t7 38l41 190q6 31 6.5 36t1.5 9q-1 31 -21 47.5t-57 16.5q-39 -1 -73 -18.5t-57 -45.5q-20 -25 -34 -60.5t-28 -104.5l-20 -94q-3 -12 -5.5 -30t-2.5 -23q0 -13 6.5 -25t19.5 -21z
" />
    <glyph glyph-name="afii10082" unicode="&#xf0;" horiz-adv-x="560" 
d="M168 -1l-22 94q19 -21 45.5 -32t58.5 -10q82 0 133 64.5t51 160.5q-1 70 -30.5 107.5t-82.5 37.5q-52 0 -93 -37.5t-57 -114.5l-85 -386q-5 -18 -6.5 -31t-1.5 -22q0 -13 6.5 -24.5t19.5 -22.5h-165q25 16 38 35.5t22 64.5l109 508q4 22 4.5 26.5t1.5 9.5q0 17 -8.5 29.5
t-24.5 18.5h50q25 0 45.5 5.5t42.5 17.5l-23 -95h3q25 42 65 65t95 23q86 0 127 -53t42 -146q0 -134 -77 -221t-201 -87q-24 0 -44 4t-38 11z" />
    <glyph glyph-name="afii10082" unicode="&#x440;" horiz-adv-x="560" 
d="M168 -1l-22 94q19 -21 45.5 -32t58.5 -10q82 0 133 64.5t51 160.5q-1 70 -30.5 107.5t-82.5 37.5q-52 0 -93 -37.5t-57 -114.5l-85 -386q-5 -18 -6.5 -31t-1.5 -22q0 -13 6.5 -24.5t19.5 -22.5h-165q25 16 38 35.5t22 64.5l109 508q4 22 4.5 26.5t1.5 9.5q0 17 -8.5 29.5
t-24.5 18.5h50q25 0 45.5 5.5t42.5 17.5l-23 -95h3q25 42 65 65t95 23q86 0 127 -53t42 -146q0 -134 -77 -221t-201 -87q-24 0 -44 4t-38 11z" />
    <glyph glyph-name="afii10083" unicode="&#xf1;" horiz-adv-x="452" 
d="M414 119l-43 -107q-32 -15 -64.5 -21.5t-72.5 -6.5q-107 0 -157.5 50.5t-50.5 134.5q0 134 90 228t214 94q57 0 89.5 -25t33.5 -61q0 -30 -21 -48t-54 -18q-11 -1 -21 1.5t-20 8.5q9 6 14 15.5t6 20.5q0 17 -15 30t-41 13q-77 0 -129 -71.5t-52 -163.5q0 -60 31.5 -97
t94.5 -37q44 -1 88.5 16t79.5 44z" />
    <glyph glyph-name="afii10083" unicode="&#x441;" horiz-adv-x="452" 
d="M414 119l-43 -107q-32 -15 -64.5 -21.5t-72.5 -6.5q-107 0 -157.5 50.5t-50.5 134.5q0 134 90 228t214 94q57 0 89.5 -25t33.5 -61q0 -30 -21 -48t-54 -18q-11 -1 -21 1.5t-20 8.5q9 6 14 15.5t6 20.5q0 17 -15 30t-41 13q-77 0 -129 -71.5t-52 -163.5q0 -60 31.5 -97
t94.5 -37q44 -1 88.5 16t79.5 44z" />
    <glyph glyph-name="afii10084" unicode="&#xf2;" horiz-adv-x="886" 
d="M155 0h-165q24 13 37 33t23 66l62 292q4 23 5 27t1 9q0 17 -8.5 29.5t-24.5 18.5h50q25 0 45.5 5.5t42.5 17.5l-22 -96q36 42 84.5 65.5t105.5 23.5q59 0 89 -26t32 -71q37 50 86 73t104 24q62 -1 94 -27.5t32 -72.5q-1 -11 -5 -35t-11 -61l-26 -123q-5 -19 -8 -42.5
t-3 -34.5q0 -19 9.5 -30t30.5 -11q10 0 21 2.5t21 7.5l-65 -71q-8 -1 -17 -2t-17 -1q-37 0 -57.5 18.5t-20.5 53.5q-1 11 0.5 23t7.5 38l41 191q7 33 7 37t1 9q0 30 -19.5 47t-51.5 17q-33 0 -67 -17t-58 -42q-21 -22 -34.5 -51.5t-30.5 -109.5l-23 -105q-7 -30 -7.5 -37
t-0.5 -14q0 -15 6 -26.5t20 -21.5h-165q22 10 36 30t25 69l44 206q4 20 6.5 35.5t2.5 26.5q0 25 -21 40.5t-52 16.5q-33 0 -66.5 -17t-58.5 -45q-19 -21 -32 -50t-30 -108l-23 -105q-3 -11 -5.5 -29t-2.5 -24q0 -13 6.5 -25t19.5 -21z" />
    <glyph glyph-name="afii10084" unicode="&#x442;" horiz-adv-x="886" 
d="M155 0h-165q24 13 37 33t23 66l62 292q4 23 5 27t1 9q0 17 -8.5 29.5t-24.5 18.5h50q25 0 45.5 5.5t42.5 17.5l-22 -96q36 42 84.5 65.5t105.5 23.5q59 0 89 -26t32 -71q37 50 86 73t104 24q62 -1 94 -27.5t32 -72.5q-1 -11 -5 -35t-11 -61l-26 -123q-5 -19 -8 -42.5
t-3 -34.5q0 -19 9.5 -30t30.5 -11q10 0 21 2.5t21 7.5l-65 -71q-8 -1 -17 -2t-17 -1q-37 0 -57.5 18.5t-20.5 53.5q-1 11 0.5 23t7.5 38l41 191q7 33 7 37t1 9q0 30 -19.5 47t-51.5 17q-33 0 -67 -17t-58 -42q-21 -22 -34.5 -51.5t-30.5 -109.5l-23 -105q-7 -30 -7.5 -37
t-0.5 -14q0 -15 6 -26.5t20 -21.5h-165q22 10 36 30t25 69l44 206q4 20 6.5 35.5t2.5 26.5q0 25 -21 40.5t-52 16.5q-33 0 -66.5 -17t-58.5 -45q-19 -21 -32 -50t-30 -108l-23 -105q-3 -11 -5.5 -29t-2.5 -24q0 -13 6.5 -25t19.5 -21z" />
    <glyph glyph-name="afii10086" unicode="&#xf4;" horiz-adv-x="690" 
d="M354 487l6 28q19 92 67 146.5t117 54.5q16 0 32 -3.5t32 -9.5l-50 -60q-7 5 -14.5 7t-15.5 3q-35 0 -55.5 -39t-32.5 -117l-2 -13q95 26 161.5 -29.5t66.5 -155.5q-1 -145 -100 -239.5t-223 -71.5l-3 -13q-22 -91 -68.5 -146t-115.5 -55q-17 1 -33 4t-31 9l50 60
q6 -5 13.5 -7.5t16.5 -2.5q34 0 55 38.5t33 115.5q-14 -3 -25.5 -5t-20.5 -2q-84 0 -133.5 51.5t-49.5 140.5q0 133 84 224t204 91q7 0 15 -1t20 -3zM274 56l67 366q-10 3 -19 4t-19 2q-76 0 -128 -66.5t-52 -166.5q0 -68 29.5 -107.5t85.5 -39.5q7 0 16 1.5t20 6.5z
M424 420l-68 -366q8 -4 17 -5t21 -1q77 0 128.5 65t51.5 168q0 82 -44.5 122.5t-105.5 16.5z" />
    <glyph glyph-name="afii10086" unicode="&#x444;" horiz-adv-x="690" 
d="M354 487l6 28q19 92 67 146.5t117 54.5q16 0 32 -3.5t32 -9.5l-50 -60q-7 5 -14.5 7t-15.5 3q-35 0 -55.5 -39t-32.5 -117l-2 -13q95 26 161.5 -29.5t66.5 -155.5q-1 -145 -100 -239.5t-223 -71.5l-3 -13q-22 -91 -68.5 -146t-115.5 -55q-17 1 -33 4t-31 9l50 60
q6 -5 13.5 -7.5t16.5 -2.5q34 0 55 38.5t33 115.5q-14 -3 -25.5 -5t-20.5 -2q-84 0 -133.5 51.5t-49.5 140.5q0 133 84 224t204 91q7 0 15 -1t20 -3zM274 56l67 366q-10 3 -19 4t-19 2q-76 0 -128 -66.5t-52 -166.5q0 -68 29.5 -107.5t85.5 -39.5q7 0 16 1.5t20 6.5z
M424 420l-68 -366q8 -4 17 -5t21 -1q77 0 128.5 65t51.5 168q0 82 -44.5 122.5t-105.5 16.5z" />
    <glyph glyph-name="afii10087" unicode="&#xf5;" horiz-adv-x="520" 
d="M279 302l37 50q54 73 89.5 101t70.5 28q15 0 25.5 -4.5t22.5 -14.5l3 -81q-10 5 -20.5 8t-26.5 3q-24 0 -45 -12.5t-45 -40.5l-82 -94l75 -135q41 -76 57 -91t37 -23q-22 -6 -39 -9t-41 -3q-32 0 -47.5 14.5t-34.5 54.5l-68 134l-53 -64q-87 -105 -110.5 -119t-47.5 -14
q-17 0 -29 5t-22 16l-4 81q13 -6 24.5 -9t22.5 -3q26 0 54 20t84 88l48 58l-60 116q-38 71 -53.5 87.5t-38.5 25.5h133z" />
    <glyph glyph-name="afii10087" unicode="&#x445;" horiz-adv-x="520" 
d="M279 302l37 50q54 73 89.5 101t70.5 28q15 0 25.5 -4.5t22.5 -14.5l3 -81q-10 5 -20.5 8t-26.5 3q-24 0 -45 -12.5t-45 -40.5l-82 -94l75 -135q41 -76 57 -91t37 -23q-22 -6 -39 -9t-41 -3q-32 0 -47.5 14.5t-34.5 54.5l-68 134l-53 -64q-87 -105 -110.5 -119t-47.5 -14
q-17 0 -29 5t-22 16l-4 81q13 -6 24.5 -9t22.5 -3q26 0 54 20t84 88l48 58l-60 116q-38 71 -53.5 87.5t-38.5 25.5h133z" />
    <glyph glyph-name="afii10088" unicode="&#xf6;" horiz-adv-x="543" 
d="M512 498l-72 -333q-6 -27 -8.5 -42.5t-2.5 -24.5q-1 -22 10 -33t29 -11q11 0 28.5 4t31.5 11q-36 -56 -61.5 -127t-31.5 -135h-92q10 54 32.5 100t56.5 85l-2 3q-8 -2 -14.5 -3.5t-13.5 -1.5q-31 0 -51.5 20.5t-18.5 50.5l1 19q-36 -47 -84.5 -71.5t-104.5 -24.5
q-60 0 -90.5 27.5t-30.5 75.5q-1 14 2.5 37t11.5 56l46 211q4 21 5 26t1 10q0 17 -8.5 29.5t-24.5 18.5h50q25 0 45.5 5.5t42.5 17.5l-69 -315q-6 -24 -8 -39.5t-2 -24.5q0 -31 19 -48.5t59 -17.5q60 0 107 47t66 132l35 159q4 21 5 26t1 10q0 17 -8.5 29.5t-24.5 18.5h50
q25 0 45.5 5.5t42.5 17.5z" />
    <glyph glyph-name="afii10088" unicode="&#x446;" horiz-adv-x="543" 
d="M512 498l-72 -333q-6 -27 -8.5 -42.5t-2.5 -24.5q-1 -22 10 -33t29 -11q11 0 28.5 4t31.5 11q-36 -56 -61.5 -127t-31.5 -135h-92q10 54 32.5 100t56.5 85l-2 3q-8 -2 -14.5 -3.5t-13.5 -1.5q-31 0 -51.5 20.5t-18.5 50.5l1 19q-36 -47 -84.5 -71.5t-104.5 -24.5
q-60 0 -90.5 27.5t-30.5 75.5q-1 14 2.5 37t11.5 56l46 211q4 21 5 26t1 10q0 17 -8.5 29.5t-24.5 18.5h50q25 0 45.5 5.5t42.5 17.5l-69 -315q-6 -24 -8 -39.5t-2 -24.5q0 -31 19 -48.5t59 -17.5q60 0 107 47t66 132l35 159q4 21 5 26t1 10q0 17 -8.5 29.5t-24.5 18.5h50
q25 0 45.5 5.5t42.5 17.5z" />
    <glyph glyph-name="afii10089" unicode="&#xf7;" horiz-adv-x="521" 
d="M491 498l-73 -332q-4 -18 -7.5 -42t-3.5 -35q-1 -19 9 -30t31 -11q10 0 21 2.5t21 7.5l-65 -71q-8 -1 -17 -2t-17 -1q-37 0 -57.5 18.5t-20.5 53.5q0 11 1 23t7 38l21 97q-46 -28 -92.5 -43.5t-85.5 -15.5q-53 0 -85 22t-32 62q0 11 4 37t9 45l16 70q3 17 4.5 23.5
t1.5 12.5q0 17 -8.5 29.5t-24.5 18.5h50q25 0 45.5 5.5t42.5 17.5l-39 -174q-3 -13 -6 -30.5t-3 -22.5q-1 -20 17.5 -33.5t55.5 -13.5q51 0 96.5 29.5t56.5 72.5l16 65q2 11 4 20.5t2 15.5q0 17 -8.5 29.5t-24.5 18.5h50q25 -1 45.5 5t42.5 18z" />
    <glyph glyph-name="afii10089" unicode="&#x447;" horiz-adv-x="521" 
d="M491 498l-73 -332q-4 -18 -7.5 -42t-3.5 -35q-1 -19 9 -30t31 -11q10 0 21 2.5t21 7.5l-65 -71q-8 -1 -17 -2t-17 -1q-37 0 -57.5 18.5t-20.5 53.5q0 11 1 23t7 38l21 97q-46 -28 -92.5 -43.5t-85.5 -15.5q-53 0 -85 22t-32 62q0 11 4 37t9 45l16 70q3 17 4.5 23.5
t1.5 12.5q0 17 -8.5 29.5t-24.5 18.5h50q25 0 45.5 5.5t42.5 17.5l-39 -174q-3 -13 -6 -30.5t-3 -22.5q-1 -20 17.5 -33.5t55.5 -13.5q51 0 96.5 29.5t56.5 72.5l16 65q2 11 4 20.5t2 15.5q0 17 -8.5 29.5t-24.5 18.5h50q25 -1 45.5 5t42.5 18z" />
    <glyph glyph-name="afii10090" unicode="&#xf8;" horiz-adv-x="864" 
d="M221 498l-69 -315q-12 -55 -13 -59.5t0 -8.5q0 -30 16 -46t45 -16q32 0 66.5 16t58.5 41q22 23 34.5 52.5t29.5 104.5l27 124q4 21 5 26t1 10q0 17 -8.5 29.5t-24.5 18.5h50q25 0 45.5 5.5t42.5 17.5l-69 -315q-9 -39 -10.5 -52t-1.5 -23q0 -26 17.5 -40.5t45.5 -14.5
q32 0 66.5 16.5t58.5 43.5q18 20 31 49t30 105l27 124q4 21 5 26t1 10q0 17 -8.5 29.5t-24.5 18.5h50q25 0 45.5 5.5t42.5 17.5l-71 -333q-7 -31 -9 -45t-2 -22q0 -22 10.5 -33.5t28.5 -10.5q11 0 22.5 2.5t21.5 7.5l-66 -71q-8 -1 -16.5 -2t-15.5 -1q-37 0 -60.5 20.5
t-21.5 50.5l1 19q-37 -48 -86 -72t-105 -24q-52 0 -81 24.5t-29 72.5q-32 -46 -77.5 -71.5t-102.5 -25.5q-63 0 -94.5 26.5t-31.5 73.5q-1 11 3 33t13 63l46 211q4 21 4.5 26t1.5 10q-1 17 -9 29.5t-24 18.5h50q25 0 45.5 5.5t42.5 17.5z" />
    <glyph glyph-name="afii10090" unicode="&#x448;" horiz-adv-x="864" 
d="M221 498l-69 -315q-12 -55 -13 -59.5t0 -8.5q0 -30 16 -46t45 -16q32 0 66.5 16t58.5 41q22 23 34.5 52.5t29.5 104.5l27 124q4 21 5 26t1 10q0 17 -8.5 29.5t-24.5 18.5h50q25 0 45.5 5.5t42.5 17.5l-69 -315q-9 -39 -10.5 -52t-1.5 -23q0 -26 17.5 -40.5t45.5 -14.5
q32 0 66.5 16.5t58.5 43.5q18 20 31 49t30 105l27 124q4 21 5 26t1 10q0 17 -8.5 29.5t-24.5 18.5h50q25 0 45.5 5.5t42.5 17.5l-71 -333q-7 -31 -9 -45t-2 -22q0 -22 10.5 -33.5t28.5 -10.5q11 0 22.5 2.5t21.5 7.5l-66 -71q-8 -1 -16.5 -2t-15.5 -1q-37 0 -60.5 20.5
t-21.5 50.5l1 19q-37 -48 -86 -72t-105 -24q-52 0 -81 24.5t-29 72.5q-32 -46 -77.5 -71.5t-102.5 -25.5q-63 0 -94.5 26.5t-31.5 73.5q-1 11 3 33t13 63l46 211q4 21 4.5 26t1.5 10q-1 17 -9 29.5t-24 18.5h50q25 0 45.5 5.5t42.5 17.5z" />
    <glyph glyph-name="afii10091" unicode="&#xf9;" horiz-adv-x="840" 
d="M196 498l-69 -315q-12 -55 -12.5 -59.5t-0.5 -8.5q0 -30 16 -46t45 -16q32 0 66.5 16t58.5 41q22 23 34.5 52.5t29.5 104.5l27 124q4 21 4.5 26t1.5 10q-1 17 -9 29.5t-24 18.5h50q25 0 45.5 5.5t42.5 17.5l-69 -315q-9 -39 -10.5 -52t-1.5 -23q-1 -26 17 -40.5t46 -14.5
q32 -1 66.5 16t58.5 44q18 20 31 49t30 105l27 124q4 21 4.5 26t1.5 10q0 17 -8.5 29.5t-24.5 18.5h50q25 -1 45.5 5t42.5 18l-71 -333q-7 -31 -9 -45t-2 -22q0 -22 10.5 -33t28.5 -11q11 0 28.5 4t31.5 11q-36 -56 -61.5 -127t-31.5 -135h-92q10 54 32.5 100t56.5 85l-2 3
q-8 -2 -14.5 -3.5t-13.5 -1.5q-31 0 -51.5 20.5t-18.5 50.5l1 19q-37 -48 -86 -72t-105 -24q-52 0 -81 24.5t-29 72.5q-32 -46 -77.5 -71.5t-102.5 -25.5q-63 0 -94.5 26.5t-31.5 73.5q0 11 3.5 33t12.5 63l46 211q4 21 5 26t1 10q-1 17 -9 29.5t-24 18.5h50q25 0 45.5 5.5
t42.5 17.5z" />
    <glyph glyph-name="afii10091" unicode="&#x449;" horiz-adv-x="840" 
d="M196 498l-69 -315q-12 -55 -12.5 -59.5t-0.5 -8.5q0 -30 16 -46t45 -16q32 0 66.5 16t58.5 41q22 23 34.5 52.5t29.5 104.5l27 124q4 21 4.5 26t1.5 10q-1 17 -9 29.5t-24 18.5h50q25 0 45.5 5.5t42.5 17.5l-69 -315q-9 -39 -10.5 -52t-1.5 -23q-1 -26 17 -40.5t46 -14.5
q32 -1 66.5 16t58.5 44q18 20 31 49t30 105l27 124q4 21 4.5 26t1.5 10q0 17 -8.5 29.5t-24.5 18.5h50q25 -1 45.5 5t42.5 18l-71 -333q-7 -31 -9 -45t-2 -22q0 -22 10.5 -33t28.5 -11q11 0 28.5 4t31.5 11q-36 -56 -61.5 -127t-31.5 -135h-92q10 54 32.5 100t56.5 85l-2 3
q-8 -2 -14.5 -3.5t-13.5 -1.5q-31 0 -51.5 20.5t-18.5 50.5l1 19q-37 -48 -86 -72t-105 -24q-52 0 -81 24.5t-29 72.5q-32 -46 -77.5 -71.5t-102.5 -25.5q-63 0 -94.5 26.5t-31.5 73.5q0 11 3.5 33t12.5 63l46 211q4 21 5 26t1 10q-1 17 -9 29.5t-24 18.5h50q25 0 45.5 5.5
t42.5 17.5z" />
    <glyph glyph-name="afii10092" unicode="&#xfa;" horiz-adv-x="517" 
d="M224 261l58 67q15 3 28.5 4.5t27.5 2.5q66 0 105 -37t39 -102q0 -93 -74 -152.5t-184 -59.5q-81 0 -123.5 36t-42.5 99q0 32 13.5 68.5t82.5 140.5l57 86q-13 -6 -25 -8.5t-25 -2.5q-10 0 -22 0.5t-20 2.5q-39 5 -42 5.5t-6 0.5q-32 0 -57.5 -10.5t-44.5 -28.5l53 111
q18 4 29.5 5t24.5 2q13 0 26 -1.5t43 -5.5q25 -5 51.5 -7.5t46.5 -1.5q9 0 25 1t44 5l-81 -152q-60 -112 -70 -143.5t-9 -60.5q0 -37 22 -57.5t68 -20.5q64 0 104.5 34.5t41.5 96.5q0 41 -25 65t-78 24q-17 0 -31 -1.5t-30 -4.5z" />
    <glyph glyph-name="afii10092" unicode="&#x44a;" horiz-adv-x="517" 
d="M224 261l58 67q15 3 28.5 4.5t27.5 2.5q66 0 105 -37t39 -102q0 -93 -74 -152.5t-184 -59.5q-81 0 -123.5 36t-42.5 99q0 32 13.5 68.5t82.5 140.5l57 86q-13 -6 -25 -8.5t-25 -2.5q-10 0 -22 0.5t-20 2.5q-39 5 -42 5.5t-6 0.5q-32 0 -57.5 -10.5t-44.5 -28.5l53 111
q18 4 29.5 5t24.5 2q13 0 26 -1.5t43 -5.5q25 -5 51.5 -7.5t46.5 -1.5q9 0 25 1t44 5l-81 -152q-60 -112 -70 -143.5t-9 -60.5q0 -37 22 -57.5t68 -20.5q64 0 104.5 34.5t41.5 96.5q0 41 -25 65t-78 24q-17 0 -31 -1.5t-30 -4.5z" />
    <glyph glyph-name="afii10093" unicode="&#xfb;" horiz-adv-x="727" 
d="M212 498l-73 -314q-5 -20 -7.5 -38t-2.5 -30q0 -34 19.5 -52t61.5 -18q64 0 102 36t38 94q0 42 -25 66.5t-78 24.5q-17 0 -31 -1.5t-30 -4.5l58 67q15 3 28.5 5t27.5 2q67 0 105.5 -36.5t38.5 -98.5q0 -88 -70 -152t-185 -64q-69 0 -108 28.5t-39 88.5q0 12 3 35t8 44
l51 227q2 9 3 15t1 11q0 14 -10 25.5t-24 16.5h47q23 0 45.5 5t45.5 18zM675 59l-66 -72q-7 -1 -13 -2t-17 -1q-43 0 -64 17.5t-20 57.5q-1 9 0.5 19.5t8.5 41.5l61 287q2 12 2.5 17t1.5 9q0 14 -10 25.5t-24 16.5h47q23 0 45.5 5t45.5 18l-70 -330q-8 -34 -10 -51t-2 -27
q0 -20 10 -30.5t31 -10.5q9 0 20.5 2t22.5 8z" />
    <glyph glyph-name="afii10093" unicode="&#x44b;" horiz-adv-x="727" 
d="M212 498l-73 -314q-5 -20 -7.5 -38t-2.5 -30q0 -34 19.5 -52t61.5 -18q64 0 102 36t38 94q0 42 -25 66.5t-78 24.5q-17 0 -31 -1.5t-30 -4.5l58 67q15 3 28.5 5t27.5 2q67 0 105.5 -36.5t38.5 -98.5q0 -88 -70 -152t-185 -64q-69 0 -108 28.5t-39 88.5q0 12 3 35t8 44
l51 227q2 9 3 15t1 11q0 14 -10 25.5t-24 16.5h47q23 0 45.5 5t45.5 18zM675 59l-66 -72q-7 -1 -13 -2t-17 -1q-43 0 -64 17.5t-20 57.5q-1 9 0.5 19.5t8.5 41.5l61 287q2 12 2.5 17t1.5 9q0 14 -10 25.5t-24 16.5h47q23 0 45.5 5t45.5 18l-70 -330q-8 -34 -10 -51t-2 -27
q0 -20 10 -30.5t31 -10.5q9 0 20.5 2t22.5 8z" />
    <glyph glyph-name="afii10094" unicode="&#xfc;" horiz-adv-x="479" 
d="M212 498l-73 -314q-5 -20 -7.5 -38t-2.5 -30q0 -35 20 -52.5t58 -16.5q66 -1 104.5 33t38.5 96q0 42 -25 66.5t-78 24.5q-17 0 -31 -1.5t-30 -4.5l58 67q15 3 28.5 5t27.5 2q67 0 105 -37.5t39 -105.5q-1 -89 -75.5 -148.5t-183.5 -59.5q-67 0 -105 29t-38 88
q-1 12 2.5 35t8.5 44l51 227q2 9 3 15t1 11q0 14 -10 25.5t-24 16.5h47q23 0 45.5 5t45.5 18z" />
    <glyph glyph-name="afii10094" unicode="&#x44c;" horiz-adv-x="479" 
d="M212 498l-73 -314q-5 -20 -7.5 -38t-2.5 -30q0 -35 20 -52.5t58 -16.5q66 -1 104.5 33t38.5 96q0 42 -25 66.5t-78 24.5q-17 0 -31 -1.5t-30 -4.5l58 67q15 3 28.5 5t27.5 2q67 0 105 -37.5t39 -105.5q-1 -89 -75.5 -148.5t-183.5 -59.5q-67 0 -105 29t-38 88
q-1 12 2.5 35t8.5 44l51 227q2 9 3 15t1 11q0 14 -10 25.5t-24 16.5h47q23 0 45.5 5t45.5 18z" />
    <glyph glyph-name="afii10095" unicode="&#xfd;" horiz-adv-x="490" 
d="M89 365l22 96q32 15 69 22.5t77 7.5q97 0 149 -50.5t52 -135.5q0 -124 -81 -222.5t-215 -98.5q-77 0 -123.5 27t-46.5 77q0 29 17 48t46 19q16 0 30 -6t25 -16q-15 -8 -21 -16.5t-6 -19.5q0 -24 19 -37t55 -13q81 0 136 47.5t66 132.5h-138q-27 0 -46 -6.5t-35 -19.5
l23 90q8 -2 16.5 -2.5t18.5 -0.5h166q3 60 -28 100t-94 40q-45 -1 -84.5 -18t-68.5 -45z" />
    <glyph glyph-name="afii10095" unicode="&#x44d;" horiz-adv-x="490" 
d="M89 365l22 96q32 15 69 22.5t77 7.5q97 0 149 -50.5t52 -135.5q0 -124 -81 -222.5t-215 -98.5q-77 0 -123.5 27t-46.5 77q0 29 17 48t46 19q16 0 30 -6t25 -16q-15 -8 -21 -16.5t-6 -19.5q0 -24 19 -37t55 -13q81 0 136 47.5t66 132.5h-138q-27 0 -46 -6.5t-35 -19.5
l23 90q8 -2 16.5 -2.5t18.5 -0.5h166q3 60 -28 100t-94 40q-45 -1 -84.5 -18t-68.5 -45z" />
    <glyph glyph-name="afii10096" unicode="&#xfe;" horiz-adv-x="777" 
d="M176 286h117q28 92 99.5 148.5t166.5 56.5q84 0 134.5 -50t51.5 -136q-1 -123 -76 -222t-201 -99q-90 0 -142 50.5t-52 144.5q0 12 1 24t4 25h-116l-28 -129q-3 -11 -5.5 -29t-2.5 -24q0 -13 6.5 -25t19.5 -21h-165q21 11 35 30t25 69l63 292q4 22 5 26.5t1 9.5
q-1 17 -9 29.5t-24 18.5h50q25 0 45.5 5.5t42.5 17.5zM536 428q-72 -1 -120 -73t-48 -168q-1 -70 31.5 -105t84.5 -35q67 0 116.5 66t50.5 177q0 70 -32 104t-83 34z" />
    <glyph glyph-name="afii10096" unicode="&#x44e;" horiz-adv-x="777" 
d="M176 286h117q28 92 99.5 148.5t166.5 56.5q84 0 134.5 -50t51.5 -136q-1 -123 -76 -222t-201 -99q-90 0 -142 50.5t-52 144.5q0 12 1 24t4 25h-116l-28 -129q-3 -11 -5.5 -29t-2.5 -24q0 -13 6.5 -25t19.5 -21h-165q21 11 35 30t25 69l63 292q4 22 5 26.5t1 9.5
q-1 17 -9 29.5t-24 18.5h50q25 0 45.5 5.5t42.5 17.5zM536 428q-72 -1 -120 -73t-48 -168q-1 -70 31.5 -105t84.5 -35q67 0 116.5 66t50.5 177q0 70 -32 104t-83 34z" />
    <glyph glyph-name="currency" unicode="&#xa4;" horiz-adv-x="676" 
d="M584 339q0 -37 -11.5 -69.5t-34.5 -61.5l91 -91l-45 -45l-91 91q-31 -24 -64.5 -35t-69.5 -11q-37 -1 -70.5 10.5t-63.5 35.5l-91 -91l-45 45l91 91q-24 29 -35 61.5t-11 69.5q0 36 11 68.5t35 62.5l-91 91l45 45l91 -91q30 23 63.5 34.5t70.5 11.5q36 0 69.5 -11.5
t64.5 -34.5l91 91l45 -45l-91 -91q23 -30 34.5 -62.5t11.5 -68.5zM211 339q-1 -62 42.5 -105t105.5 -43q61 0 104.5 43t43.5 105q0 61 -43.5 104.5t-104.5 43.5q-62 0 -105 -43.5t-43 -104.5z" />
    <glyph glyph-name="hyphenminus" unicode="-" horiz-adv-x="362" 
d="M96 296h125q42 0 66 4t54 16l-67 -85h-126q-35 0 -62.5 -5t-54.5 -16z" />
    <glyph glyph-name="brokenbar" unicode="&#xa6;" horiz-adv-x="506" 
d="M212 716h90v-372h-90v372zM212 187h90v-372h-90v372z" />
    <glyph glyph-name="quotesinglbase" unicode="&#x201a;" horiz-adv-x="286" 
d="M1 -109l-18 23q37 8 66 27.5t47 48.5q-19 6 -27.5 19.5t-8.5 34.5q0 38 20 61t47 23q21 0 33 -15t12 -39q0 -39 -26.5 -80t-65.5 -70q-19 -13 -38 -21t-41 -12z" />
    <glyph glyph-name="daggerdbl" unicode="&#x2021;" 
d="M406 458h131q39 -1 55 7.5t29 26.5l-32 -152q-5 19 -18 28t-53 10h-130l-43 -200h125q44 -1 60.5 7t30.5 27l-33 -152q-4 18 -17.5 27.5t-49.5 10.5h-133l-29 -138q-9 -40 -9.5 -48.5t-0.5 -18.5q0 -13 7 -24t21 -17h-167q23 11 34.5 24t28.5 90l28 132h-121
q-43 0 -62 -8.5t-29 -29.5l33 156q4 -19 15.5 -29t43.5 -9h138l43 200h-131q-37 0 -55 -9.5t-27 -28.5l34 156q5 -20 15.5 -29t41.5 -9h139l32 151q3 17 5 28.5t2 19.5q0 13 -6 23t-20 20h164q-24 -10 -36 -25.5t-22 -65.5z" />
    <glyph glyph-name="accent" unicode="&#x2c6;" horiz-adv-x="2" 
d="M-65 718l50 -68l-268 -99z" />
    <glyph glyph-name="perthousand" unicode="&#x2030;" horiz-adv-x="1049" 
d="M259 710q57 -1 89.5 -34t33.5 -88q0 -84 -49.5 -145t-121.5 -60q-58 0 -92 33.5t-33 89.5q0 83 46.5 143.5t126.5 60.5zM251 660q-42 0 -67.5 -46.5t-25.5 -106.5q0 -37 16.5 -56t42.5 -18q40 -1 66.5 46.5t26.5 110.5q-1 35 -17 52.5t-42 17.5zM590 697h64l-492 -697
h-63zM547 318q57 0 90 -33.5t33 -88.5q0 -84 -49.5 -144.5t-121.5 -60.5q-58 0 -91.5 33.5t-33.5 89.5q0 83 46.5 143.5t126.5 60.5zM539 268q-42 0 -67.5 -46.5t-25.5 -106.5q0 -37 16.5 -55.5t42.5 -18.5q40 -1 66 46.5t27 110.5q0 35 -16.5 52.5t-42.5 17.5zM884 318
q57 0 90 -33.5t33 -88.5q0 -84 -49.5 -144.5t-121.5 -60.5q-58 0 -91.5 33.5t-33.5 89.5q0 83 46.5 143.5t126.5 60.5zM876 268q-42 -1 -67.5 -47t-25.5 -106q0 -37 16.5 -55.5t42.5 -18.5q40 0 66.5 47t26.5 110q-1 35 -17 52.5t-42 17.5z" />
    <glyph glyph-name="guilsinglleft" unicode="&#x2039;" horiz-adv-x="241" 
d="M125 276l66 -187h-32l-125 190l187 177h45z" />
    <glyph glyph-name="Accent" unicode="&#x2dc;" horiz-adv-x="2" 
d="M-92 903l45 -74l-284 -78z" />
    <glyph glyph-name="guilsinglright" unicode="&#x203a;" horiz-adv-x="241" 
d="M139 269l-66 187h32l125 -190l-187 -177h-45z" />
    <glyph glyph-name="periodcentered" unicode="&#x2219;" horiz-adv-x="233" 
d="M128 322q19 0 32.5 -14.5t13.5 -41.5q0 -40 -19.5 -63t-44.5 -23q-21 0 -34 14t-13 44q0 37 18.5 60.5t46.5 23.5z" />
    <glyph glyph-name="apple" unicode="&#xf000;" horiz-adv-x="703" 
d="M229 357q0 61 43 104.5t105 43.5q61 0 104.5 -43.5t43.5 -104.5q0 -62 -43.5 -105.5t-104.5 -42.5q-62 0 -105 43t-43 105z" />
    <glyph glyph-name="fi" unicode="&#xf001;" horiz-adv-x="544" 
d="M513 59l-66 -72q-7 -1 -13 -2t-17 -1q-43 0 -63.5 17.5t-20.5 57.5q0 9 1 19.5t8 41.5l62 291h-197l-50 -269q-38 -202 -88 -281t-134 -79q-17 0 -33 3.5t-33 9.5l51 62q8 -4 16 -7t15 -3q37 0 60 44t61 256l47 264h-54l66 66l13 53q23 97 78 138t143 42q16 -1 32 -3
t34 -5l-63 -74q-8 10 -18 15t-21 5q-39 0 -63 -28.5t-37 -95.5l-9 -47h205q22 0 44 5.5t42 17.5l-70 -332q-8 -34 -10.5 -51t-1.5 -27q0 -20 10 -31t31 -10q9 0 20.5 2t22.5 8zM505 689q20 0 34 -14.5t14 -41.5q0 -41 -19.5 -63.5t-45.5 -22.5q-24 0 -37 14.5t-12 41.5
q0 38 19.5 61.5t46.5 24.5z" />
    <glyph glyph-name="uniF002" unicode="&#xf002;" horiz-adv-x="545" 
d="M135 477l13 53q24 98 80.5 139t153.5 41q32 0 61.5 -4.5t58.5 -3.5q16 0 31 5t29 15l-116 -554q-8 -35 -10 -51t-2 -27q0 -20 10 -31t31 -10q9 0 20.5 2t22.5 8l-66 -72q-7 -1 -13 -2t-17 -1q-43 0 -63.5 17.5t-20.5 57.5q0 9 1 19.5t8 41.5l110 514q-22 7 -42.5 10
t-41.5 4q-62 0 -93 -26.5t-46 -97.5l-10 -47h62q33 0 43 2t21 8l-23 -105q-9 16 -21 22.5t-32 6.5h-63l-50 -267q-38 -202 -88 -280.5t-134 -79.5q-17 0 -33 3.5t-33 9.5l51 62q8 -4 16 -6.5t15 -3.5q37 0 59.5 43.5t61.5 256.5l47 262h-54z" />
    </font>
</defs>
</svg>
